ZillaSlab-LightItalic.ufo
<glyph name="numbersign" format="1">
  <advance width="583"/>
  <unicode hex="0023"/>
  <outline>
    <contour>
      <point x="505" y="521" type="line"/>
      <point x="469" y="398" type="line"/>
      <point x="555" y="398" type="line"/>
      <point x="550" y="352" type="line"/>
      <point x="455" y="352" type="line"/>
      <point x="404" y="177" type="line"/>
      <point x="502" y="177" type="line"/>
      <point x="497" y="131" type="line"/>
      <point x="390" y="131" type="line"/>
      <point x="352" y="0" type="line"/>
      <point x="302" y="0" type="line"/>
      <point x="340" y="131" type="line"/>
      <point x="156" y="131" type="line"/>
      <point x="118" y="0" type="line"/>
      <point x="68" y="0" type="line"/>
      <point x="106" y="131" type="line"/>
      <point x="25" y="131" type="line"/>
      <point x="30" y="177" type="line"/>
      <point x="120" y="177" type="line"/>
      <point x="171" y="352" type="line"/>
      <point x="77" y="352" type="line"/>
      <point x="82" y="398" type="line"/>
      <point x="185" y="398" type="line"/>
      <point x="221" y="521" type="line"/>
      <point x="271" y="521" type="line"/>
      <point x="235" y="398" type="line"/>
      <point x="419" y="398" type="line"/>
      <point x="455" y="521" type="line"/>
    </contour>
    <contour>
      <point x="170" y="177" type="line"/>
      <point x="354" y="177" type="line"/>
      <point x="405" y="352" type="line"/>
      <point x="221" y="352" type="line"/>
    </contour>
  </outline>
</glyph>
<glyph name="ampersand" format="1">
  <advance width="723"/>
  <unicode hex="0026"/>
  <outline>
    <contour>
      <point x="426" y="356" type="line"/>
      <point x="706" y="356" type="line"/>
      <point x="701" y="307" type="line"/>
      <point x="588" y="307" type="line"/>
      <point x="557" y="243"/>
      <point x="500" y="157"/>
      <point x="427" y="91" type="curve"/>
      <point x="471" y="62"/>
      <point x="518" y="44"/>
      <point x="567" y="44" type="curve" smooth="yes"/>
      <point x="599" y="44"/>
      <point x="629" y="52"/>
      <point x="653" y="67" type="curve"/>
      <point x="663" y="19" type="line"/>
      <point x="628" y="-1"/>
      <point x="593" y="-10"/>
      <point x="556" y="-10" type="curve" smooth="yes"/>
      <point x="495" y="-10"/>
      <point x="435" y="14"/>
      <point x="381" y="54" type="curve"/>
      <point x="328" y="15"/>
      <point x="269" y="-10"/>
      <point x="207" y="-10" type="curve" smooth="yes"/>
      <point x="113" y="-10"/>
      <point x="39" y="49"/>
      <point x="39" y="143" type="curve" smooth="yes"/>
      <point x="39" y="227"/>
      <point x="101" y="283"/>
      <point x="185" y="327" type="curve"/>
      <point x="170" y="371"/>
      <point x="162" y="414"/>
      <point x="162" y="454" type="curve" smooth="yes"/>
      <point x="162" y="580"/>
      <point x="245" y="660"/>
      <point x="352" y="660" type="curve" smooth="yes"/>
      <point x="435" y="660"/>
      <point x="494" y="611"/>
      <point x="494" y="538" type="curve" smooth="yes"/>
      <point x="494" y="423"/>
      <point x="348" y="369"/>
      <point x="249" y="320" type="curve"/>
      <point x="280" y="244"/>
      <point x="332" y="168"/>
      <point x="395" y="116" type="curve"/>
      <point x="454" y="169"/>
      <point x="501" y="241"/>
      <point x="529" y="307" type="curve"/>
      <point x="420" y="307" type="line"/>
    </contour>
    <contour>
      <point x="436" y="534" type="curve" smooth="yes"/>
      <point x="436" y="576"/>
      <point x="407" y="613"/>
      <point x="348" y="613" type="curve" smooth="yes"/>
      <point x="275" y="613"/>
      <point x="218" y="559"/>
      <point x="218" y="462" type="curve" smooth="yes"/>
      <point x="218" y="428"/>
      <point x="224" y="390"/>
      <point x="237" y="353" type="curve"/>
      <point x="332" y="399"/>
      <point x="436" y="454"/>
    </contour>
    <contour>
      <point x="198" y="293" type="curve"/>
      <point x="139" y="259"/>
      <point x="95" y="221"/>
      <point x="95" y="152" type="curve" smooth="yes"/>
      <point x="95" y="73"/>
      <point x="151" y="40"/>
      <point x="219" y="40" type="curve" smooth="yes"/>
      <point x="265" y="40"/>
      <point x="309" y="55"/>
      <point x="348" y="80" type="curve"/>
      <point x="284" y="137"/>
      <point x="231" y="214"/>
    </contour>
  </outline>
</glyph>
<glyph name="quotesingle" format="1">
  <advance width="186"/>
  <unicode hex="0027"/>
  <outline>
    <contour>
      <point x="128" y="377" type="line"/>
      <point x="160" y="650" type="line"/>
      <point x="105" y="650" type="line"/>
      <point x="79" y="377" type="line"/>
    </contour>
  </outline>
</glyph>
<glyph name="parenleft" format="1">
  <advance width="269"/>
  <unicode hex="0028"/>
  <outline>
    <contour>
      <point x="249" y="718" type="curve"/>
      <point x="303" y="718" type="line"/>
      <point x="162" y="557"/>
      <point x="89" y="392"/>
      <point x="89" y="212" type="curve" smooth="yes"/>
      <point x="89" y="79"/>
      <point x="128" y="-66"/>
      <point x="208" y="-183" type="curve"/>
      <point x="152" y="-183" type="line"/>
      <point x="75" y="-60"/>
      <point x="41" y="79"/>
      <point x="41" y="208" type="curve" smooth="yes"/>
      <point x="41" y="385"/>
      <point x="105" y="552"/>
    </contour>
  </outline>
</glyph>
<glyph name="asterisk" format="1">
  <advance width="407"/>
  <unicode hex="002A"/>
  <outline>
    <contour>
      <point x="386" y="562" type="line"/>
      <point x="260" y="492" type="line"/>
      <point x="371" y="423" type="line"/>
      <point x="343" y="386" type="line"/>
      <point x="241" y="458" type="line"/>
      <point x="231" y="339" type="line"/>
      <point x="187" y="339" type="line"/>
      <point x="203" y="458" type="line"/>
      <point x="84" y="386" type="line"/>
      <point x="65" y="423" type="line"/>
      <point x="191" y="492" type="line"/>
      <point x="80" y="562" type="line"/>
      <point x="107" y="599" type="line"/>
      <point x="210" y="526" type="line"/>
      <point x="220" y="650" type="line"/>
      <point x="264" y="650" type="line"/>
      <point x="248" y="526" type="line"/>
      <point x="365" y="599" type="line"/>
    </contour>
  </outline>
</glyph>
<glyph name="plus" format="1">
  <advance width="419"/>
  <unicode hex="002B"/>
  <outline>
    <contour>
      <point x="38" y="259" type="line"/>
      <point x="189" y="259" type="line"/>
      <point x="173" y="108" type="line"/>
      <point x="216" y="108" type="line"/>
      <point x="232" y="259" type="line"/>
      <point x="378" y="259" type="line"/>
      <point x="382" y="303" type="line"/>
      <point x="236" y="303" type="line"/>
      <point x="253" y="455" type="line"/>
      <point x="210" y="455" type="line"/>
      <point x="193" y="303" type="line"/>
      <point x="42" y="303" type="line"/>
    </contour>
  </outline>
</glyph>
<glyph name="comma" format="1">
  <advance width="195"/>
  <unicode hex="002C"/>
  <outline>
    <contour>
      <point x="-10" y="-107" type="line"/>
      <point x="43" y="-107" type="line"/>
      <point x="115" y="105" type="line"/>
      <point x="62" y="105" type="line"/>
    </contour>
  </outline>
</glyph>
<glyph name="hyphen" format="1">
  <advance width="349"/>
  <unicode hex="002D"/>
  <unicode hex="00AD"/>
  <outline>
    <contour>
      <point x="59" y="254" type="line"/>
      <point x="285" y="254" type="line"/>
      <point x="280" y="205" type="line"/>
      <point x="54" y="205" type="line"/>
    </contour>
  </outline>
</glyph>
<glyph name="three" format="1">
  <advance width="499"/>
  <unicode hex="0033"/>
  <outline>
    <contour>
      <point x="132" y="371" type="line"/>
      <point x="160" y="455" type="line"/>
      <point x="191" y="471"/>
      <point x="228" y="481"/>
      <point x="255" y="481" type="curve" smooth="yes"/>
      <point x="336" y="481"/>
      <point x="377" y="443"/>
      <point x="377" y="380" type="curve" smooth="yes"/>
      <point x="377" y="313"/>
      <point x="333" y="240"/>
      <point x="195" y="231" type="curve"/>
      <point x="191" y="187" type="line"/>
      <point x="327" y="182"/>
      <point x="372" y="138"/>
      <point x="372" y="66" type="curve" smooth="yes"/>
      <point x="372" y="-3"/>
      <point x="338" y="-92"/>
      <point x="209" y="-92" type="curve" smooth="yes"/>
      <point x="125" y="-92"/>
      <point x="88" y="-49"/>
      <point x="69" y="6" type="curve"/>
      <point x="25" y="-10" type="line"/>
      <point x="38" y="-81"/>
      <point x="91" y="-141"/>
      <point x="206" y="-141" type="curve" smooth="yes"/>
      <point x="344" y="-141"/>
      <point x="431" y="-52"/>
      <point x="431" y="69" type="curve" smooth="yes"/>
      <point x="431" y="128"/>
      <point x="400" y="196"/>
      <point x="293" y="214" type="curve"/>
      <point x="293" y="218" type="line"/>
      <point x="404" y="248"/>
      <point x="436" y="319"/>
      <point x="436" y="389" type="curve" smooth="yes"/>
      <point x="436" y="480"/>
      <point x="363" y="531"/>
      <point x="271" y="531" type="curve" smooth="yes"/>
      <point x="200" y="531"/>
      <point x="141" y="499"/>
      <point x="114" y="476" type="curve"/>
      <point x="88" y="377" type="line"/>
    </contour>
  </outline>
</glyph>
<glyph name="five" format="1">
  <advance width="501"/>
  <unicode hex="0035"/>
  <outline>
    <contour>
      <point x="433" y="77" type="curve" smooth="yes"/>
      <point x="433" y="231"/>
      <point x="315" y="265"/>
      <point x="184" y="265" type="curve" smooth="yes"/>
      <point x="168" y="265"/>
      <point x="149" y="265"/>
      <point x="132" y="264" type="curve"/>
      <point x="154" y="471" type="line"/>
      <point x="398" y="471" type="line"/>
      <point x="398" y="390" type="line"/>
      <point x="445" y="395" type="line"/>
      <point x="452" y="521" type="line"/>
      <point x="107" y="521" type="line"/>
      <point x="76" y="232" type="line"/>
      <point x="94" y="212" type="line"/>
      <point x="121" y="214"/>
      <point x="151" y="215"/>
      <point x="174" y="215" type="curve" smooth="yes"/>
      <point x="285" y="215"/>
      <point x="373" y="191"/>
      <point x="373" y="69" type="curve" smooth="yes"/>
      <point x="373" y="-28"/>
      <point x="317" y="-91"/>
      <point x="213" y="-91" type="curve" smooth="yes"/>
      <point x="136" y="-91"/>
      <point x="95" y="-56"/>
      <point x="78" y="6" type="curve"/>
      <point x="34" y="-10" type="line"/>
      <point x="46" y="-80"/>
      <point x="99" y="-140"/>
      <point x="213" y="-140" type="curve" smooth="yes"/>
      <point x="355" y="-140"/>
      <point x="433" y="-48"/>
    </contour>
  </outline>
</glyph>
<glyph name="colon" format="1">
  <advance width="214"/>
  <unicode hex="003A"/>
  <outline>
    <contour>
      <point x="84" y="443" type="line"/>
      <point x="162" y="443" type="line"/>
      <point x="154" y="359" type="line"/>
      <point x="76" y="359" type="line"/>
    </contour>
    <contour>
      <point x="47" y="84" type="line"/>
      <point x="125" y="84" type="line"/>
      <point x="117" y="0" type="line"/>
      <point x="39" y="0" type="line"/>
    </contour>
  </outline>
</glyph>
<glyph name="equal" format="1">
  <advance width="574"/>
  <unicode hex="003D"/>
  <outline>
    <contour>
      <point x="73" y="369" type="line"/>
      <point x="521" y="369" type="line"/>
      <point x="526" y="413" type="line"/>
      <point x="78" y="413" type="line"/>
    </contour>
    <contour>
      <point x="50" y="149" type="line"/>
      <point x="498" y="149" type="line"/>
      <point x="503" y="192" type="line"/>
      <point x="55" y="192" type="line"/>
    </contour>
  </outline>
</glyph>
<glyph name="greater" format="1">
  <advance width="401"/>
  <unicode hex="003E"/>
  <outline>
    <contour>
      <point x="370" y="272" type="line"/>
      <point x="372" y="286" type="line"/>
      <point x="87" y="549" type="line"/>
      <point x="81" y="494" type="line"/>
      <point x="311" y="280" type="line"/>
      <point x="37" y="69" type="line"/>
      <point x="31" y="14" type="line"/>
    </contour>
  </outline>
</glyph>
<glyph name="question" format="1">
  <advance width="430"/>
  <unicode hex="003F"/>
  <outline>
    <contour>
      <point x="109" y="461" type="line"/>
      <point x="133" y="564" type="line"/>
      <point x="167" y="593"/>
      <point x="201" y="609"/>
      <point x="250" y="609" type="curve" smooth="yes"/>
      <point x="322" y="609"/>
      <point x="363" y="574"/>
      <point x="363" y="526" type="curve" smooth="yes"/>
      <point x="363" y="411"/>
      <point x="134" y="375"/>
      <point x="134" y="251" type="curve" smooth="yes"/>
      <point x="134" y="211"/>
      <point x="158" y="172"/>
      <point x="238" y="175" type="curve"/>
      <point x="242" y="217" type="line"/>
      <point x="207" y="217"/>
      <point x="191" y="231"/>
      <point x="191" y="257" type="curve" smooth="yes"/>
      <point x="191" y="354"/>
      <point x="423" y="397"/>
      <point x="423" y="535" type="curve" smooth="yes"/>
      <point x="423" y="616"/>
      <point x="343" y="660"/>
      <point x="260" y="660" type="curve" smooth="yes"/>
      <point x="179" y="660"/>
      <point x="114" y="618"/>
      <point x="81" y="576" type="curve"/>
      <point x="64" y="464" type="line"/>
    </contour>
    <contour>
      <point x="137" y="0" type="line"/>
      <point x="208" y="0" type="line"/>
      <point x="217" y="84" type="line"/>
      <point x="146" y="84" type="line"/>
    </contour>
  </outline>
</glyph>
<glyph name="C" format="1">
  <advance width="633"/>
  <unicode hex="0043"/>
  <outline>
    <contour>
      <point x="535" y="45" type="line"/>
      <point x="480" y="6"/>
      <point x="403" y="-10"/>
      <point x="335" y="-10" type="curve" smooth="yes"/>
      <point x="149" y="-10"/>
      <point x="48" y="111"/>
      <point x="48" y="290" type="curve" smooth="yes"/>
      <point x="48" y="502"/>
      <point x="189" y="660"/>
      <point x="391" y="660" type="curve" smooth="yes"/>
      <point x="481" y="660"/>
      <point x="552" y="629"/>
      <point x="597" y="584" type="curve"/>
      <point x="602" y="467" type="line"/>
      <point x="553" y="461" type="line"/>
      <point x="544" y="559" type="line"/>
      <point x="504" y="588"/>
      <point x="458" y="608"/>
      <point x="391" y="608" type="curve" smooth="yes"/>
      <point x="223" y="608"/>
      <point x="105" y="484"/>
      <point x="105" y="293" type="curve" smooth="yes"/>
      <point x="105" y="132"/>
      <point x="189" y="42"/>
      <point x="347" y="42" type="curve" smooth="yes"/>
      <point x="400" y="42"/>
      <point x="447" y="52"/>
      <point x="487" y="72" type="curve"/>
      <point x="516" y="168" type="line"/>
      <point x="564" y="162" type="line"/>
    </contour>
  </outline>
</glyph>
<glyph name="H" format="1">
  <advance width="733"/>
  <unicode hex="0048"/>
  <outline>
    <contour>
      <point x="19" y="51" type="line"/>
      <point x="101" y="51" type="line"/>
      <point x="158" y="599" type="line"/>
      <point x="76" y="599" type="line"/>
      <point x="82" y="650" type="line"/>
      <point x="302" y="650" type="line"/>
      <point x="296" y="599" type="line"/>
      <point x="213" y="599" type="line"/>
      <point x="188" y="356" type="line"/>
      <point x="562" y="356" type="line"/>
      <point x="587" y="599" type="line"/>
      <point x="505" y="599" type="line"/>
      <point x="511" y="650" type="line"/>
      <point x="731" y="650" type="line"/>
      <point x="725" y="599" type="line"/>
      <point x="642" y="599" type="line"/>
      <point x="585" y="51" type="line"/>
      <point x="668" y="51" type="line"/>
      <point x="663" y="0" type="line"/>
      <point x="443" y="0" type="line"/>
      <point x="448" y="51" type="line"/>
      <point x="530" y="51" type="line"/>
      <point x="557" y="307" type="line"/>
      <point x="183" y="307" type="line"/>
      <point x="156" y="51" type="line"/>
      <point x="239" y="51" type="line"/>
      <point x="234" y="0" type="line"/>
      <point x="14" y="0" type="line"/>
    </contour>
  </outline>
</glyph>
<glyph name="I" format="1">
  <advance width="303"/>
  <unicode hex="0049"/>
  <outline>
    <contour>
      <point x="18" y="51" type="line"/>
      <point x="101" y="51" type="line"/>
      <point x="158" y="599" type="line"/>
      <point x="75" y="599" type="line"/>
      <point x="81" y="650" type="line"/>
      <point x="301" y="650" type="line"/>
      <point x="296" y="599" type="line"/>
      <point x="212" y="599" type="line"/>
      <point x="155" y="51" type="line"/>
      <point x="239" y="51" type="line"/>
      <point x="233" y="0" type="line"/>
      <point x="13" y="0" type="line"/>
    </contour>
  </outline>
</glyph>
<glyph name="J" format="1">
  <advance width="436"/>
  <unicode hex="004A"/>
  <outline>
    <contour>
      <point x="179" y="650" type="line"/>
      <point x="437" y="650" type="line"/>
      <point x="432" y="599" type="line"/>
      <point x="359" y="599" type="line"/>
      <point x="313" y="161" type="line"/>
      <point x="302" y="47"/>
      <point x="238" y="-10"/>
      <point x="140" y="-10" type="curve" smooth="yes"/>
      <point x="62" y="-10"/>
      <point x="21" y="26"/>
      <point x="0" y="82" type="curve"/>
      <point x="44" y="114" type="line"/>
      <point x="68" y="62"/>
      <point x="95" y="44"/>
      <point x="141" y="44" type="curve" smooth="yes"/>
      <point x="214" y="44"/>
      <point x="250" y="90"/>
      <point x="258" y="161" type="curve" smooth="yes"/>
      <point x="304" y="599" type="line"/>
      <point x="174" y="599" type="line"/>
    </contour>
  </outline>
</glyph>
<glyph name="L" format="1">
  <advance width="526"/>
  <unicode hex="004C"/>
  <outline>
    <contour>
      <point x="464" y="0" type="line"/>
      <point x="504" y="202" type="line"/>
      <point x="454" y="206" type="line"/>
      <point x="418" y="51" type="line"/>
      <point x="156" y="51" type="line"/>
      <point x="214" y="599" type="line"/>
      <point x="325" y="599" type="line"/>
      <point x="330" y="650" type="line"/>
      <point x="81" y="650" type="line"/>
      <point x="76" y="599" type="line"/>
      <point x="159" y="599" type="line"/>
      <point x="101" y="51" type="line"/>
      <point x="18" y="51" type="line"/>
      <point x="13" y="0" type="line"/>
    </contour>
  </outline>
</glyph>
<glyph name="N" format="1">
  <advance width="710"/>
  <unicode hex="004E"/>
  <outline>
    <contour>
      <point x="25" y="51" type="line"/>
      <point x="101" y="51" type="line"/>
      <point x="158" y="599" type="line"/>
      <point x="74" y="599" type="line"/>
      <point x="79" y="650" type="line"/>
      <point x="204" y="650" type="line"/>
      <point x="521" y="117" type="line"/>
      <point x="524" y="117" type="line"/>
      <point x="574" y="599" type="line"/>
      <point x="479" y="599" type="line"/>
      <point x="484" y="650" type="line"/>
      <point x="716" y="650" type="line"/>
      <point x="711" y="599" type="line"/>
      <point x="628" y="599" type="line"/>
      <point x="566" y="0" type="line"/>
      <point x="528" y="0" type="line"/>
      <point x="208" y="539" type="line"/>
      <point x="205" y="539" type="line"/>
      <point x="153" y="51" type="line"/>
      <point x="259" y="51" type="line"/>
      <point x="254" y="0" type="line"/>
      <point x="20" y="0" type="line"/>
    </contour>
    <contour>
      <point x="305" y="727" type="move" name="top"/>
    </contour>
  </outline>
</glyph>
<glyph name="P" format="1">
  <advance width="556"/>
  <unicode hex="0050"/>
  <outline>
    <contour>
      <point x="19" y="51" type="line"/>
      <point x="101" y="51" type="line"/>
      <point x="158" y="599" type="line"/>
      <point x="76" y="599" type="line"/>
      <point x="82" y="650" type="line"/>
      <point x="337" y="650" type="line" smooth="yes"/>
      <point x="480" y="650"/>
      <point x="540" y="567"/>
      <point x="540" y="474" type="curve" smooth="yes"/>
      <point x="540" y="332"/>
      <point x="448" y="249"/>
      <point x="308" y="249" type="curve" smooth="yes"/>
      <point x="177" y="249" type="line"/>
      <point x="156" y="51" type="line"/>
      <point x="269" y="51" type="line"/>
      <point x="263" y="0" type="line"/>
      <point x="14" y="0" type="line"/>
    </contour>
    <contour>
      <point x="307" y="299" type="line" smooth="yes"/>
      <point x="415" y="299"/>
      <point x="482" y="362"/>
      <point x="482" y="471" type="curve" smooth="yes"/>
      <point x="482" y="549"/>
      <point x="429" y="599"/>
      <point x="329" y="599" type="curve" smooth="yes"/>
      <point x="213" y="599" type="line"/>
      <point x="182" y="299" type="line"/>
    </contour>
  </outline>
</glyph>
<glyph name="X" format="1">
  <advance width="609"/>
  <unicode hex="0058"/>
  <outline>
    <contour>
      <point x="573" y="0" type="line"/>
      <point x="362" y="0" type="line"/>
      <point x="367" y="51" type="line"/>
      <point x="455" y="51" type="line"/>
      <point x="304" y="296" type="line"/>
      <point x="110" y="51" type="line"/>
      <point x="189" y="51" type="line"/>
      <point x="184" y="0" type="line"/>
      <point x="-22" y="0" type="line"/>
      <point x="-16" y="51" type="line"/>
      <point x="47" y="51" type="line"/>
      <point x="279" y="338" type="line"/>
      <point x="116" y="599" type="line"/>
      <point x="51" y="599" type="line"/>
      <point x="56" y="650" type="line"/>
      <point x="262" y="650" type="line"/>
      <point x="257" y="599" type="line"/>
      <point x="179" y="599" type="line"/>
      <point x="315" y="378" type="line"/>
      <point x="491" y="599" type="line"/>
      <point x="422" y="599" type="line"/>
      <point x="428" y="650" type="line"/>
      <point x="633" y="650" type="line"/>
      <point x="628" y="599" type="line"/>
      <point x="554" y="599" type="line"/>
      <point x="340" y="338" type="line"/>
      <point x="518" y="51" type="line"/>
      <point x="579" y="51" type="line"/>
    </contour>
  </outline>
</glyph>
<glyph name="Y" format="1">
  <advance width="591"/>
  <unicode hex="0059"/>
  <outline>
    <contour>
      <point x="624" y="599" type="line"/>
      <point x="559" y="599" type="line"/>
      <point x="321" y="248" type="line"/>
      <point x="301" y="51" type="line"/>
      <point x="415" y="51" type="line"/>
      <point x="409" y="0" type="line"/>
      <point x="129" y="0" type="line"/>
      <point x="134" y="51" type="line"/>
      <point x="246" y="51" type="line"/>
      <point x="266" y="248" type="line"/>
      <point x="95" y="599" type="line"/>
      <point x="30" y="599" type="line"/>
      <point x="35" y="650" type="line"/>
      <point x="257" y="650" type="line"/>
      <point x="251" y="599" type="line"/>
      <point x="156" y="599" type="line"/>
      <point x="300" y="301" type="line"/>
      <point x="304" y="301" type="line"/>
      <point x="502" y="599" type="line"/>
      <point x="409" y="599" type="line"/>
      <point x="414" y="650" type="line"/>
      <point x="628" y="650" type="line"/>
    </contour>
  </outline>
</glyph>
<glyph name="Z" format="1">
  <advance width="562"/>
  <unicode hex="005A"/>
  <outline>
    <contour>
      <point x="473" y="0" type="line"/>
      <point x="519" y="185" type="line"/>
      <point x="471" y="194" type="line"/>
      <point x="427" y="51" type="line"/>
      <point x="87" y="51" type="line"/>
      <point x="88" y="54" type="line"/>
      <point x="538" y="615" type="line"/>
      <point x="533" y="650" type="line"/>
      <point x="107" y="650" type="line"/>
      <point x="61" y="466" type="line"/>
      <point x="107" y="458" type="line"/>
      <point x="151" y="599" type="line"/>
      <point x="457" y="599" type="line"/>
      <point x="457" y="596" type="line"/>
      <point x="8" y="37" type="line"/>
      <point x="6" y="0" type="line"/>
    </contour>
  </outline>
</glyph>
<glyph name="bracketleft" format="1">
  <advance width="275"/>
  <unicode hex="005B"/>
  <outline>
    <contour>
      <point x="39" y="-204" type="line"/>
      <point x="199" y="-204" type="line"/>
      <point x="204" y="-161" type="line"/>
      <point x="92" y="-161" type="line"/>
      <point x="182" y="698" type="line"/>
      <point x="294" y="698" type="line"/>
      <point x="299" y="741" type="line"/>
      <point x="139" y="741" type="line"/>
    </contour>
  </outline>
</glyph>
<glyph name="backslash" format="1">
  <advance width="521"/>
  <unicode hex="005C"/>
  <outline>
    <contour>
      <point x="86" y="688" type="line"/>
      <point x="376" y="0" type="line"/>
      <point x="428" y="0" type="line"/>
      <point x="139" y="688" type="line"/>
    </contour>
  </outline>
</glyph>
<glyph name="bracketright" format="1">
  <advance width="275"/>
  <unicode hex="005D"/>
  <outline>
    <contour>
      <point x="234" y="741" type="line"/>
      <point x="74" y="741" type="line"/>
      <point x="69" y="698" type="line"/>
      <point x="181" y="698" type="line"/>
      <point x="91" y="-161" type="line"/>
      <point x="-21" y="-161" type="line"/>
      <point x="-26" y="-204" type="line"/>
      <point x="134" y="-204" type="line"/>
    </contour>
  </outline>
</glyph>
<glyph name="underscore" format="1">
  <advance width="536"/>
  <unicode hex="005F"/>
  <outline>
    <contour>
      <point x="20" y="-75" type="line"/>
      <point x="444" y="-75" type="line"/>
      <point x="440" y="-118" type="line"/>
      <point x="16" y="-118" type="line"/>
    </contour>
  </outline>
</glyph>
<glyph name="grave" format="1">
  <advance width="431"/>
  <unicode hex="0060"/>
  <outline>
    <contour>
      <point x="390" y="523" type="line"/>
      <point x="406" y="549" type="line"/>
      <point x="243" y="678" type="line"/>
      <point x="214" y="631" type="line"/>
    </contour>
  </outline>
</glyph>
<glyph name="b" format="1">
  <advance width="501"/>
  <unicode hex="0062"/>
  <outline>
    <contour>
      <point x="50" y="672" type="line"/>
      <point x="68" y="688" type="line"/>
      <point x="184" y="688" type="line"/>
      <point x="143" y="356" type="line"/>
      <point x="173" y="408"/>
      <point x="219" y="453"/>
      <point x="296" y="453" type="curve" smooth="yes"/>
      <point x="396" y="453"/>
      <point x="454" y="382"/>
      <point x="454" y="264" type="curve" smooth="yes"/>
      <point x="454" y="153"/>
      <point x="404" y="-10"/>
      <point x="247" y="-10" type="curve" smooth="yes"/>
      <point x="180" y="-10"/>
      <point x="126" y="20"/>
      <point x="105" y="75" type="curve"/>
      <point x="100" y="50"/>
      <point x="93" y="25"/>
      <point x="86" y="0" type="curve"/>
      <point x="34" y="0" type="line"/>
      <point x="44" y="37"/>
      <point x="57" y="84"/>
      <point x="62" y="127" type="curve" smooth="yes"/>
      <point x="124" y="642" type="line"/>
      <point x="46" y="642" type="line"/>
    </contour>
    <contour>
      <point x="244" y="36" type="curve" smooth="yes"/>
      <point x="363" y="36"/>
      <point x="397" y="171"/>
      <point x="397" y="255" type="curve" smooth="yes"/>
      <point x="397" y="354"/>
      <point x="358" y="406"/>
      <point x="285" y="406" type="curve" smooth="yes"/>
      <point x="203" y="406"/>
      <point x="148" y="329"/>
      <point x="132" y="264" type="curve"/>
      <point x="119" y="155" type="line"/>
      <point x="121" y="89"/>
      <point x="173" y="36"/>
    </contour>
    <contour>
      <point x="222" y="566" type="move" name="top"/>
    </contour>
  </outline>
</glyph>
<glyph name="f" format="1">
  <advance width="303"/>
  <unicode hex="0066"/>
  <outline>
    <contour>
      <point x="287" y="698" type="curve" smooth="yes"/>
      <point x="193" y="698"/>
      <point x="143" y="637"/>
      <point x="130" y="530" type="curve" smooth="yes"/>
      <point x="119" y="444" type="line"/>
      <point x="50" y="444" type="line"/>
      <point x="30" y="426" type="line"/>
      <point x="27" y="397" type="line"/>
      <point x="113" y="397" type="line"/>
      <point x="56" y="-66" type="line" smooth="yes"/>
      <point x="46" y="-143"/>
      <point x="23" y="-177"/>
      <point x="-30" y="-177" type="curve" smooth="yes"/>
      <point x="-56" y="-177"/>
      <point x="-96" y="-167"/>
      <point x="-92" y="-92" type="curve"/>
      <point x="-136" y="-105" type="line"/>
      <point x="-138" y="-192"/>
      <point x="-87" y="-223"/>
      <point x="-27" y="-223" type="curve" smooth="yes"/>
      <point x="56" y="-223"/>
      <point x="96" y="-170"/>
      <point x="109" y="-67" type="curve" smooth="yes"/>
      <point x="166" y="397" type="line"/>
      <point x="285" y="397" type="line"/>
      <point x="305" y="415" type="line"/>
      <point x="309" y="444" type="line"/>
      <point x="172" y="444" type="line"/>
      <point x="183" y="532" type="line" smooth="yes"/>
      <point x="193" y="617"/>
      <point x="225" y="653"/>
      <point x="279" y="653" type="curve" smooth="yes"/>
      <point x="296" y="653"/>
      <point x="319" y="651"/>
      <point x="338" y="642" type="curve"/>
      <point x="348" y="564" type="line"/>
      <point x="395" y="570" type="line"/>
      <point x="389" y="669" type="line"/>
      <point x="357" y="692"/>
      <point x="328" y="698"/>
    </contour>
  </outline>
</glyph>
<glyph name="q" format="1">
  <advance width="500"/>
  <unicode hex="0071"/>
  <outline>
    <contour>
      <point x="425" y="-197" type="line"/>
      <point x="406" y="-213" type="line"/>
      <point x="210" y="-213" type="line"/>
      <point x="214" y="-184" type="line"/>
      <point x="233" y="-167" type="line"/>
      <point x="312" y="-167" type="line"/>
      <point x="344" y="87" type="line"/>
      <point x="312" y="34"/>
      <point x="263" y="-10"/>
      <point x="186" y="-10" type="curve" smooth="yes"/>
      <point x="89" y="-10"/>
      <point x="35" y="61"/>
      <point x="35" y="175" type="curve" smooth="yes"/>
      <point x="35" y="290"/>
      <point x="91" y="453"/>
      <point x="247" y="453" type="curve" smooth="yes"/>
      <point x="313" y="453"/>
      <point x="363" y="423"/>
      <point x="383" y="368" type="curve"/>
      <point x="388" y="393"/>
      <point x="394" y="418"/>
      <point x="402" y="444" type="curve"/>
      <point x="455" y="444" type="line"/>
      <point x="442" y="399"/>
      <point x="431" y="355"/>
      <point x="425" y="311" type="curve" smooth="yes"/>
      <point x="366" y="-167" type="line"/>
      <point x="429" y="-167" type="line"/>
    </contour>
    <contour>
      <point x="251" y="406" type="curve" smooth="yes"/>
      <point x="129" y="406"/>
      <point x="92" y="276"/>
      <point x="92" y="183" type="curve" smooth="yes"/>
      <point x="92" y="88"/>
      <point x="128" y="36"/>
      <point x="200" y="36" type="curve" smooth="yes"/>
      <point x="278" y="36"/>
      <point x="338" y="114"/>
      <point x="355" y="175" type="curve"/>
      <point x="368" y="283" type="line"/>
      <point x="369" y="351"/>
      <point x="320" y="406"/>
    </contour>
  </outline>
</glyph>
<glyph name="bar" format="1">
  <advance width="228"/>
  <unicode hex="007C"/>
  <outline>
    <contour>
      <point x="186" y="730" type="line"/>
      <point x="101" y="-80" type="line"/>
      <point x="52" y="-80" type="line"/>
      <point x="137" y="730" type="line"/>
    </contour>
  </outline>
</glyph>
<glyph name="asciitilde" format="1">
  <advance width="614"/>
  <unicode hex="007E"/>
  <outline>
    <contour>
      <point x="412" y="206" type="curve" smooth="yes"/>
      <point x="468" y="206"/>
      <point x="514" y="235"/>
      <point x="567" y="312" type="curve"/>
      <point x="532" y="336" type="line"/>
      <point x="490" y="275"/>
      <point x="460" y="257"/>
      <point x="419" y="257" type="curve" smooth="yes"/>
      <point x="334" y="257"/>
      <point x="287" y="330"/>
      <point x="199" y="330" type="curve" smooth="yes"/>
      <point x="149" y="330"/>
      <point x="95" y="304"/>
      <point x="51" y="236" type="curve"/>
      <point x="83" y="214" type="line"/>
      <point x="122" y="268"/>
      <point x="157" y="279"/>
      <point x="190" y="279" type="curve" smooth="yes"/>
      <point x="277" y="279"/>
      <point x="319" y="206"/>
    </contour>
  </outline>
</glyph>
<glyph name="exclamdown" format="1">
  <advance width="213"/>
  <unicode hex="00A1"/>
  <outline>
    <contour>
      <point x="24" y="-204" type="line"/>
      <point x="84" y="265" type="line"/>
      <point x="126" y="265" type="line"/>
      <point x="87" y="-204" type="line"/>
    </contour>
    <contour>
      <point x="158" y="446" type="line"/>
      <point x="87" y="446" type="line"/>
      <point x="78" y="362" type="line"/>
      <point x="149" y="362" type="line"/>
    </contour>
  </outline>
</glyph>
<glyph name="cent" format="1">
  <advance width="448"/>
  <unicode hex="00A2"/>
  <outline>
    <contour>
      <point x="170" y="-84" type="line"/>
      <point x="178" y="-8" type="line"/>
      <point x="89" y="3"/>
      <point x="38" y="73"/>
      <point x="38" y="183" type="curve" smooth="yes"/>
      <point x="38" y="292"/>
      <point x="88" y="435"/>
      <point x="226" y="451" type="curve"/>
      <point x="234" y="529" type="line"/>
      <point x="274" y="529" type="line"/>
      <point x="266" y="453" type="line"/>
      <point x="319" y="450"/>
      <point x="355" y="435"/>
      <point x="391" y="405" type="curve"/>
      <point x="397" y="306" type="line"/>
      <point x="350" y="300" type="line"/>
      <point x="341" y="375" type="line"/>
      <point x="317" y="396"/>
      <point x="290" y="405"/>
      <point x="261" y="406" type="curve"/>
      <point x="223" y="36" type="line"/>
      <point x="281" y="42"/>
      <point x="322" y="82"/>
      <point x="345" y="156" type="curve"/>
      <point x="388" y="145" type="line"/>
      <point x="369" y="71"/>
      <point x="317" y="-3"/>
      <point x="218" y="-9" type="curve"/>
      <point x="210" y="-84" type="line"/>
    </contour>
    <contour>
      <point x="95" y="187" type="curve" smooth="yes"/>
      <point x="95" y="104"/>
      <point x="121" y="49"/>
      <point x="183" y="38" type="curve"/>
      <point x="221" y="402" type="line"/>
      <point x="126" y="382"/>
      <point x="95" y="278"/>
    </contour>
  </outline>
</glyph>
<glyph name="sterling" format="1">
  <advance width="503"/>
  <unicode hex="00A3"/>
  <outline>
    <contour>
      <point x="52" y="279" type="line"/>
      <point x="120" y="279" type="line"/>
      <point x="126" y="334" type="line" smooth="yes"/>
      <point x="141" y="480"/>
      <point x="227" y="529"/>
      <point x="301" y="529" type="curve" smooth="yes"/>
      <point x="364" y="529"/>
      <point x="402" y="514"/>
      <point x="435" y="493" type="curve"/>
      <point x="440" y="376" type="line"/>
      <point x="392" y="370" type="line"/>
      <point x="384" y="465" type="line"/>
      <point x="361" y="479"/>
      <point x="337" y="484"/>
      <point x="311" y="484" type="curve" smooth="yes"/>
      <point x="237" y="484"/>
      <point x="190" y="445"/>
      <point x="179" y="335" type="curve" smooth="yes"/>
      <point x="173" y="279" type="line"/>
      <point x="359" y="279" type="line"/>
      <point x="355" y="241" type="line"/>
      <point x="170" y="241" type="line"/>
      <point x="165" y="190" type="line" smooth="yes"/>
      <point x="160" y="144"/>
      <point x="141" y="79"/>
      <point x="83" y="45" type="curve"/>
      <point x="288" y="45" type="line" smooth="yes"/>
      <point x="347" y="45"/>
      <point x="379" y="77"/>
      <point x="402" y="109" type="curve"/>
      <point x="430" y="83" type="line"/>
      <point x="414" y="57"/>
      <point x="366" y="0"/>
      <point x="294" y="0" type="curve" smooth="yes"/>
      <point x="14" y="0" type="line"/>
      <point x="19" y="43" type="line"/>
      <point x="85" y="72"/>
      <point x="105" y="131"/>
      <point x="111" y="190" type="curve" smooth="yes"/>
      <point x="116" y="241" type="line"/>
      <point x="48" y="241" type="line"/>
    </contour>
  </outline>
</glyph>
<glyph name="brokenbar" format="1">
  <advance width="205"/>
  <unicode hex="00A6"/>
  <outline>
    <contour>
      <point x="175" y="730" type="line"/>
      <point x="143" y="426" type="line"/>
      <point x="94" y="426" type="line"/>
      <point x="126" y="730" type="line"/>
    </contour>
    <contour>
      <point x="122" y="224" type="line"/>
      <point x="90" y="-80" type="line"/>
      <point x="41" y="-80" type="line"/>
      <point x="73" y="224" type="line"/>
    </contour>
  </outline>
</glyph>
<glyph name="section" format="1">
  <advance width="567"/>
  <unicode hex="00A7"/>
  <outline>
    <contour>
      <point x="469" y="144" type="curve" smooth="yes"/>
      <point x="469" y="172"/>
      <point x="462" y="192"/>
      <point x="449" y="207" type="curve"/>
      <point x="501" y="231"/>
      <point x="531" y="267"/>
      <point x="531" y="310" type="curve" smooth="yes"/>
      <point x="531" y="400"/>
      <point x="404" y="415"/>
      <point x="296" y="435" type="curve" smooth="yes"/>
      <point x="219" y="449"/>
      <point x="161" y="464"/>
      <point x="161" y="524" type="curve" smooth="yes"/>
      <point x="161" y="586"/>
      <point x="224" y="616"/>
      <point x="307" y="616" type="curve" smooth="yes"/>
      <point x="347" y="616"/>
      <point x="395" y="609"/>
      <point x="439" y="588" type="curve"/>
      <point x="438" y="489" type="line"/>
      <point x="486" y="494" type="line"/>
      <point x="493" y="620" type="line"/>
      <point x="440" y="649"/>
      <point x="371" y="660"/>
      <point x="315" y="660" type="curve" smooth="yes"/>
      <point x="192" y="660"/>
      <point x="105" y="608"/>
      <point x="105" y="517" type="curve" smooth="yes"/>
      <point x="105" y="483"/>
      <point x="117" y="461"/>
      <point x="135" y="444" type="curve"/>
      <point x="79" y="423"/>
      <point x="46" y="387"/>
      <point x="46" y="343" type="curve" smooth="yes"/>
      <point x="46" y="261"/>
      <point x="159" y="241"/>
      <point x="255" y="227" type="curve"/>
      <point x="357" y="210"/>
      <point x="414" y="200"/>
      <point x="414" y="135" type="curve" smooth="yes"/>
      <point x="414" y="60"/>
      <point x="339" y="34"/>
      <point x="261" y="34" type="curve" smooth="yes"/>
      <point x="212" y="34"/>
      <point x="153" y="44"/>
      <point x="107" y="70" type="curve"/>
      <point x="119" y="149" type="line"/>
      <point x="74" y="154" type="line"/>
      <point x="52" y="51" type="line"/>
      <point x="100" y="13"/>
      <point x="181" y="-10"/>
      <point x="261" y="-10" type="curve" smooth="yes"/>
      <point x="386" y="-10"/>
      <point x="469" y="47"/>
    </contour>
    <contour>
      <point x="477" y="299" type="curve" smooth="yes"/>
      <point x="477" y="272"/>
      <point x="457" y="252"/>
      <point x="413" y="235" type="curve"/>
      <point x="378" y="252"/>
      <point x="336" y="260"/>
      <point x="279" y="270" type="curve" smooth="yes"/>
      <point x="160" y="291"/>
      <point x="100" y="304"/>
      <point x="100" y="351" type="curve" smooth="yes"/>
      <point x="100" y="383"/>
      <point x="127" y="407"/>
      <point x="168" y="421" type="curve"/>
      <point x="196" y="408"/>
      <point x="234" y="400"/>
      <point x="272" y="393" type="curve" smooth="yes"/>
      <point x="363" y="376"/>
      <point x="477" y="363"/>
    </contour>
  </outline>
</glyph>
<glyph name="dieresis" format="1">
  <advance width="383"/>
  <unicode hex="00A8"/>
  <outline>
    <contour>
      <point x="121" y="562" type="line"/>
      <point x="187" y="562" type="line"/>
      <point x="194" y="633" type="line"/>
      <point x="128" y="633" type="line"/>
    </contour>
    <contour>
      <point x="285" y="562" type="line"/>
      <point x="352" y="562" type="line"/>
      <point x="359" y="633" type="line"/>
      <point x="292" y="633" type="line"/>
    </contour>
  </outline>
</glyph>
<glyph name="copyright" format="1">
  <advance width="619"/>
  <unicode hex="00A9"/>
  <outline>
    <contour>
      <point x="601" y="285" type="curve" smooth="yes"/>
      <point x="601" y="421"/>
      <point x="505" y="529"/>
      <point x="365" y="529" type="curve" smooth="yes"/>
      <point x="210" y="529"/>
      <point x="73" y="396"/>
      <point x="73" y="236" type="curve" smooth="yes"/>
      <point x="73" y="99"/>
      <point x="173" y="-7"/>
      <point x="311" y="-7" type="curve" smooth="yes"/>
      <point x="463" y="-7"/>
      <point x="601" y="123"/>
    </contour>
    <contour>
      <point x="566" y="283" type="curve" smooth="yes"/>
      <point x="566" y="142"/>
      <point x="449" y="27"/>
      <point x="313" y="27" type="curve" smooth="yes"/>
      <point x="192" y="27"/>
      <point x="108" y="119"/>
      <point x="108" y="239" type="curve" smooth="yes"/>
      <point x="108" y="378"/>
      <point x="222" y="494"/>
      <point x="361" y="494" type="curve" smooth="yes"/>
      <point x="485" y="494"/>
      <point x="566" y="401"/>
    </contour>
    <contour>
      <point x="437" y="113" type="curve"/>
      <point x="454" y="176" type="line"/>
      <point x="423" y="179" type="line"/>
      <point x="408" y="127" type="line"/>
      <point x="384" y="116"/>
      <point x="363" y="114"/>
      <point x="344" y="114" type="curve" smooth="yes"/>
      <point x="248" y="114"/>
      <point x="213" y="166"/>
      <point x="213" y="243" type="curve" smooth="yes"/>
      <point x="213" y="339"/>
      <point x="268" y="411"/>
      <point x="362" y="411" type="curve" smooth="yes"/>
      <point x="401" y="411"/>
      <point x="422" y="399"/>
      <point x="438" y="387" type="curve"/>
      <point x="442" y="335" type="line"/>
      <point x="474" y="338" type="line"/>
      <point x="471" y="401" type="line"/>
      <point x="443" y="429"/>
      <point x="402" y="441"/>
      <point x="363" y="441" type="curve" smooth="yes"/>
      <point x="255" y="441"/>
      <point x="176" y="352"/>
      <point x="176" y="242" type="curve" smooth="yes"/>
      <point x="176" y="152"/>
      <point x="230" y="84"/>
      <point x="333" y="84" type="curve" smooth="yes"/>
      <point x="368" y="84"/>
      <point x="409" y="92"/>
    </contour>
  </outline>
</glyph>
<glyph name="ordfeminine" format="1">
  <advance width="387"/>
  <unicode hex="00AA"/>
  <outline>
    <contour>
      <point x="355" y="694" type="line"/>
      <point x="346" y="664"/>
      <point x="337" y="634"/>
      <point x="334" y="604" type="curve"/>
      <point x="313" y="442" type="line"/>
      <point x="358" y="442" type="line"/>
      <point x="356" y="417" type="line"/>
      <point x="342" y="405" type="line"/>
      <point x="272" y="405" type="line"/>
      <point x="274" y="464" type="line"/>
      <point x="255" y="428"/>
      <point x="224" y="398"/>
      <point x="172" y="398" type="curve" smooth="yes"/>
      <point x="107" y="398"/>
      <point x="72" y="446"/>
      <point x="72" y="520" type="curve" smooth="yes"/>
      <point x="72" y="595"/>
      <point x="106" y="700"/>
      <point x="210" y="700" type="curve" smooth="yes"/>
      <point x="254" y="700"/>
      <point x="287" y="680"/>
      <point x="299" y="645" type="curve"/>
      <point x="303" y="661"/>
      <point x="307" y="678"/>
      <point x="312" y="694" type="curve"/>
    </contour>
    <contour>
      <point x="215" y="664" type="curve" smooth="yes"/>
      <point x="139" y="664"/>
      <point x="118" y="585"/>
      <point x="118" y="527" type="curve" smooth="yes"/>
      <point x="118" y="467"/>
      <point x="142" y="435"/>
      <point x="185" y="435" type="curve" smooth="yes"/>
      <point x="234" y="435"/>
      <point x="268" y="479"/>
      <point x="278" y="517" type="curve"/>
      <point x="288" y="597" type="line"/>
      <point x="286" y="637"/>
      <point x="256" y="664"/>
    </contour>
  </outline>
</glyph>
<glyph name="logicalnot" format="1">
  <advance width="600"/>
  <unicode hex="00AC"/>
  <outline>
    <contour>
      <point x="476" y="105" type="line"/>
      <point x="518" y="105" type="line"/>
      <point x="539" y="304" type="line"/>
      <point x="68" y="304" type="line"/>
      <point x="64" y="261" type="line"/>
      <point x="492" y="261" type="line"/>
    </contour>
  </outline>
</glyph>
<glyph name="macron" format="1">
  <advance width="328"/>
  <unicode hex="00AF"/>
  <outline>
    <contour>
      <point x="106" y="618" type="line"/>
      <point x="339" y="618" type="line"/>
      <point x="335" y="572" type="line"/>
      <point x="101" y="572" type="line"/>
    </contour>
  </outline>
</glyph>
<glyph name="degree" format="1">
  <advance width="399"/>
  <unicode hex="00B0"/>
  <outline>
    <contour>
      <point x="206" y="342" type="curve" smooth="yes"/>
      <point x="307" y="342"/>
      <point x="380" y="420"/>
      <point x="380" y="517" type="curve" smooth="yes"/>
      <point x="380" y="597"/>
      <point x="329" y="660"/>
      <point x="240" y="660" type="curve" smooth="yes"/>
      <point x="141" y="660"/>
      <point x="65" y="582"/>
      <point x="65" y="484" type="curve" smooth="yes"/>
      <point x="65" y="403"/>
      <point x="118" y="342"/>
    </contour>
    <contour>
      <point x="212" y="385" type="curve"/>
      <point x="151" y="385"/>
      <point x="111" y="424"/>
      <point x="111" y="488" type="curve" smooth="yes"/>
      <point x="111" y="566"/>
      <point x="166" y="617"/>
      <point x="234" y="617" type="curve" smooth="yes"/>
      <point x="294" y="617"/>
      <point x="333" y="577"/>
      <point x="333" y="513" type="curve" smooth="yes"/>
      <point x="333" y="436"/>
      <point x="280" y="385"/>
    </contour>
  </outline>
</glyph>
<glyph name="twosuperior" format="1">
  <advance width="335"/>
  <unicode hex="00B2"/>
  <outline>
    <contour>
      <point x="121" y="670" type="line"/>
      <point x="142" y="730" type="line"/>
      <point x="161" y="743"/>
      <point x="178" y="748"/>
      <point x="202" y="748" type="curve" smooth="yes"/>
      <point x="254" y="748"/>
      <point x="270" y="724"/>
      <point x="270" y="693" type="curve" smooth="yes"/>
      <point x="270" y="608"/>
      <point x="148" y="523"/>
      <point x="54" y="448" type="curve"/>
      <point x="55" y="415" type="line"/>
      <point x="314" y="415" type="line"/>
      <point x="333" y="502" type="line"/>
      <point x="295" y="506" type="line"/>
      <point x="281" y="452" type="line"/>
      <point x="114" y="452" type="line"/>
      <point x="168" y="495"/>
      <point x="322" y="595"/>
      <point x="322" y="695" type="curve" smooth="yes"/>
      <point x="322" y="744"/>
      <point x="285" y="785"/>
      <point x="212" y="785" type="curve" smooth="yes"/>
      <point x="172" y="785"/>
      <point x="133" y="773"/>
      <point x="103" y="745" type="curve"/>
      <point x="86" y="675" type="line"/>
    </contour>
  </outline>
</glyph>
<glyph name="threesuperior" format="1">
  <advance width="334"/>
  <unicode hex="00B3"/>
  <outline>
    <contour>
      <point x="129" y="677" type="line"/>
      <point x="147" y="729" type="line"/>
      <point x="168" y="741"/>
      <point x="187" y="747"/>
      <point x="210" y="747" type="curve" smooth="yes"/>
      <point x="251" y="747"/>
      <point x="274" y="728"/>
      <point x="274" y="695" type="curve" smooth="yes"/>
      <point x="274" y="659"/>
      <point x="247" y="624"/>
      <point x="172" y="620" type="curve"/>
      <point x="169" y="588" type="line"/>
      <point x="247" y="586"/>
      <point x="271" y="562"/>
      <point x="271" y="524" type="curve" smooth="yes"/>
      <point x="271" y="481"/>
      <point x="240" y="445"/>
      <point x="183" y="445" type="curve" smooth="yes"/>
      <point x="127" y="445"/>
      <point x="100" y="480"/>
      <point x="98" y="513" type="curve"/>
      <point x="63" y="505" type="line"/>
      <point x="65" y="444"/>
      <point x="113" y="408"/>
      <point x="182" y="408" type="curve" smooth="yes"/>
      <point x="255" y="408"/>
      <point x="321" y="449"/>
      <point x="321" y="522" type="curve" smooth="yes"/>
      <point x="321" y="563"/>
      <point x="300" y="598"/>
      <point x="238" y="607" type="curve"/>
      <point x="238" y="609" type="line"/>
      <point x="300" y="625"/>
      <point x="323" y="665"/>
      <point x="323" y="702" type="curve" smooth="yes"/>
      <point x="323" y="755"/>
      <point x="277" y="784"/>
      <point x="219" y="784" type="curve" smooth="yes"/>
      <point x="182" y="784"/>
      <point x="139" y="772"/>
      <point x="109" y="744" type="curve"/>
      <point x="94" y="682" type="line"/>
    </contour>
  </outline>
</glyph>
<glyph name="acute" format="1">
  <advance width="431"/>
  <unicode hex="00B4"/>
  <outline>
    <contour>
      <point x="414" y="631" type="line"/>
      <point x="385" y="678" type="line"/>
      <point x="222" y="549" type="line"/>
      <point x="238" y="523" type="line"/>
    </contour>
  </outline>
</glyph>
<glyph name="mu" format="1">
  <advance width="553"/>
  <unicode hex="00B5"/>
  <outline>
    <contour>
      <point x="509" y="0" type="line"/>
      <point x="373" y="0" type="line"/>
      <point x="382" y="85" type="line"/>
      <point x="348" y="28"/>
      <point x="288" y="-10"/>
      <point x="218" y="-10" type="curve" smooth="yes"/>
      <point x="180" y="-10"/>
      <point x="148" y="0"/>
      <point x="124" y="20" type="curve"/>
      <point x="100" y="-213" type="line"/>
      <point x="46" y="-213" type="line"/>
      <point x="110" y="397" type="line"/>
      <point x="30" y="397" type="line"/>
      <point x="35" y="444" type="line"/>
      <point x="170" y="444" type="line"/>
      <point x="141" y="172" type="line"/>
      <point x="132" y="74"/>
      <point x="174" y="36"/>
      <point x="238" y="36" type="curve" smooth="yes"/>
      <point x="315" y="36"/>
      <point x="377" y="103"/>
      <point x="390" y="164" type="curve"/>
      <point x="414" y="397" type="line"/>
      <point x="319" y="397" type="line"/>
      <point x="324" y="444" type="line"/>
      <point x="473" y="444" type="line"/>
      <point x="432" y="46" type="line"/>
      <point x="514" y="46" type="line"/>
    </contour>
  </outline>
</glyph>
<glyph name="paragraph" format="1">
  <advance width="596"/>
  <unicode hex="00B6"/>
  <outline>
    <contour>
      <point x="291" y="650" type="curve"/>
      <point x="595" y="650" type="line"/>
      <point x="590" y="600" type="line"/>
      <point x="512" y="600" type="line"/>
      <point x="449" y="0" type="line"/>
      <point x="397" y="0" type="line"/>
      <point x="460" y="600" type="line"/>
      <point x="391" y="600" type="line"/>
      <point x="328" y="0" type="line"/>
      <point x="276" y="0" type="line"/>
      <point x="309" y="310" type="line"/>
      <point x="249" y="310" type="line" smooth="yes"/>
      <point x="135" y="310"/>
      <point x="51" y="352"/>
      <point x="51" y="464" type="curve" smooth="yes"/>
      <point x="51" y="566"/>
      <point x="128" y="650"/>
    </contour>
  </outline>
</glyph>
<glyph name="periodcentered" format="1">
  <advance width="213"/>
  <unicode hex="00B7"/>
  <outline>
    <contour>
      <point x="64" y="258" type="line"/>
      <point x="142" y="258" type="line"/>
      <point x="150" y="342" type="line"/>
      <point x="72" y="342" type="line"/>
    </contour>
  </outline>
</glyph>
<glyph name="cedilla" format="1">
  <advance width="251"/>
  <unicode hex="00B8"/>
  <outline>
    <contour>
      <point x="149" y="6" type="line"/>
      <point x="143" y="-48" type="line"/>
      <point x="151" y="-48" type="line" smooth="yes"/>
      <point x="205" y="-48"/>
      <point x="230" y="-76"/>
      <point x="230" y="-120" type="curve" smooth="yes"/>
      <point x="230" y="-180"/>
      <point x="179" y="-209"/>
      <point x="120" y="-209" type="curve" smooth="yes"/>
      <point x="87" y="-209"/>
      <point x="56" y="-200"/>
      <point x="35" y="-179" type="curve"/>
      <point x="54" y="-146" type="line"/>
      <point x="69" y="-159"/>
      <point x="95" y="-169"/>
      <point x="123" y="-169" type="curve" smooth="yes"/>
      <point x="156" y="-169"/>
      <point x="182" y="-155"/>
      <point x="182" y="-119" type="curve" smooth="yes"/>
      <point x="182" y="-84"/>
      <point x="157" y="-79"/>
      <point x="125" y="-79" type="curve" smooth="yes"/>
      <point x="98" y="-79" type="line"/>
      <point x="107" y="6" type="line"/>
    </contour>
  </outline>
</glyph>
<glyph name="onesuperior" format="1">
  <advance width="249"/>
  <unicode hex="00B9"/>
  <outline>
    <contour>
      <point x="55" y="452" type="line"/>
      <point x="129" y="452" type="line"/>
      <point x="159" y="742" type="line"/>
      <point x="85" y="742" type="line"/>
      <point x="88" y="779" type="line"/>
      <point x="209" y="779" type="line"/>
      <point x="175" y="452" type="line"/>
      <point x="247" y="452" type="line"/>
      <point x="243" y="415" type="line"/>
      <point x="50" y="415" type="line"/>
    </contour>
  </outline>
</glyph>
<glyph name="ordmasculine" format="1">
  <advance width="357"/>
  <unicode hex="00BA"/>
  <outline>
    <contour>
      <point x="71" y="527" type="curve" smooth="yes"/>
      <point x="71" y="619"/>
      <point x="122" y="700"/>
      <point x="222" y="700" type="curve" smooth="yes"/>
      <point x="308" y="700"/>
      <point x="341" y="641"/>
      <point x="341" y="569" type="curve" smooth="yes"/>
      <point x="341" y="473"/>
      <point x="284" y="398"/>
      <point x="188" y="398" type="curve" smooth="yes"/>
      <point x="107" y="398"/>
      <point x="71" y="451"/>
    </contour>
    <contour>
      <point x="117" y="530" type="curve" smooth="yes"/>
      <point x="117" y="474"/>
      <point x="135" y="435"/>
      <point x="192" y="435" type="curve" smooth="yes"/>
      <point x="264" y="435"/>
      <point x="294" y="496"/>
      <point x="294" y="567" type="curve" smooth="yes"/>
      <point x="294" y="624"/>
      <point x="276" y="664"/>
      <point x="218" y="664" type="curve" smooth="yes"/>
      <point x="150" y="664"/>
      <point x="117" y="607"/>
    </contour>
    <contour>
      <point x="152" y="338" type="move" name="top"/>
    </contour>
  </outline>
</glyph>
<glyph name="guillemotright" format="1">
  <advance width="437"/>
  <unicode hex="00BB"/>
  <outline>
    <contour>
      <point x="231" y="25" type="line"/>
      <point x="393" y="271" type="line"/>
      <point x="282" y="511" type="line"/>
      <point x="236" y="511" type="line"/>
      <point x="340" y="271" type="line"/>
      <point x="185" y="25" type="line"/>
    </contour>
    <contour>
      <point x="72" y="25" type="line"/>
      <point x="233" y="271" type="line"/>
      <point x="123" y="511" type="line"/>
      <point x="76" y="511" type="line"/>
      <point x="180" y="271" type="line"/>
      <point x="25" y="25" type="line"/>
    </contour>
  </outline>
</glyph>
<glyph name="threequarters" format="1">
  <advance width="707"/>
  <unicode hex="00BE"/>
  <outline>
    <contour>
      <point x="539" y="0" type="line"/>
      <point x="584" y="0" type="line"/>
      <point x="594" y="95" type="line"/>
      <point x="652" y="95" type="line"/>
      <point x="660" y="130" type="line"/>
      <point x="597" y="130" type="line"/>
      <point x="622" y="364" type="line"/>
      <point x="526" y="364" type="line"/>
      <point x="367" y="131" type="line"/>
      <point x="368" y="95" type="line"/>
      <point x="549" y="95" type="line"/>
    </contour>
    <contour>
      <point x="118" y="553" type="line"/>
      <point x="136" y="605" type="line"/>
      <point x="157" y="617"/>
      <point x="176" y="623"/>
      <point x="199" y="623" type="curve" smooth="yes"/>
      <point x="240" y="623"/>
      <point x="263" y="604"/>
      <point x="263" y="571" type="curve" smooth="yes"/>
      <point x="263" y="535"/>
      <point x="236" y="500"/>
      <point x="161" y="496" type="curve"/>
      <point x="158" y="464" type="line"/>
      <point x="236" y="462"/>
      <point x="260" y="438"/>
      <point x="260" y="400" type="curve" smooth="yes"/>
      <point x="260" y="357"/>
      <point x="229" y="321"/>
      <point x="172" y="321" type="curve" smooth="yes"/>
      <point x="116" y="321"/>
      <point x="89" y="356"/>
      <point x="87" y="389" type="curve"/>
      <point x="52" y="381" type="line"/>
      <point x="54" y="320"/>
      <point x="102" y="284"/>
      <point x="171" y="284" type="curve" smooth="yes"/>
      <point x="244" y="284"/>
      <point x="310" y="325"/>
      <point x="310" y="398" type="curve" smooth="yes"/>
      <point x="310" y="439"/>
      <point x="289" y="474"/>
      <point x="227" y="483" type="curve"/>
      <point x="227" y="485" type="line"/>
      <point x="289" y="501"/>
      <point x="312" y="541"/>
      <point x="312" y="578" type="curve" smooth="yes"/>
      <point x="312" y="631"/>
      <point x="266" y="660"/>
      <point x="208" y="660" type="curve" smooth="yes"/>
      <point x="171" y="660"/>
      <point x="128" y="648"/>
      <point x="98" y="620" type="curve"/>
      <point x="83" y="558" type="line"/>
    </contour>
    <contour>
      <point x="613" y="650" type="line"/>
      <point x="395" y="325" type="line"/>
      <point x="181" y="0" type="line"/>
      <point x="138" y="0" type="line"/>
      <point x="365" y="337" type="line"/>
      <point x="571" y="650" type="line"/>
    </contour>
    <contour>
      <point x="544" y="327" type="line"/>
      <point x="574" y="327" type="line"/>
      <point x="553" y="130" type="line"/>
      <point x="410" y="130" type="line"/>
    </contour>
  </outline>
</glyph>
<glyph name="Agrave" format="1">
  <advance width="626"/>
  <unicode hex="00C0"/>
  <outline>
    <contour>
      <point x="-21" y="51" type="line"/>
      <point x="40" y="51" type="line"/>
      <point x="312" y="599" type="line"/>
      <point x="207" y="599" type="line"/>
      <point x="212" y="650" type="line"/>
      <point x="382" y="650" type="line"/>
      <point x="548" y="51" type="line"/>
      <point x="611" y="51" type="line"/>
      <point x="606" y="0" type="line"/>
      <point x="389" y="0" type="line"/>
      <point x="394" y="51" type="line"/>
      <point x="488" y="51" type="line"/>
      <point x="451" y="192" type="line"/>
      <point x="165" y="192" type="line"/>
      <point x="97" y="51" type="line"/>
      <point x="196" y="51" type="line"/>
      <point x="191" y="0" type="line"/>
      <point x="-25" y="0" type="line"/>
    </contour>
    <contour>
      <point x="348" y="566" type="line"/>
      <point x="188" y="238" type="line"/>
      <point x="439" y="238" type="line"/>
      <point x="352" y="566" type="line"/>
    </contour>
    <contour>
      <point x="405" y="707" type="line"/>
      <point x="413" y="739" type="line"/>
      <point x="222" y="808" type="line"/>
      <point x="208" y="753" type="line"/>
    </contour>
  </outline>
</glyph>
<glyph name="Acircumflex" format="1">
  <advance width="626"/>
  <unicode hex="00C2"/>
  <outline>
    <contour>
      <point x="-21" y="51" type="line"/>
      <point x="40" y="51" type="line"/>
      <point x="312" y="599" type="line"/>
      <point x="207" y="599" type="line"/>
      <point x="212" y="650" type="line"/>
      <point x="382" y="650" type="line"/>
      <point x="548" y="51" type="line"/>
      <point x="611" y="51" type="line"/>
      <point x="606" y="0" type="line"/>
      <point x="389" y="0" type="line"/>
      <point x="394" y="51" type="line"/>
      <point x="488" y="51" type="line"/>
      <point x="451" y="192" type="line"/>
      <point x="165" y="192" type="line"/>
      <point x="97" y="51" type="line"/>
      <point x="196" y="51" type="line"/>
      <point x="191" y="0" type="line"/>
      <point x="-25" y="0" type="line"/>
    </contour>
    <contour>
      <point x="348" y="566" type="line"/>
      <point x="188" y="238" type="line"/>
      <point x="439" y="238" type="line"/>
      <point x="352" y="566" type="line"/>
    </contour>
    <contour>
      <point x="383" y="820" type="line"/>
      <point x="368" y="820" type="line"/>
      <point x="235" y="732" type="line"/>
      <point x="251" y="705" type="line"/>
      <point x="369" y="769" type="line"/>
      <point x="476" y="706" type="line"/>
      <point x="494" y="736" type="line"/>
    </contour>
  </outline>
</glyph>
<glyph name="Adieresis" format="1">
  <advance width="626"/>
  <unicode hex="00C4"/>
  <outline>
    <contour>
      <point x="-21" y="51" type="line"/>
      <point x="40" y="51" type="line"/>
      <point x="312" y="599" type="line"/>
      <point x="207" y="599" type="line"/>
      <point x="212" y="650" type="line"/>
      <point x="382" y="650" type="line"/>
      <point x="548" y="51" type="line"/>
      <point x="611" y="51" type="line"/>
      <point x="606" y="0" type="line"/>
      <point x="389" y="0" type="line"/>
      <point x="394" y="51" type="line"/>
      <point x="488" y="51" type="line"/>
      <point x="451" y="192" type="line"/>
      <point x="165" y="192" type="line"/>
      <point x="97" y="51" type="line"/>
      <point x="196" y="51" type="line"/>
      <point x="191" y="0" type="line"/>
      <point x="-25" y="0" type="line"/>
    </contour>
    <contour>
      <point x="348" y="566" type="line"/>
      <point x="188" y="238" type="line"/>
      <point x="439" y="238" type="line"/>
      <point x="352" y="566" type="line"/>
    </contour>
    <contour>
      <point x="412" y="722" type="line"/>
      <point x="479" y="722" type="line"/>
      <point x="486" y="793" type="line"/>
      <point x="419" y="793" type="line"/>
    </contour>
    <contour>
      <point x="248" y="722" type="line"/>
      <point x="314" y="722" type="line"/>
      <point x="321" y="793" type="line"/>
      <point x="255" y="793" type="line"/>
    </contour>
  </outline>
</glyph>
<glyph name="AE" format="1">
  <advance width="901"/>
  <unicode hex="00C6"/>
  <outline>
    <contour>
      <point x="805" y="0" type="line"/>
      <point x="843" y="182" type="line"/>
      <point x="795" y="188" type="line"/>
      <point x="760" y="51" type="line"/>
      <point x="481" y="51" type="line"/>
      <point x="508" y="305" type="line"/>
      <point x="815" y="305" type="line"/>
      <point x="820" y="356" type="line"/>
      <point x="513" y="356" type="line"/>
      <point x="539" y="599" type="line"/>
      <point x="808" y="599" type="line"/>
      <point x="814" y="462" type="line"/>
      <point x="863" y="469" type="line"/>
      <point x="864" y="650" type="line"/>
      <point x="263" y="650" type="line"/>
      <point x="258" y="599" type="line"/>
      <point x="357" y="599" type="line"/>
      <point x="34" y="51" type="line"/>
      <point x="-31" y="51" type="line"/>
      <point x="-36" y="0" type="line"/>
      <point x="182" y="0" type="line"/>
      <point x="187" y="51" type="line"/>
      <point x="90" y="51" type="line"/>
      <point x="173" y="192" type="line"/>
      <point x="439" y="192" type="line"/>
      <point x="424" y="51" type="line"/>
      <point x="342" y="51" type="line"/>
      <point x="337" y="0" type="line"/>
    </contour>
    <contour>
      <point x="444" y="238" type="line"/>
      <point x="200" y="238" type="line"/>
      <point x="412" y="599" type="line"/>
      <point x="482" y="599" type="line"/>
    </contour>
  </outline>
</glyph>
<glyph name="Ccedilla" format="1">
  <advance width="631"/>
  <unicode hex="00C7"/>
  <outline>
    <contour>
      <point x="534" y="45" type="line"/>
      <point x="479" y="6"/>
      <point x="402" y="-10"/>
      <point x="334" y="-10" type="curve" smooth="yes"/>
      <point x="329" y="-10" type="line"/>
      <point x="325" y="-48" type="line"/>
      <point x="333" y="-48" type="line" smooth="yes"/>
      <point x="387" y="-48"/>
      <point x="412" y="-76"/>
      <point x="412" y="-120" type="curve" smooth="yes"/>
      <point x="412" y="-180"/>
      <point x="361" y="-209"/>
      <point x="302" y="-209" type="curve" smooth="yes"/>
      <point x="269" y="-209"/>
      <point x="238" y="-200"/>
      <point x="217" y="-179" type="curve"/>
      <point x="236" y="-146" type="line"/>
      <point x="251" y="-159"/>
      <point x="277" y="-169"/>
      <point x="305" y="-169" type="curve" smooth="yes"/>
      <point x="338" y="-169"/>
      <point x="364" y="-155"/>
      <point x="364" y="-119" type="curve" smooth="yes"/>
      <point x="364" y="-84"/>
      <point x="339" y="-79"/>
      <point x="307" y="-79" type="curve" smooth="yes"/>
      <point x="280" y="-79" type="line"/>
      <point x="287" y="-7" type="line"/>
      <point x="131" y="11"/>
      <point x="47" y="126"/>
      <point x="47" y="290" type="curve" smooth="yes"/>
      <point x="47" y="502"/>
      <point x="188" y="660"/>
      <point x="390" y="660" type="curve" smooth="yes"/>
      <point x="480" y="660"/>
      <point x="551" y="629"/>
      <point x="596" y="584" type="curve"/>
      <point x="601" y="467" type="line"/>
      <point x="552" y="461" type="line"/>
      <point x="543" y="559" type="line"/>
      <point x="503" y="588"/>
      <point x="457" y="608"/>
      <point x="390" y="608" type="curve" smooth="yes"/>
      <point x="222" y="608"/>
      <point x="104" y="484"/>
      <point x="104" y="293" type="curve" smooth="yes"/>
      <point x="104" y="132"/>
      <point x="188" y="42"/>
      <point x="346" y="42" type="curve" smooth="yes"/>
      <point x="399" y="42"/>
      <point x="446" y="52"/>
      <point x="486" y="72" type="curve"/>
      <point x="515" y="168" type="line"/>
      <point x="563" y="162" type="line"/>
    </contour>
  </outline>
</glyph>
<glyph name="Ecircumflex" format="1">
  <advance width="574"/>
  <unicode hex="00CA"/>
  <outline>
    <contour>
      <point x="477" y="0" type="line"/>
      <point x="13" y="0" type="line"/>
      <point x="18" y="51" type="line"/>
      <point x="101" y="51" type="line"/>
      <point x="159" y="599" type="line"/>
      <point x="76" y="599" type="line"/>
      <point x="81" y="650" type="line"/>
      <point x="541" y="650" type="line"/>
      <point x="541" y="468" type="line"/>
      <point x="491" y="462" type="line"/>
      <point x="486" y="599" type="line"/>
      <point x="215" y="599" type="line"/>
      <point x="188" y="356" type="line"/>
      <point x="498" y="356" type="line"/>
      <point x="493" y="305" type="line"/>
      <point x="183" y="305" type="line"/>
      <point x="156" y="51" type="line"/>
      <point x="432" y="51" type="line"/>
      <point x="466" y="188" type="line"/>
      <point x="514" y="183" type="line"/>
    </contour>
    <contour>
      <point x="385" y="820" type="line"/>
      <point x="370" y="820" type="line"/>
      <point x="237" y="732" type="line"/>
      <point x="253" y="705" type="line"/>
      <point x="371" y="769" type="line"/>
      <point x="478" y="706" type="line"/>
      <point x="496" y="736" type="line"/>
    </contour>
  </outline>
</glyph>
<glyph name="Iacute" format="1">
  <advance width="303"/>
  <unicode hex="00CD"/>
  <outline>
    <contour>
      <point x="18" y="51" type="line"/>
      <point x="101" y="51" type="line"/>
      <point x="158" y="599" type="line"/>
      <point x="75" y="599" type="line"/>
      <point x="81" y="650" type="line"/>
      <point x="301" y="650" type="line"/>
      <point x="296" y="599" type="line"/>
      <point x="212" y="599" type="line"/>
      <point x="155" y="51" type="line"/>
      <point x="239" y="51" type="line"/>
      <point x="233" y="0" type="line"/>
      <point x="13" y="0" type="line"/>
    </contour>
    <contour>
      <point x="339" y="753" type="line"/>
      <point x="325" y="808" type="line"/>
      <point x="134" y="739" type="line"/>
      <point x="142" y="707" type="line"/>
    </contour>
  </outline>
</glyph>
<glyph name="Icircumflex" format="1">
  <advance width="303"/>
  <unicode hex="00CE"/>
  <outline>
    <contour>
      <point x="18" y="51" type="line"/>
      <point x="101" y="51" type="line"/>
      <point x="158" y="599" type="line"/>
      <point x="75" y="599" type="line"/>
      <point x="81" y="650" type="line"/>
      <point x="301" y="650" type="line"/>
      <point x="296" y="599" type="line"/>
      <point x="212" y="599" type="line"/>
      <point x="155" y="51" type="line"/>
      <point x="239" y="51" type="line"/>
      <point x="233" y="0" type="line"/>
      <point x="13" y="0" type="line"/>
    </contour>
    <contour>
      <point x="221" y="820" type="line"/>
      <point x="206" y="820" type="line"/>
      <point x="73" y="732" type="line"/>
      <point x="89" y="705" type="line"/>
      <point x="207" y="769" type="line"/>
      <point x="314" y="706" type="line"/>
      <point x="332" y="736" type="line"/>
    </contour>
  </outline>
</glyph>
<glyph name="Idieresis" format="1">
  <advance width="303"/>
  <unicode hex="00CF"/>
  <outline>
    <contour>
      <point x="18" y="51" type="line"/>
      <point x="101" y="51" type="line"/>
      <point x="158" y="599" type="line"/>
      <point x="75" y="599" type="line"/>
      <point x="81" y="650" type="line"/>
      <point x="301" y="650" type="line"/>
      <point x="296" y="599" type="line"/>
      <point x="212" y="599" type="line"/>
      <point x="155" y="51" type="line"/>
      <point x="239" y="51" type="line"/>
      <point x="233" y="0" type="line"/>
      <point x="13" y="0" type="line"/>
    </contour>
    <contour>
      <point x="248" y="722" type="line"/>
      <point x="315" y="722" type="line"/>
      <point x="322" y="793" type="line"/>
      <point x="255" y="793" type="line"/>
    </contour>
    <contour>
      <point x="84" y="722" type="line"/>
      <point x="150" y="722" type="line"/>
      <point x="157" y="793" type="line"/>
      <point x="91" y="793" type="line"/>
    </contour>
  </outline>
</glyph>
<glyph name="Otilde" format="1">
  <advance width="716"/>
  <unicode hex="00D5"/>
  <outline>
    <contour>
      <point x="295" y="707" type="line"/>
      <point x="310" y="740"/>
      <point x="334" y="748"/>
      <point x="351" y="748" type="curve" smooth="yes"/>
      <point x="388" y="748"/>
      <point x="418" y="712"/>
      <point x="467" y="712" type="curve" smooth="yes"/>
      <point x="507" y="712"/>
      <point x="533" y="739"/>
      <point x="550" y="792" type="curve"/>
      <point x="520" y="800" type="line"/>
      <point x="505" y="762"/>
      <point x="487" y="757"/>
      <point x="470" y="757" type="curve" smooth="yes"/>
      <point x="420" y="757"/>
      <point x="399" y="793"/>
      <point x="355" y="793" type="curve" smooth="yes"/>
      <point x="310" y="793"/>
      <point x="279" y="752"/>
      <point x="268" y="719" type="curve"/>
    </contour>
    <contour>
      <point x="396" y="660" type="curve" smooth="yes"/>
      <point x="198" y="660"/>
      <point x="46" y="494"/>
      <point x="46" y="291" type="curve" smooth="yes"/>
      <point x="46" y="125"/>
      <point x="154" y="-10"/>
      <point x="329" y="-10" type="curve" smooth="yes"/>
      <point x="532" y="-10"/>
      <point x="681" y="158"/>
      <point x="681" y="359" type="curve" smooth="yes"/>
      <point x="681" y="526"/>
      <point x="571" y="660"/>
    </contour>
    <contour>
      <point x="337" y="42" type="curve" smooth="yes"/>
      <point x="181" y="42"/>
      <point x="105" y="158"/>
      <point x="105" y="296" type="curve" smooth="yes"/>
      <point x="105" y="465"/>
      <point x="222" y="608"/>
      <point x="390" y="608" type="curve" smooth="yes"/>
      <point x="539" y="608"/>
      <point x="622" y="499"/>
      <point x="622" y="355" type="curve" smooth="yes"/>
      <point x="622" y="188"/>
      <point x="509" y="42"/>
    </contour>
  </outline>
</glyph>
<glyph name="Odieresis" format="1">
  <advance width="716"/>
  <unicode hex="00D6"/>
  <outline>
    <contour>
      <point x="295" y="722" type="line"/>
      <point x="361" y="722" type="line"/>
      <point x="368" y="793" type="line"/>
      <point x="302" y="793" type="line"/>
    </contour>
    <contour>
      <point x="459" y="722" type="line"/>
      <point x="526" y="722" type="line"/>
      <point x="533" y="793" type="line"/>
      <point x="466" y="793" type="line"/>
    </contour>
    <contour>
      <point x="396" y="660" type="curve" smooth="yes"/>
      <point x="198" y="660"/>
      <point x="46" y="494"/>
      <point x="46" y="291" type="curve" smooth="yes"/>
      <point x="46" y="125"/>
      <point x="154" y="-10"/>
      <point x="329" y="-10" type="curve" smooth="yes"/>
      <point x="532" y="-10"/>
      <point x="681" y="158"/>
      <point x="681" y="359" type="curve" smooth="yes"/>
      <point x="681" y="526"/>
      <point x="571" y="660"/>
    </contour>
    <contour>
      <point x="337" y="42" type="curve" smooth="yes"/>
      <point x="181" y="42"/>
      <point x="105" y="158"/>
      <point x="105" y="296" type="curve" smooth="yes"/>
      <point x="105" y="465"/>
      <point x="222" y="608"/>
      <point x="390" y="608" type="curve" smooth="yes"/>
      <point x="539" y="608"/>
      <point x="622" y="499"/>
      <point x="622" y="355" type="curve" smooth="yes"/>
      <point x="622" y="188"/>
      <point x="509" y="42"/>
    </contour>
  </outline>
</glyph>
<glyph name="Uacute" format="1">
  <advance width="698"/>
  <unicode hex="00DA"/>
  <outline>
    <contour>
      <point x="489" y="650" type="line"/>
      <point x="698" y="650" type="line"/>
      <point x="693" y="599" type="line"/>
      <point x="629" y="599" type="line"/>
      <point x="595" y="266" type="line"/>
      <point x="580" y="128"/>
      <point x="519" y="-10"/>
      <point x="325" y="-10" type="curve" smooth="yes"/>
      <point x="138" y="-10"/>
      <point x="87" y="115"/>
      <point x="102" y="255" type="curve" smooth="yes"/>
      <point x="138" y="599" type="line"/>
      <point x="70" y="599" type="line"/>
      <point x="75" y="650" type="line"/>
      <point x="291" y="650" type="line"/>
      <point x="285" y="599" type="line"/>
      <point x="194" y="599" type="line"/>
      <point x="158" y="257" type="line" smooth="yes"/>
      <point x="144" y="119"/>
      <point x="199" y="42"/>
      <point x="331" y="42" type="curve" smooth="yes"/>
      <point x="453" y="42"/>
      <point x="526" y="116"/>
      <point x="543" y="266" type="curve"/>
      <point x="577" y="599" type="line"/>
      <point x="484" y="599" type="line"/>
    </contour>
    <contour>
      <point x="545" y="753" type="line"/>
      <point x="531" y="808" type="line"/>
      <point x="340" y="739" type="line"/>
      <point x="348" y="707" type="line"/>
    </contour>
  </outline>
</glyph>
<glyph name="Udieresis" format="1">
  <advance width="698"/>
  <unicode hex="00DC"/>
  <outline>
    <contour>
      <point x="489" y="650" type="line"/>
      <point x="698" y="650" type="line"/>
      <point x="693" y="599" type="line"/>
      <point x="629" y="599" type="line"/>
      <point x="595" y="266" type="line"/>
      <point x="580" y="128"/>
      <point x="519" y="-10"/>
      <point x="325" y="-10" type="curve" smooth="yes"/>
      <point x="138" y="-10"/>
      <point x="87" y="115"/>
      <point x="102" y="255" type="curve" smooth="yes"/>
      <point x="138" y="599" type="line"/>
      <point x="70" y="599" type="line"/>
      <point x="75" y="650" type="line"/>
      <point x="291" y="650" type="line"/>
      <point x="285" y="599" type="line"/>
      <point x="194" y="599" type="line"/>
      <point x="158" y="257" type="line" smooth="yes"/>
      <point x="144" y="119"/>
      <point x="199" y="42"/>
      <point x="331" y="42" type="curve" smooth="yes"/>
      <point x="453" y="42"/>
      <point x="526" y="116"/>
      <point x="543" y="266" type="curve"/>
      <point x="577" y="599" type="line"/>
      <point x="484" y="599" type="line"/>
    </contour>
    <contour>
      <point x="449" y="722" type="line"/>
      <point x="516" y="722" type="line"/>
      <point x="523" y="793" type="line"/>
      <point x="456" y="793" type="line"/>
    </contour>
    <contour>
      <point x="285" y="722" type="line"/>
      <point x="351" y="722" type="line"/>
      <point x="358" y="793" type="line"/>
      <point x="292" y="793" type="line"/>
    </contour>
  </outline>
</glyph>
<glyph name="Thorn" format="1">
  <advance width="552"/>
  <unicode hex="00DE"/>
  <outline>
    <contour>
      <point x="18" y="51" type="line"/>
      <point x="101" y="51" type="line"/>
      <point x="158" y="599" type="line"/>
      <point x="75" y="599" type="line"/>
      <point x="81" y="650" type="line"/>
      <point x="301" y="650" type="line"/>
      <point x="296" y="599" type="line"/>
      <point x="213" y="599" type="line"/>
      <point x="205" y="528" type="line"/>
      <point x="334" y="528" type="line" smooth="yes"/>
      <point x="478" y="528"/>
      <point x="531" y="454"/>
      <point x="531" y="357" type="curve" smooth="yes"/>
      <point x="531" y="223"/>
      <point x="437" y="143"/>
      <point x="299" y="143" type="curve" smooth="yes"/>
      <point x="165" y="143" type="line"/>
      <point x="155" y="51" type="line"/>
      <point x="239" y="51" type="line"/>
      <point x="233" y="0" type="line"/>
      <point x="13" y="0" type="line"/>
    </contour>
    <contour>
      <point x="298" y="185" type="line" smooth="yes"/>
      <point x="406" y="185"/>
      <point x="472" y="250"/>
      <point x="472" y="354" type="curve" smooth="yes"/>
      <point x="472" y="438"/>
      <point x="427" y="485"/>
      <point x="327" y="485" type="curve" smooth="yes"/>
      <point x="201" y="485" type="line"/>
      <point x="169" y="185" type="line"/>
    </contour>
  </outline>
</glyph>
<glyph name="germandbls" format="1">
  <advance width="585"/>
  <unicode hex="00DF"/>
  <outline>
    <contour>
      <point x="27" y="397" type="line"/>
      <point x="113" y="397" type="line"/>
      <point x="56" y="-66" type="line" smooth="yes"/>
      <point x="46" y="-144"/>
      <point x="22" y="-177"/>
      <point x="-27" y="-177" type="curve" smooth="yes"/>
      <point x="-59" y="-177"/>
      <point x="-96" y="-163"/>
      <point x="-92" y="-92" type="curve"/>
      <point x="-136" y="-105" type="line"/>
      <point x="-138" y="-192"/>
      <point x="-88" y="-223"/>
      <point x="-26" y="-223" type="curve" smooth="yes"/>
      <point x="56" y="-223"/>
      <point x="96" y="-168"/>
      <point x="109" y="-67" type="curve" smooth="yes"/>
      <point x="181" y="517" type="line" smooth="yes"/>
      <point x="191" y="597"/>
      <point x="254" y="652"/>
      <point x="348" y="652" type="curve" smooth="yes"/>
      <point x="421" y="652"/>
      <point x="482" y="620"/>
      <point x="482" y="561" type="curve" smooth="yes"/>
      <point x="482" y="450"/>
      <point x="253" y="464"/>
      <point x="253" y="320" type="curve" smooth="yes"/>
      <point x="253" y="243"/>
      <point x="319" y="225"/>
      <point x="381" y="209" type="curve" smooth="yes"/>
      <point x="448" y="192"/>
      <point x="488" y="181"/>
      <point x="488" y="124" type="curve" smooth="yes"/>
      <point x="488" y="67"/>
      <point x="449" y="36"/>
      <point x="376" y="36" type="curve" smooth="yes"/>
      <point x="339" y="36"/>
      <point x="302" y="43"/>
      <point x="274" y="59" type="curve"/>
      <point x="285" y="124" type="line"/>
      <point x="241" y="128" type="line"/>
      <point x="219" y="34" type="line"/>
      <point x="249" y="11"/>
      <point x="319" y="-10"/>
      <point x="381" y="-10" type="curve" smooth="yes"/>
      <point x="480" y="-10"/>
      <point x="544" y="45"/>
      <point x="544" y="128" type="curve" smooth="yes"/>
      <point x="544" y="223"/>
      <point x="459" y="239"/>
      <point x="397" y="254" type="curve"/>
      <point x="345" y="268"/>
      <point x="309" y="280"/>
      <point x="309" y="327" type="curve" smooth="yes"/>
      <point x="309" y="444"/>
      <point x="536" y="419"/>
      <point x="536" y="564" type="curve" smooth="yes"/>
      <point x="536" y="653"/>
      <point x="450" y="698"/>
      <point x="354" y="698" type="curve" smooth="yes"/>
      <point x="240" y="698"/>
      <point x="143" y="634"/>
      <point x="129" y="520" type="curve" smooth="yes"/>
      <point x="119" y="444" type="line"/>
      <point x="50" y="444" type="line"/>
      <point x="30" y="426" type="line"/>
    </contour>
  </outline>
</glyph>
<glyph name="atilde" format="1">
  <advance width="500"/>
  <unicode hex="00E3"/>
  <outline>
    <contour>
      <point x="447" y="444" type="line"/>
      <point x="435" y="399"/>
      <point x="423" y="355"/>
      <point x="418" y="311" type="curve" smooth="yes"/>
      <point x="385" y="46" type="line"/>
      <point x="454" y="46" type="line"/>
      <point x="451" y="15" type="line"/>
      <point x="432" y="0" type="line"/>
      <point x="335" y="0" type="line"/>
      <point x="338" y="90" type="line"/>
      <point x="309" y="36"/>
      <point x="264" y="-10"/>
      <point x="186" y="-10" type="curve" smooth="yes"/>
      <point x="89" y="-10"/>
      <point x="36" y="60"/>
      <point x="36" y="177" type="curve" smooth="yes"/>
      <point x="36" y="289"/>
      <point x="86" y="453"/>
      <point x="242" y="453" type="curve" smooth="yes"/>
      <point x="308" y="453"/>
      <point x="357" y="423"/>
      <point x="376" y="368" type="curve"/>
      <point x="381" y="393"/>
      <point x="387" y="418"/>
      <point x="395" y="444" type="curve"/>
    </contour>
    <contour>
      <point x="246" y="406" type="curve" smooth="yes"/>
      <point x="124" y="406"/>
      <point x="93" y="275"/>
      <point x="93" y="186" type="curve" smooth="yes"/>
      <point x="93" y="87"/>
      <point x="132" y="36"/>
      <point x="199" y="36" type="curve" smooth="yes"/>
      <point x="277" y="36"/>
      <point x="330" y="112"/>
      <point x="346" y="174" type="curve"/>
      <point x="361" y="285" type="line"/>
      <point x="361" y="353"/>
      <point x="315" y="406"/>
    </contour>
    <contour>
      <point x="180" y="558" type="line"/>
      <point x="194" y="591"/>
      <point x="218" y="601"/>
      <point x="236" y="601" type="curve" smooth="yes"/>
      <point x="271" y="601"/>
      <point x="300" y="563"/>
      <point x="351" y="563" type="curve" smooth="yes"/>
      <point x="392" y="563"/>
      <point x="416" y="593"/>
      <point x="434" y="646" type="curve"/>
      <point x="403" y="654" type="line"/>
      <point x="390" y="616"/>
      <point x="372" y="611"/>
      <point x="354" y="611" type="curve" smooth="yes"/>
      <point x="303" y="611"/>
      <point x="283" y="648"/>
      <point x="240" y="648" type="curve" smooth="yes"/>
      <point x="195" y="648"/>
      <point x="162" y="603"/>
      <point x="152" y="569" type="curve"/>
    </contour>
  </outline>
</glyph>
<glyph name="ccedilla" format="1">
  <advance width="440"/>
  <unicode hex="00E7"/>
  <outline>
    <contour>
      <point x="252" y="406" type="curve" smooth="yes"/>
      <point x="131" y="406"/>
      <point x="92" y="288"/>
      <point x="92" y="187" type="curve" smooth="yes"/>
      <point x="92" y="94"/>
      <point x="125" y="36"/>
      <point x="205" y="36" type="curve" smooth="yes"/>
      <point x="272" y="36"/>
      <point x="317" y="76"/>
      <point x="342" y="156" type="curve"/>
      <point x="385" y="145" type="line"/>
      <point x="365" y="69"/>
      <point x="312" y="-6"/>
      <point x="208" y="-10" type="curve"/>
      <point x="204" y="-48" type="line"/>
      <point x="212" y="-48" type="line" smooth="yes"/>
      <point x="266" y="-48"/>
      <point x="291" y="-76"/>
      <point x="291" y="-120" type="curve" smooth="yes"/>
      <point x="291" y="-180"/>
      <point x="240" y="-209"/>
      <point x="181" y="-209" type="curve" smooth="yes"/>
      <point x="148" y="-209"/>
      <point x="117" y="-200"/>
      <point x="96" y="-179" type="curve"/>
      <point x="115" y="-146" type="line"/>
      <point x="130" y="-159"/>
      <point x="156" y="-169"/>
      <point x="184" y="-169" type="curve" smooth="yes"/>
      <point x="217" y="-169"/>
      <point x="243" y="-155"/>
      <point x="243" y="-119" type="curve" smooth="yes"/>
      <point x="243" y="-84"/>
      <point x="218" y="-79"/>
      <point x="186" y="-79" type="curve" smooth="yes"/>
      <point x="159" y="-79" type="line"/>
      <point x="166" y="-7" type="line"/>
      <point x="82" y="7"/>
      <point x="35" y="77"/>
      <point x="35" y="183" type="curve" smooth="yes"/>
      <point x="35" y="299"/>
      <point x="92" y="453"/>
      <point x="249" y="453" type="curve" smooth="yes"/>
      <point x="310" y="453"/>
      <point x="349" y="438"/>
      <point x="388" y="405" type="curve"/>
      <point x="394" y="306" type="line"/>
      <point x="347" y="300" type="line"/>
      <point x="338" y="375" type="line"/>
      <point x="312" y="398"/>
      <point x="283" y="406"/>
    </contour>
  </outline>
</glyph>
<glyph name="igrave" format="1">
  <advance width="251"/>
  <unicode hex="00EC"/>
  <outline>
    <contour>
      <point x="37" y="426" type="line"/>
      <point x="56" y="444" type="line"/>
      <point x="173" y="444" type="line"/>
      <point x="124" y="46" type="line"/>
      <point x="204" y="46" type="line"/>
      <point x="200" y="15" type="line"/>
      <point x="181" y="0" type="line"/>
      <point x="66" y="0" type="line"/>
      <point x="114" y="397" type="line"/>
      <point x="33" y="397" type="line"/>
    </contour>
    <contour>
      <point x="195" y="523" type="line"/>
      <point x="211" y="549" type="line"/>
      <point x="48" y="678" type="line"/>
      <point x="19" y="631" type="line"/>
    </contour>
  </outline>
</glyph>
<glyph name="iacute" format="1">
  <advance width="250"/>
  <unicode hex="00ED"/>
  <outline>
    <contour>
      <point x="37" y="426" type="line"/>
      <point x="56" y="444" type="line"/>
      <point x="173" y="444" type="line"/>
      <point x="124" y="46" type="line"/>
      <point x="204" y="46" type="line"/>
      <point x="200" y="15" type="line"/>
      <point x="181" y="0" type="line"/>
      <point x="66" y="0" type="line"/>
      <point x="114" y="397" type="line"/>
      <point x="33" y="397" type="line"/>
    </contour>
    <contour>
      <point x="289" y="631" type="line"/>
      <point x="260" y="678" type="line"/>
      <point x="97" y="549" type="line"/>
      <point x="113" y="523" type="line"/>
    </contour>
  </outline>
</glyph>
<glyph name="idieresis" format="1">
  <advance width="250"/>
  <unicode hex="00EF"/>
  <outline>
    <contour>
      <point x="37" y="426" type="line"/>
      <point x="56" y="444" type="line"/>
      <point x="173" y="444" type="line"/>
      <point x="124" y="46" type="line"/>
      <point x="204" y="46" type="line"/>
      <point x="200" y="15" type="line"/>
      <point x="181" y="0" type="line"/>
      <point x="66" y="0" type="line"/>
      <point x="114" y="397" type="line"/>
      <point x="33" y="397" type="line"/>
    </contour>
    <contour>
      <point x="206" y="562" type="line"/>
      <point x="273" y="562" type="line"/>
      <point x="280" y="633" type="line"/>
      <point x="213" y="633" type="line"/>
    </contour>
    <contour>
      <point x="42" y="562" type="line"/>
      <point x="108" y="562" type="line"/>
      <point x="115" y="633" type="line"/>
      <point x="49" y="633" type="line"/>
    </contour>
  </outline>
</glyph>
<glyph name="eth" format="1">
  <advance width="490"/>
  <unicode hex="00F0"/>
  <outline>
    <contour>
      <point x="168" y="530" type="line"/>
      <point x="236" y="602" type="line"/>
      <point x="212" y="622"/>
      <point x="185" y="640"/>
      <point x="156" y="658" type="curve"/>
      <point x="183" y="698" type="line"/>
      <point x="214" y="679"/>
      <point x="243" y="659"/>
      <point x="270" y="637" type="curve"/>
      <point x="326" y="697" type="line"/>
      <point x="355" y="673" type="line"/>
      <point x="298" y="612" type="line"/>
      <point x="382" y="533"/>
      <point x="434" y="432"/>
      <point x="434" y="301" type="curve" smooth="yes"/>
      <point x="434" y="159"/>
      <point x="381" y="-10"/>
      <point x="212" y="-10" type="curve" smooth="yes"/>
      <point x="93" y="-10"/>
      <point x="36" y="75"/>
      <point x="36" y="193" type="curve" smooth="yes"/>
      <point x="36" y="335"/>
      <point x="119" y="453"/>
      <point x="249" y="453" type="curve" smooth="yes"/>
      <point x="310" y="453"/>
      <point x="346" y="427"/>
      <point x="369" y="393" type="curve"/>
      <point x="354" y="466"/>
      <point x="318" y="526"/>
      <point x="265" y="577" type="curve"/>
      <point x="197" y="506" type="line"/>
    </contour>
    <contour>
      <point x="249" y="406" type="curve" smooth="yes"/>
      <point x="145" y="406"/>
      <point x="94" y="311"/>
      <point x="94" y="197" type="curve" smooth="yes"/>
      <point x="94" y="108"/>
      <point x="125" y="36"/>
      <point x="216" y="36" type="curve" smooth="yes"/>
      <point x="344" y="36"/>
      <point x="372" y="178"/>
      <point x="377" y="274" type="curve"/>
      <point x="375" y="328"/>
      <point x="342" y="406"/>
    </contour>
  </outline>
</glyph>
<glyph name="ntilde" format="1">
  <advance width="518"/>
  <unicode hex="00F1"/>
  <outline>
    <contour>
      <point x="53" y="444" type="line"/>
      <point x="161" y="444" type="line"/>
      <point x="157" y="357" type="line"/>
      <point x="190" y="415"/>
      <point x="239" y="453"/>
      <point x="310" y="453" type="curve" smooth="yes"/>
      <point x="396" y="453"/>
      <point x="451" y="401"/>
      <point x="436" y="280" type="curve" smooth="yes"/>
      <point x="407" y="46" type="line"/>
      <point x="487" y="46" type="line"/>
      <point x="483" y="15" type="line"/>
      <point x="464" y="0" type="line"/>
      <point x="350" y="0" type="line"/>
      <point x="382" y="267" type="line" smooth="yes"/>
      <point x="394" y="368"/>
      <point x="358" y="406"/>
      <point x="290" y="406" type="curve" smooth="yes"/>
      <point x="211" y="406"/>
      <point x="160" y="337"/>
      <point x="149" y="270" type="curve" smooth="yes"/>
      <point x="148" y="262" type="line"/>
      <point x="116" y="0" type="line"/>
      <point x="64" y="0" type="line"/>
      <point x="112" y="397" type="line"/>
      <point x="30" y="397" type="line"/>
      <point x="34" y="426" type="line"/>
    </contour>
    <contour>
      <point x="175" y="558" type="line"/>
      <point x="189" y="591"/>
      <point x="213" y="601"/>
      <point x="231" y="601" type="curve" smooth="yes"/>
      <point x="266" y="601"/>
      <point x="295" y="563"/>
      <point x="346" y="563" type="curve" smooth="yes"/>
      <point x="387" y="563"/>
      <point x="411" y="593"/>
      <point x="429" y="646" type="curve"/>
      <point x="398" y="654" type="line"/>
      <point x="385" y="616"/>
      <point x="367" y="611"/>
      <point x="349" y="611" type="curve" smooth="yes"/>
      <point x="298" y="611"/>
      <point x="278" y="648"/>
      <point x="235" y="648" type="curve" smooth="yes"/>
      <point x="190" y="648"/>
      <point x="157" y="603"/>
      <point x="147" y="569" type="curve"/>
    </contour>
  </outline>
</glyph>
<glyph name="oslash" format="1">
  <advance width="477"/>
  <unicode hex="00F8"/>
  <outline>
    <contour>
      <point x="35" y="188" type="curve" smooth="yes"/>
      <point x="35" y="329"/>
      <point x="112" y="453"/>
      <point x="259" y="453" type="curve" smooth="yes"/>
      <point x="302" y="453"/>
      <point x="336" y="442"/>
      <point x="362" y="423" type="curve"/>
      <point x="379" y="444" type="line"/>
      <point x="431" y="444" type="line"/>
      <point x="392" y="394" type="line"/>
      <point x="419" y="357"/>
      <point x="431" y="307"/>
      <point x="431" y="252" type="curve" smooth="yes"/>
      <point x="431" y="107"/>
      <point x="350" y="-10"/>
      <point x="207" y="-10" type="curve" smooth="yes"/>
      <point x="162" y="-10"/>
      <point x="128" y="1"/>
      <point x="101" y="21" type="curve"/>
      <point x="85" y="0" type="line"/>
      <point x="33" y="0" type="line"/>
      <point x="72" y="50" type="line"/>
      <point x="47" y="85"/>
      <point x="35" y="133"/>
    </contour>
    <contour>
      <point x="212" y="36" type="curve" smooth="yes"/>
      <point x="324" y="36"/>
      <point x="373" y="135"/>
      <point x="373" y="251" type="curve" smooth="yes"/>
      <point x="373" y="288"/>
      <point x="368" y="321"/>
      <point x="355" y="347" type="curve"/>
      <point x="133" y="62" type="line"/>
      <point x="151" y="45"/>
      <point x="177" y="36"/>
    </contour>
    <contour>
      <point x="92" y="190" type="curve" smooth="yes"/>
      <point x="92" y="153"/>
      <point x="97" y="122"/>
      <point x="108" y="96" type="curve"/>
      <point x="330" y="381" type="line"/>
      <point x="312" y="397"/>
      <point x="287" y="406"/>
      <point x="253" y="406" type="curve" smooth="yes"/>
      <point x="147" y="406"/>
      <point x="92" y="313"/>
    </contour>
  </outline>
</glyph>
<glyph name="thorn" format="1">
  <advance width="500"/>
  <unicode hex="00FE"/>
  <outline>
    <contour>
      <point x="176" y="-197" type="line"/>
      <point x="157" y="-213" type="line"/>
      <point x="-46" y="-213" type="line"/>
      <point x="-42" y="-184" type="line"/>
      <point x="-24" y="-167" type="line"/>
      <point x="24" y="-167" type="line"/>
      <point x="125" y="642" type="line"/>
      <point x="44" y="642" type="line"/>
      <point x="48" y="671" type="line"/>
      <point x="66" y="688" type="line"/>
      <point x="181" y="688" type="line"/>
      <point x="168" y="555" type="line"/>
      <point x="143" y="359" type="line"/>
      <point x="173" y="410"/>
      <point x="218" y="453"/>
      <point x="295" y="453" type="curve" smooth="yes"/>
      <point x="394" y="453"/>
      <point x="452" y="382"/>
      <point x="452" y="263" type="curve" smooth="yes"/>
      <point x="452" y="153"/>
      <point x="402" y="-10"/>
      <point x="245" y="-10" type="curve" smooth="yes"/>
      <point x="182" y="-10"/>
      <point x="130" y="17"/>
      <point x="107" y="66" type="curve"/>
      <point x="78" y="-167" type="line"/>
      <point x="180" y="-167" type="line"/>
    </contour>
    <contour>
      <point x="243" y="36" type="curve" smooth="yes"/>
      <point x="361" y="36"/>
      <point x="395" y="171"/>
      <point x="395" y="256" type="curve" smooth="yes"/>
      <point x="395" y="353"/>
      <point x="351" y="406"/>
      <point x="283" y="406" type="curve" smooth="yes"/>
      <point x="202" y="406"/>
      <point x="148" y="331"/>
      <point x="131" y="268" type="curve"/>
      <point x="118" y="154" type="line"/>
      <point x="120" y="89"/>
      <point x="170" y="36"/>
    </contour>
  </outline>
</glyph>
<glyph name="Amacron" format="1">
  <advance width="626"/>
  <unicode hex="0100"/>
  <outline>
    <contour>
      <point x="-21" y="51" type="line"/>
      <point x="40" y="51" type="line"/>
      <point x="312" y="599" type="line"/>
      <point x="207" y="599" type="line"/>
      <point x="212" y="650" type="line"/>
      <point x="382" y="650" type="line"/>
      <point x="548" y="51" type="line"/>
      <point x="611" y="51" type="line"/>
      <point x="606" y="0" type="line"/>
      <point x="389" y="0" type="line"/>
      <point x="394" y="51" type="line"/>
      <point x="488" y="51" type="line"/>
      <point x="451" y="192" type="line"/>
      <point x="165" y="192" type="line"/>
      <point x="97" y="51" type="line"/>
      <point x="196" y="51" type="line"/>
      <point x="191" y="0" type="line"/>
      <point x="-25" y="0" type="line"/>
    </contour>
    <contour>
      <point x="348" y="566" type="line"/>
      <point x="188" y="238" type="line"/>
      <point x="439" y="238" type="line"/>
      <point x="352" y="566" type="line"/>
    </contour>
    <contour>
      <point x="234" y="782" type="line"/>
      <point x="499" y="782" type="line"/>
      <point x="494" y="736" type="line"/>
      <point x="229" y="736" type="line"/>
    </contour>
  </outline>
</glyph>
<glyph name="Abreve" format="1">
  <advance width="626"/>
  <unicode hex="0102"/>
  <outline>
    <contour>
      <point x="-21" y="51" type="line"/>
      <point x="40" y="51" type="line"/>
      <point x="312" y="599" type="line"/>
      <point x="207" y="599" type="line"/>
      <point x="212" y="650" type="line"/>
      <point x="382" y="650" type="line"/>
      <point x="548" y="51" type="line"/>
      <point x="611" y="51" type="line"/>
      <point x="606" y="0" type="line"/>
      <point x="389" y="0" type="line"/>
      <point x="394" y="51" type="line"/>
      <point x="488" y="51" type="line"/>
      <point x="451" y="192" type="line"/>
      <point x="165" y="192" type="line"/>
      <point x="97" y="51" type="line"/>
      <point x="196" y="51" type="line"/>
      <point x="191" y="0" type="line"/>
      <point x="-25" y="0" type="line"/>
    </contour>
    <contour>
      <point x="348" y="566" type="line"/>
      <point x="188" y="238" type="line"/>
      <point x="439" y="238" type="line"/>
      <point x="352" y="566" type="line"/>
    </contour>
    <contour>
      <point x="445" y="812" type="curve"/>
      <point x="491" y="812" type="line"/>
      <point x="483" y="732"/>
      <point x="438" y="700"/>
      <point x="364" y="700" type="curve" smooth="yes"/>
      <point x="291" y="700"/>
      <point x="253" y="733"/>
      <point x="261" y="812" type="curve"/>
      <point x="307" y="812" type="line"/>
      <point x="301" y="755"/>
      <point x="324" y="740"/>
      <point x="368" y="740" type="curve" smooth="yes"/>
      <point x="416" y="740"/>
      <point x="439" y="758"/>
    </contour>
  </outline>
</glyph>
<glyph name="abreve" format="1">
  <advance width="500"/>
  <unicode hex="0103"/>
  <outline>
    <contour>
      <point x="447" y="444" type="line"/>
      <point x="435" y="399"/>
      <point x="423" y="355"/>
      <point x="418" y="311" type="curve" smooth="yes"/>
      <point x="385" y="46" type="line"/>
      <point x="454" y="46" type="line"/>
      <point x="451" y="15" type="line"/>
      <point x="432" y="0" type="line"/>
      <point x="335" y="0" type="line"/>
      <point x="338" y="90" type="line"/>
      <point x="309" y="36"/>
      <point x="264" y="-10"/>
      <point x="186" y="-10" type="curve" smooth="yes"/>
      <point x="89" y="-10"/>
      <point x="36" y="60"/>
      <point x="36" y="177" type="curve" smooth="yes"/>
      <point x="36" y="289"/>
      <point x="86" y="453"/>
      <point x="242" y="453" type="curve" smooth="yes"/>
      <point x="308" y="453"/>
      <point x="357" y="423"/>
      <point x="376" y="368" type="curve"/>
      <point x="381" y="393"/>
      <point x="387" y="418"/>
      <point x="395" y="444" type="curve"/>
    </contour>
    <contour>
      <point x="246" y="406" type="curve" smooth="yes"/>
      <point x="124" y="406"/>
      <point x="93" y="275"/>
      <point x="93" y="186" type="curve" smooth="yes"/>
      <point x="93" y="87"/>
      <point x="132" y="36"/>
      <point x="199" y="36" type="curve" smooth="yes"/>
      <point x="277" y="36"/>
      <point x="330" y="112"/>
      <point x="346" y="174" type="curve"/>
      <point x="361" y="285" type="line"/>
      <point x="361" y="353"/>
      <point x="315" y="406"/>
    </contour>
    <contour>
      <point x="360" y="655" type="curve"/>
      <point x="407" y="655" type="line"/>
      <point x="398" y="576"/>
      <point x="355" y="537"/>
      <point x="279" y="537" type="curve" smooth="yes"/>
      <point x="205" y="537"/>
      <point x="168" y="577"/>
      <point x="176" y="655" type="curve"/>
      <point x="223" y="655" type="line"/>
      <point x="216" y="597"/>
      <point x="239" y="577"/>
      <point x="284" y="577" type="curve" smooth="yes"/>
      <point x="331" y="577"/>
      <point x="355" y="600"/>
    </contour>
  </outline>
</glyph>
<glyph name="Aogonek" format="1">
  <advance width="625"/>
  <unicode hex="0104"/>
  <outline>
    <contour>
      <point x="-21" y="51" type="line"/>
      <point x="40" y="51" type="line"/>
      <point x="312" y="599" type="line"/>
      <point x="207" y="599" type="line"/>
      <point x="212" y="650" type="line"/>
      <point x="382" y="650" type="line"/>
      <point x="548" y="51" type="line"/>
      <point x="611" y="51" type="line"/>
      <point x="606" y="0" type="line"/>
      <point x="543" y="0" type="line"/>
      <point x="482" y="-34"/>
      <point x="462" y="-77"/>
      <point x="462" y="-113" type="curve" smooth="yes"/>
      <point x="462" y="-152"/>
      <point x="483" y="-165"/>
      <point x="518" y="-165" type="curve" smooth="yes"/>
      <point x="536" y="-165"/>
      <point x="553" y="-161"/>
      <point x="575" y="-149" type="curve"/>
      <point x="579" y="-189" type="line"/>
      <point x="556" y="-201"/>
      <point x="530" y="-209"/>
      <point x="502" y="-209" type="curve" smooth="yes"/>
      <point x="445" y="-209"/>
      <point x="412" y="-178"/>
      <point x="412" y="-126" type="curve" smooth="yes"/>
      <point x="412" y="-73"/>
      <point x="449" y="-27"/>
      <point x="496" y="0" type="curve"/>
      <point x="389" y="0" type="line"/>
      <point x="394" y="51" type="line"/>
      <point x="488" y="51" type="line"/>
      <point x="451" y="192" type="line"/>
      <point x="165" y="192" type="line"/>
      <point x="97" y="51" type="line"/>
      <point x="196" y="51" type="line"/>
      <point x="191" y="0" type="line"/>
      <point x="-25" y="0" type="line"/>
    </contour>
    <contour>
      <point x="348" y="566" type="line"/>
      <point x="188" y="238" type="line"/>
      <point x="439" y="238" type="line"/>
      <point x="352" y="566" type="line"/>
    </contour>
  </outline>
</glyph>
<glyph name="cacute" format="1">
  <advance width="440"/>
  <unicode hex="0107"/>
  <outline>
    <contour>
      <point x="409" y="631" type="line"/>
      <point x="380" y="678" type="line"/>
      <point x="217" y="549" type="line"/>
      <point x="233" y="523" type="line"/>
    </contour>
    <contour>
      <point x="252" y="406" type="curve" smooth="yes"/>
      <point x="131" y="406"/>
      <point x="92" y="288"/>
      <point x="92" y="187" type="curve" smooth="yes"/>
      <point x="92" y="94"/>
      <point x="125" y="36"/>
      <point x="205" y="36" type="curve" smooth="yes"/>
      <point x="272" y="36"/>
      <point x="317" y="76"/>
      <point x="342" y="156" type="curve"/>
      <point x="385" y="145" type="line"/>
      <point x="365" y="68"/>
      <point x="310" y="-10"/>
      <point x="201" y="-10" type="curve" smooth="yes"/>
      <point x="96" y="-10"/>
      <point x="35" y="63"/>
      <point x="35" y="183" type="curve" smooth="yes"/>
      <point x="35" y="299"/>
      <point x="92" y="453"/>
      <point x="249" y="453" type="curve"/>
      <point x="310" y="453"/>
      <point x="349" y="438"/>
      <point x="388" y="405" type="curve"/>
      <point x="394" y="306" type="line"/>
      <point x="347" y="300" type="line"/>
      <point x="338" y="375" type="line"/>
      <point x="312" y="398"/>
      <point x="283" y="406"/>
    </contour>
  </outline>
</glyph>
<glyph name="ccircumflex" format="1">
  <advance width="440"/>
  <unicode hex="0109"/>
  <outline>
    <contour>
      <point x="288" y="667" type="line"/>
      <point x="272" y="667" type="line"/>
      <point x="145" y="549" type="line"/>
      <point x="166" y="522" type="line"/>
      <point x="273" y="612" type="line"/>
      <point x="364" y="522" type="line"/>
      <point x="390" y="549" type="line"/>
    </contour>
    <contour>
      <point x="252" y="406" type="curve" smooth="yes"/>
      <point x="131" y="406"/>
      <point x="92" y="288"/>
      <point x="92" y="187" type="curve" smooth="yes"/>
      <point x="92" y="94"/>
      <point x="125" y="36"/>
      <point x="205" y="36" type="curve" smooth="yes"/>
      <point x="272" y="36"/>
      <point x="317" y="76"/>
      <point x="342" y="156" type="curve"/>
      <point x="385" y="145" type="line"/>
      <point x="365" y="68"/>
      <point x="310" y="-10"/>
      <point x="201" y="-10" type="curve" smooth="yes"/>
      <point x="96" y="-10"/>
      <point x="35" y="63"/>
      <point x="35" y="183" type="curve" smooth="yes"/>
      <point x="35" y="299"/>
      <point x="92" y="453"/>
      <point x="249" y="453" type="curve"/>
      <point x="310" y="453"/>
      <point x="349" y="438"/>
      <point x="388" y="405" type="curve"/>
      <point x="394" y="306" type="line"/>
      <point x="347" y="300" type="line"/>
      <point x="338" y="375" type="line"/>
      <point x="312" y="398"/>
      <point x="283" y="406"/>
    </contour>
  </outline>
</glyph>
<glyph name="Dcroat" format="1">
  <advance width="690"/>
  <unicode hex="0110"/>
  <outline>
    <contour>
      <point x="51" y="362" type="line"/>
      <point x="135" y="362" type="line"/>
      <point x="160" y="600" type="line"/>
      <point x="77" y="600" type="line"/>
      <point x="82" y="650" type="line"/>
      <point x="363" y="650" type="line" smooth="yes"/>
      <point x="552" y="650"/>
      <point x="654" y="529"/>
      <point x="654" y="360" type="curve" smooth="yes"/>
      <point x="654" y="156"/>
      <point x="514" y="0"/>
      <point x="297" y="0" type="curve" smooth="yes"/>
      <point x="14" y="0" type="line"/>
      <point x="20" y="50" type="line"/>
      <point x="102" y="50" type="line"/>
      <point x="130" y="316" type="line"/>
      <point x="46" y="316" type="line"/>
    </contour>
    <contour>
      <point x="300" y="50" type="line" smooth="yes"/>
      <point x="482" y="50"/>
      <point x="596" y="180"/>
      <point x="596" y="356" type="curve" smooth="yes"/>
      <point x="596" y="500"/>
      <point x="513" y="600"/>
      <point x="357" y="600" type="curve" smooth="yes"/>
      <point x="214" y="600" type="line"/>
      <point x="189" y="362" type="line"/>
      <point x="322" y="362" type="line"/>
      <point x="317" y="316" type="line"/>
      <point x="184" y="316" type="line"/>
      <point x="156" y="50" type="line"/>
    </contour>
  </outline>
</glyph>
<glyph name="Ebreve" format="1">
  <advance width="574"/>
  <unicode hex="0114"/>
  <outline>
    <contour>
      <point x="440" y="812" type="curve"/>
      <point x="486" y="812" type="line"/>
      <point x="478" y="732"/>
      <point x="433" y="700"/>
      <point x="359" y="700" type="curve" smooth="yes"/>
      <point x="286" y="700"/>
      <point x="248" y="733"/>
      <point x="256" y="812" type="curve"/>
      <point x="302" y="812" type="line"/>
      <point x="296" y="755"/>
      <point x="319" y="740"/>
      <point x="363" y="740" type="curve" smooth="yes"/>
      <point x="411" y="740"/>
      <point x="434" y="758"/>
    </contour>
    <contour>
      <point x="477" y="0" type="line"/>
      <point x="13" y="0" type="line"/>
      <point x="18" y="51" type="line"/>
      <point x="101" y="51" type="line"/>
      <point x="159" y="599" type="line"/>
      <point x="76" y="599" type="line"/>
      <point x="81" y="650" type="line"/>
      <point x="541" y="650" type="line"/>
      <point x="541" y="468" type="line"/>
      <point x="491" y="462" type="line"/>
      <point x="486" y="599" type="line"/>
      <point x="215" y="599" type="line"/>
      <point x="188" y="356" type="line"/>
      <point x="498" y="356" type="line"/>
      <point x="493" y="305" type="line"/>
      <point x="183" y="305" type="line"/>
      <point x="156" y="51" type="line"/>
      <point x="432" y="51" type="line"/>
      <point x="466" y="188" type="line"/>
      <point x="514" y="183" type="line"/>
    </contour>
  </outline>
</glyph>
<glyph name="ebreve" format="1">
  <advance width="435"/>
  <unicode hex="0115"/>
  <outline>
    <contour>
      <point x="209" y="36" type="curve" smooth="yes"/>
      <point x="269" y="36"/>
      <point x="315" y="67"/>
      <point x="339" y="130" type="curve"/>
      <point x="382" y="119" type="line"/>
      <point x="362" y="47"/>
      <point x="299" y="-10"/>
      <point x="200" y="-10" type="curve" smooth="yes"/>
      <point x="92" y="-10"/>
      <point x="35" y="60"/>
      <point x="35" y="181" type="curve" smooth="yes"/>
      <point x="35" y="335"/>
      <point x="124" y="453"/>
      <point x="255" y="453" type="curve" smooth="yes"/>
      <point x="330" y="453"/>
      <point x="393" y="412"/>
      <point x="393" y="345" type="curve" smooth="yes"/>
      <point x="393" y="279"/>
      <point x="347" y="233"/>
      <point x="235" y="209" type="curve" smooth="yes"/>
      <point x="191" y="200"/>
      <point x="141" y="190"/>
      <point x="92" y="183" type="curve"/>
      <point x="92" y="92"/>
      <point x="124" y="36"/>
    </contour>
    <contour>
      <point x="215" y="245" type="curve" smooth="yes"/>
      <point x="322" y="270"/>
      <point x="335" y="306"/>
      <point x="335" y="340" type="curve" smooth="yes"/>
      <point x="335" y="387"/>
      <point x="302" y="406"/>
      <point x="251" y="406" type="curve" smooth="yes"/>
      <point x="147" y="406"/>
      <point x="104" y="315"/>
      <point x="94" y="225" type="curve"/>
      <point x="148" y="232"/>
      <point x="186" y="239"/>
    </contour>
    <contour>
      <point x="343" y="655" type="curve"/>
      <point x="390" y="655" type="line"/>
      <point x="381" y="576"/>
      <point x="338" y="537"/>
      <point x="262" y="537" type="curve" smooth="yes"/>
      <point x="188" y="537"/>
      <point x="151" y="577"/>
      <point x="159" y="655" type="curve"/>
      <point x="206" y="655" type="line"/>
      <point x="199" y="597"/>
      <point x="222" y="577"/>
      <point x="267" y="577" type="curve" smooth="yes"/>
      <point x="314" y="577"/>
      <point x="338" y="600"/>
    </contour>
  </outline>
</glyph>
<glyph name="gcircumflex" format="1">
  <advance width="510"/>
  <unicode hex="011D"/>
  <outline>
    <contour>
      <point x="396" y="444" type="line"/>
      <point x="514" y="444" type="line"/>
      <point x="511" y="413" type="line"/>
      <point x="492" y="397" type="line"/>
      <point x="435" y="397" type="line"/>
      <point x="387" y="2" type="line" smooth="yes"/>
      <point x="370" y="-133"/>
      <point x="306" y="-223"/>
      <point x="179" y="-223" type="curve" smooth="yes"/>
      <point x="88" y="-223"/>
      <point x="19" y="-176"/>
      <point x="9" y="-92" type="curve"/>
      <point x="51" y="-73" type="line"/>
      <point x="62" y="-146"/>
      <point x="123" y="-174"/>
      <point x="183" y="-174" type="curve" smooth="yes"/>
      <point x="268" y="-174"/>
      <point x="320" y="-113"/>
      <point x="334" y="5" type="curve" smooth="yes"/>
      <point x="344" y="87" type="line"/>
      <point x="312" y="35"/>
      <point x="263" y="-10"/>
      <point x="186" y="-10" type="curve" smooth="yes"/>
      <point x="89" y="-10"/>
      <point x="35" y="61"/>
      <point x="35" y="174" type="curve" smooth="yes"/>
      <point x="35" y="290"/>
      <point x="91" y="453"/>
      <point x="247" y="453" type="curve" smooth="yes"/>
      <point x="311" y="453"/>
      <point x="361" y="424"/>
      <point x="381" y="372" type="curve"/>
    </contour>
    <contour>
      <point x="249" y="406" type="curve" smooth="yes"/>
      <point x="131" y="406"/>
      <point x="92" y="277"/>
      <point x="92" y="182" type="curve" smooth="yes"/>
      <point x="92" y="88"/>
      <point x="128" y="36"/>
      <point x="197" y="36" type="curve" smooth="yes"/>
      <point x="282" y="36"/>
      <point x="341" y="119"/>
      <point x="355" y="182" type="curve"/>
      <point x="368" y="284" type="line"/>
      <point x="368" y="351"/>
      <point x="324" y="406"/>
    </contour>
    <contour>
      <point x="305" y="667" type="line"/>
      <point x="289" y="667" type="line"/>
      <point x="162" y="549" type="line"/>
      <point x="183" y="522" type="line"/>
      <point x="290" y="612" type="line"/>
      <point x="381" y="522" type="line"/>
      <point x="407" y="549" type="line"/>
    </contour>
  </outline>
</glyph>
<glyph name="Hcircumflex" format="1">
  <advance width="732"/>
  <unicode hex="0124"/>
  <outline>
    <contour>
      <point x="19" y="51" type="line"/>
      <point x="101" y="51" type="line"/>
      <point x="158" y="599" type="line"/>
      <point x="76" y="599" type="line"/>
      <point x="82" y="650" type="line"/>
      <point x="302" y="650" type="line"/>
      <point x="296" y="599" type="line"/>
      <point x="213" y="599" type="line"/>
      <point x="188" y="356" type="line"/>
      <point x="562" y="356" type="line"/>
      <point x="587" y="599" type="line"/>
      <point x="505" y="599" type="line"/>
      <point x="511" y="650" type="line"/>
      <point x="731" y="650" type="line"/>
      <point x="725" y="599" type="line"/>
      <point x="642" y="599" type="line"/>
      <point x="585" y="51" type="line"/>
      <point x="668" y="51" type="line"/>
      <point x="663" y="0" type="line"/>
      <point x="443" y="0" type="line"/>
      <point x="448" y="51" type="line"/>
      <point x="530" y="51" type="line"/>
      <point x="557" y="307" type="line"/>
      <point x="183" y="307" type="line"/>
      <point x="156" y="51" type="line"/>
      <point x="239" y="51" type="line"/>
      <point x="234" y="0" type="line"/>
      <point x="14" y="0" type="line"/>
    </contour>
    <contour>
      <point x="436" y="820" type="line"/>
      <point x="421" y="820" type="line"/>
      <point x="288" y="732" type="line"/>
      <point x="304" y="705" type="line"/>
      <point x="422" y="769" type="line"/>
      <point x="529" y="706" type="line"/>
      <point x="547" y="736" type="line"/>
    </contour>
  </outline>
</glyph>
<glyph name="Itilde" format="1">
  <advance width="303"/>
  <unicode hex="0128"/>
  <outline>
    <contour>
      <point x="18" y="51" type="line"/>
      <point x="101" y="51" type="line"/>
      <point x="158" y="599" type="line"/>
      <point x="75" y="599" type="line"/>
      <point x="81" y="650" type="line"/>
      <point x="301" y="650" type="line"/>
      <point x="296" y="599" type="line"/>
      <point x="212" y="599" type="line"/>
      <point x="155" y="51" type="line"/>
      <point x="239" y="51" type="line"/>
      <point x="233" y="0" type="line"/>
      <point x="13" y="0" type="line"/>
    </contour>
    <contour>
      <point x="94" y="707" type="line"/>
      <point x="109" y="740"/>
      <point x="133" y="748"/>
      <point x="150" y="748" type="curve" smooth="yes"/>
      <point x="187" y="748"/>
      <point x="217" y="712"/>
      <point x="266" y="712" type="curve" smooth="yes"/>
      <point x="306" y="712"/>
      <point x="332" y="739"/>
      <point x="349" y="792" type="curve"/>
      <point x="319" y="800" type="line"/>
      <point x="304" y="762"/>
      <point x="286" y="757"/>
      <point x="269" y="757" type="curve" smooth="yes"/>
      <point x="219" y="757"/>
      <point x="198" y="793"/>
      <point x="154" y="793" type="curve" smooth="yes"/>
      <point x="109" y="793"/>
      <point x="78" y="752"/>
      <point x="67" y="719" type="curve"/>
    </contour>
  </outline>
</glyph>
<glyph name="itilde" format="1">
  <advance width="250"/>
  <unicode hex="0129"/>
  <outline>
    <contour>
      <point x="37" y="426" type="line"/>
      <point x="56" y="444" type="line"/>
      <point x="173" y="444" type="line"/>
      <point x="124" y="46" type="line"/>
      <point x="204" y="46" type="line"/>
      <point x="200" y="15" type="line"/>
      <point x="181" y="0" type="line"/>
      <point x="66" y="0" type="line"/>
      <point x="114" y="397" type="line"/>
      <point x="33" y="397" type="line"/>
    </contour>
    <contour>
      <point x="35" y="558" type="line"/>
      <point x="49" y="591"/>
      <point x="73" y="601"/>
      <point x="91" y="601" type="curve" smooth="yes"/>
      <point x="126" y="601"/>
      <point x="155" y="563"/>
      <point x="206" y="563" type="curve" smooth="yes"/>
      <point x="247" y="563"/>
      <point x="271" y="593"/>
      <point x="289" y="646" type="curve"/>
      <point x="258" y="654" type="line"/>
      <point x="245" y="616"/>
      <point x="227" y="611"/>
      <point x="209" y="611" type="curve" smooth="yes"/>
      <point x="158" y="611"/>
      <point x="138" y="648"/>
      <point x="95" y="648" type="curve" smooth="yes"/>
      <point x="50" y="648"/>
      <point x="17" y="603"/>
      <point x="7" y="569" type="curve"/>
    </contour>
  </outline>
</glyph>
<glyph name="Ibreve" format="1">
  <advance width="303"/>
  <unicode hex="012C"/>
  <outline>
    <contour>
      <point x="18" y="51" type="line"/>
      <point x="101" y="51" type="line"/>
      <point x="158" y="599" type="line"/>
      <point x="75" y="599" type="line"/>
      <point x="81" y="650" type="line"/>
      <point x="301" y="650" type="line"/>
      <point x="296" y="599" type="line"/>
      <point x="212" y="599" type="line"/>
      <point x="155" y="51" type="line"/>
      <point x="239" y="51" type="line"/>
      <point x="233" y="0" type="line"/>
      <point x="13" y="0" type="line"/>
    </contour>
    <contour>
      <point x="273" y="812" type="curve"/>
      <point x="319" y="812" type="line"/>
      <point x="311" y="732"/>
      <point x="266" y="700"/>
      <point x="192" y="700" type="curve" smooth="yes"/>
      <point x="119" y="700"/>
      <point x="81" y="733"/>
      <point x="89" y="812" type="curve"/>
      <point x="135" y="812" type="line"/>
      <point x="129" y="755"/>
      <point x="152" y="740"/>
      <point x="196" y="740" type="curve" smooth="yes"/>
      <point x="244" y="740"/>
      <point x="267" y="758"/>
    </contour>
  </outline>
</glyph>
<glyph name="iogonek" format="1">
  <advance width="251"/>
  <unicode hex="012F"/>
  <outline>
    <contour>
      <point x="192" y="-189" type="line"/>
      <point x="169" y="-201"/>
      <point x="143" y="-209"/>
      <point x="115" y="-209" type="curve" smooth="yes"/>
      <point x="58" y="-209"/>
      <point x="25" y="-178"/>
      <point x="25" y="-126" type="curve" smooth="yes"/>
      <point x="25" y="-73"/>
      <point x="62" y="-27"/>
      <point x="109" y="0" type="curve"/>
      <point x="66" y="0" type="line"/>
      <point x="114" y="397" type="line"/>
      <point x="33" y="397" type="line"/>
      <point x="37" y="426" type="line"/>
      <point x="56" y="444" type="line"/>
      <point x="173" y="444" type="line"/>
      <point x="124" y="46" type="line"/>
      <point x="204" y="46" type="line"/>
      <point x="200" y="15" type="line"/>
      <point x="181" y="0" type="line"/>
      <point x="156" y="0" type="line"/>
      <point x="95" y="-34"/>
      <point x="75" y="-77"/>
      <point x="75" y="-113" type="curve" smooth="yes"/>
      <point x="75" y="-152"/>
      <point x="96" y="-165"/>
      <point x="131" y="-165" type="curve" smooth="yes"/>
      <point x="149" y="-165"/>
      <point x="166" y="-161"/>
      <point x="188" y="-149" type="curve"/>
    </contour>
    <contour>
      <point x="129" y="568" type="line"/>
      <point x="190" y="568" type="line"/>
      <point x="198" y="647" type="line"/>
      <point x="137" y="647" type="line"/>
    </contour>
  </outline>
</glyph>
<glyph name="ij" format="1">
  <advance width="492"/>
  <unicode hex="0133"/>
  <outline>
    <contour>
      <point x="274" y="426" type="line"/>
      <point x="293" y="444" type="line"/>
      <point x="435" y="444" type="line"/>
      <point x="377" y="-27" type="line" smooth="yes"/>
      <point x="361" y="-155"/>
      <point x="313" y="-218"/>
      <point x="246" y="-223" type="curve"/>
      <point x="220" y="-224"/>
      <point x="195" y="-218"/>
      <point x="172" y="-208" type="curve"/>
      <point x="175" y="-166" type="line"/>
      <point x="244" y="-195"/>
      <point x="306" y="-171"/>
      <point x="324" y="-27" type="curve" smooth="yes"/>
      <point x="376" y="397" type="line"/>
      <point x="270" y="397" type="line"/>
    </contour>
    <contour>
      <point x="37" y="426" type="line"/>
      <point x="56" y="444" type="line"/>
      <point x="173" y="444" type="line"/>
      <point x="124" y="46" type="line"/>
      <point x="204" y="46" type="line"/>
      <point x="200" y="15" type="line"/>
      <point x="181" y="0" type="line"/>
      <point x="66" y="0" type="line"/>
      <point x="114" y="397" type="line"/>
      <point x="33" y="397" type="line"/>
    </contour>
    <contour>
      <point x="129" y="568" type="line"/>
      <point x="190" y="568" type="line"/>
      <point x="198" y="647" type="line"/>
      <point x="137" y="647" type="line"/>
    </contour>
    <contour>
      <point x="384" y="568" type="line"/>
      <point x="445" y="568" type="line"/>
      <point x="453" y="647" type="line"/>
      <point x="392" y="647" type="line"/>
    </contour>
  </outline>
</glyph>
<glyph name="jcircumflex" format="1">
  <advance width="243"/>
  <unicode hex="0135"/>
  <outline>
    <contour>
      <point x="25" y="426" type="line"/>
      <point x="43" y="444" type="line"/>
      <point x="185" y="444" type="line"/>
      <point x="128" y="-27" type="line" smooth="yes"/>
      <point x="112" y="-157"/>
      <point x="62" y="-220"/>
      <point x="-7" y="-223" type="curve" smooth="yes"/>
      <point x="-31" y="-224"/>
      <point x="-55" y="-218"/>
      <point x="-77" y="-208" type="curve"/>
      <point x="-74" y="-166" type="line"/>
      <point x="-6" y="-195"/>
      <point x="57" y="-171"/>
      <point x="75" y="-27" type="curve" smooth="yes"/>
      <point x="127" y="397" type="line"/>
      <point x="21" y="397" type="line"/>
    </contour>
    <contour>
      <point x="161" y="667" type="line"/>
      <point x="145" y="667" type="line"/>
      <point x="18" y="549" type="line"/>
      <point x="39" y="522" type="line"/>
      <point x="146" y="612" type="line"/>
      <point x="237" y="522" type="line"/>
      <point x="263" y="549" type="line"/>
    </contour>
  </outline>
</glyph>
<glyph name="kcommaaccent" format="1">
  <advance width="440"/>
  <unicode hex="0137"/>
  <outline>
    <contour>
      <point x="47" y="671" type="line"/>
      <point x="66" y="688" type="line"/>
      <point x="182" y="688" type="line"/>
      <point x="129" y="254" type="line"/>
      <point x="216" y="254" type="line"/>
      <point x="281" y="306"/>
      <point x="324" y="369"/>
      <point x="329" y="444" type="curve"/>
      <point x="387" y="444" type="line"/>
      <point x="379" y="360"/>
      <point x="326" y="288"/>
      <point x="249" y="235" type="curve"/>
      <point x="352" y="46" type="line"/>
      <point x="413" y="46" type="line"/>
      <point x="409" y="15" type="line"/>
      <point x="390" y="0" type="line"/>
      <point x="319" y="0" type="line"/>
      <point x="207" y="210" type="line"/>
      <point x="123" y="210" type="line"/>
      <point x="98" y="0" type="line"/>
      <point x="45" y="0" type="line"/>
      <point x="123" y="642" type="line"/>
      <point x="43" y="642" type="line"/>
    </contour>
    <contour>
      <point x="224" y="-66" type="line"/>
      <point x="172" y="-66" type="line"/>
      <point x="147" y="-219" type="line"/>
      <point x="192" y="-219" type="line"/>
    </contour>
  </outline>
</glyph>
<glyph name="Lacute" format="1">
  <advance width="526"/>
  <unicode hex="0139"/>
  <outline>
    <contour>
      <point x="335" y="753" type="line"/>
      <point x="321" y="808" type="line"/>
      <point x="130" y="739" type="line"/>
      <point x="138" y="707" type="line"/>
    </contour>
    <contour>
      <point x="464" y="0" type="line"/>
      <point x="504" y="202" type="line"/>
      <point x="454" y="206" type="line"/>
      <point x="418" y="51" type="line"/>
      <point x="156" y="51" type="line"/>
      <point x="214" y="599" type="line"/>
      <point x="325" y="599" type="line"/>
      <point x="330" y="650" type="line"/>
      <point x="81" y="650" type="line"/>
      <point x="76" y="599" type="line"/>
      <point x="159" y="599" type="line"/>
      <point x="101" y="51" type="line"/>
      <point x="18" y="51" type="line"/>
      <point x="13" y="0" type="line"/>
    </contour>
  </outline>
</glyph>
<glyph name="Lcommaaccent" format="1">
  <advance width="526"/>
  <unicode hex="013B"/>
  <outline>
    <contour>
      <point x="279" y="-66" type="line"/>
      <point x="227" y="-66" type="line"/>
      <point x="202" y="-219" type="line"/>
      <point x="247" y="-219" type="line"/>
    </contour>
    <contour>
      <point x="464" y="0" type="line"/>
      <point x="504" y="202" type="line"/>
      <point x="454" y="206" type="line"/>
      <point x="418" y="51" type="line"/>
      <point x="156" y="51" type="line"/>
      <point x="214" y="599" type="line"/>
      <point x="325" y="599" type="line"/>
      <point x="330" y="650" type="line"/>
      <point x="81" y="650" type="line"/>
      <point x="76" y="599" type="line"/>
      <point x="159" y="599" type="line"/>
      <point x="101" y="51" type="line"/>
      <point x="18" y="51" type="line"/>
      <point x="13" y="0" type="line"/>
    </contour>
  </outline>
</glyph>
<glyph name="lcommaaccent" format="1">
  <advance width="234"/>
  <unicode hex="013C"/>
  <outline>
    <contour>
      <point x="53" y="671" type="line"/>
      <point x="71" y="688" type="line"/>
      <point x="189" y="688" type="line"/>
      <point x="110" y="46" type="line"/>
      <point x="189" y="46" type="line"/>
      <point x="185" y="15" type="line"/>
      <point x="167" y="0" type="line"/>
      <point x="52" y="0" type="line"/>
      <point x="130" y="642" type="line"/>
      <point x="49" y="642" type="line"/>
    </contour>
    <contour>
      <point x="132" y="-66" type="line"/>
      <point x="80" y="-66" type="line"/>
      <point x="55" y="-219" type="line"/>
      <point x="100" y="-219" type="line"/>
    </contour>
  </outline>
</glyph>
<glyph name="Lcaron" format="1">
  <advance width="525"/>
  <unicode hex="013D"/>
  <outline>
    <contour>
      <point x="443" y="681" type="line"/>
      <point x="392" y="681" type="line"/>
      <point x="356" y="457" type="line"/>
      <point x="401" y="457" type="line"/>
    </contour>
    <contour>
      <point x="464" y="0" type="line"/>
      <point x="504" y="202" type="line"/>
      <point x="454" y="206" type="line"/>
      <point x="418" y="51" type="line"/>
      <point x="156" y="51" type="line"/>
      <point x="214" y="599" type="line"/>
      <point x="325" y="599" type="line"/>
      <point x="330" y="650" type="line"/>
      <point x="81" y="650" type="line"/>
      <point x="76" y="599" type="line"/>
      <point x="159" y="599" type="line"/>
      <point x="101" y="51" type="line"/>
      <point x="18" y="51" type="line"/>
      <point x="13" y="0" type="line"/>
    </contour>
  </outline>
</glyph>
<glyph name="lcaron" format="1">
  <advance width="246"/>
  <unicode hex="013E"/>
  <outline>
    <contour>
      <point x="53" y="671" type="line"/>
      <point x="71" y="688" type="line"/>
      <point x="189" y="688" type="line"/>
      <point x="110" y="46" type="line"/>
      <point x="189" y="46" type="line"/>
      <point x="185" y="15" type="line"/>
      <point x="167" y="0" type="line"/>
      <point x="52" y="0" type="line"/>
      <point x="130" y="642" type="line"/>
      <point x="49" y="642" type="line"/>
    </contour>
    <contour>
      <point x="327" y="681" type="line"/>
      <point x="276" y="681" type="line"/>
      <point x="240" y="457" type="line"/>
      <point x="285" y="457" type="line"/>
    </contour>
  </outline>
</glyph>
<glyph name="Ldot" format="1">
  <advance width="526"/>
  <unicode hex="013F"/>
  <outline>
    <contour>
      <point x="464" y="0" type="line"/>
      <point x="504" y="202" type="line"/>
      <point x="454" y="206" type="line"/>
      <point x="418" y="51" type="line"/>
      <point x="156" y="51" type="line"/>
      <point x="214" y="599" type="line"/>
      <point x="325" y="599" type="line"/>
      <point x="330" y="650" type="line"/>
      <point x="81" y="650" type="line"/>
      <point x="76" y="599" type="line"/>
      <point x="159" y="599" type="line"/>
      <point x="101" y="51" type="line"/>
      <point x="18" y="51" type="line"/>
      <point x="13" y="0" type="line"/>
    </contour>
    <contour>
      <point x="326" y="299" type="line"/>
      <point x="386" y="299" type="line"/>
      <point x="394" y="378" type="line"/>
      <point x="334" y="378" type="line"/>
    </contour>
  </outline>
</glyph>
<glyph name="ldot" format="1">
  <advance width="262"/>
  <unicode hex="0140"/>
  <outline>
    <contour>
      <point x="53" y="671" type="line"/>
      <point x="71" y="688" type="line"/>
      <point x="189" y="688" type="line"/>
      <point x="110" y="46" type="line"/>
      <point x="189" y="46" type="line"/>
      <point x="185" y="15" type="line"/>
      <point x="167" y="0" type="line"/>
      <point x="52" y="0" type="line"/>
      <point x="130" y="642" type="line"/>
      <point x="49" y="642" type="line"/>
    </contour>
    <contour>
      <point x="216" y="299" type="line"/>
      <point x="276" y="299" type="line"/>
      <point x="284" y="378" type="line"/>
      <point x="224" y="378" type="line"/>
    </contour>
  </outline>
</glyph>
<glyph name="Nacute" format="1">
  <advance width="710"/>
  <unicode hex="0143"/>
  <outline>
    <contour>
      <point x="25" y="51" type="line"/>
      <point x="101" y="51" type="line"/>
      <point x="158" y="599" type="line"/>
      <point x="74" y="599" type="line"/>
      <point x="79" y="650" type="line"/>
      <point x="204" y="650" type="line"/>
      <point x="521" y="117" type="line"/>
      <point x="524" y="117" type="line"/>
      <point x="574" y="599" type="line"/>
      <point x="479" y="599" type="line"/>
      <point x="484" y="650" type="line"/>
      <point x="716" y="650" type="line"/>
      <point x="711" y="599" type="line"/>
      <point x="628" y="599" type="line"/>
      <point x="566" y="0" type="line"/>
      <point x="528" y="0" type="line"/>
      <point x="208" y="539" type="line"/>
      <point x="205" y="539" type="line"/>
      <point x="153" y="51" type="line"/>
      <point x="259" y="51" type="line"/>
      <point x="254" y="0" type="line"/>
      <point x="20" y="0" type="line"/>
    </contour>
    <contour>
      <point x="548" y="753" type="line"/>
      <point x="534" y="808" type="line"/>
      <point x="343" y="739" type="line"/>
      <point x="351" y="707" type="line"/>
    </contour>
  </outline>
</glyph>
<glyph name="Eng" format="1">
  <advance width="709"/>
  <unicode hex="014A"/>
  <outline>
    <contour>
      <point x="253" y="0" type="line"/>
      <point x="19" y="0" type="line"/>
      <point x="24" y="51" type="line"/>
      <point x="100" y="51" type="line"/>
      <point x="157" y="599" type="line"/>
      <point x="73" y="599" type="line"/>
      <point x="78" y="650" type="line"/>
      <point x="203" y="650" type="line"/>
      <point x="520" y="117" type="line"/>
      <point x="523" y="117" type="line"/>
      <point x="573" y="599" type="line"/>
      <point x="478" y="599" type="line"/>
      <point x="483" y="650" type="line"/>
      <point x="715" y="650" type="line"/>
      <point x="710" y="599" type="line"/>
      <point x="627" y="599" type="line"/>
      <point x="563" y="-23" type="line" smooth="yes"/>
      <point x="553" y="-135"/>
      <point x="488" y="-195"/>
      <point x="388" y="-195" type="curve" smooth="yes"/>
      <point x="310" y="-195"/>
      <point x="268" y="-160"/>
      <point x="247" y="-102" type="curve"/>
      <point x="291" y="-71" type="line"/>
      <point x="315" y="-123"/>
      <point x="342" y="-141"/>
      <point x="389" y="-141" type="curve" smooth="yes"/>
      <point x="465" y="-141"/>
      <point x="502" y="-91"/>
      <point x="507" y="-24" type="curve" smooth="yes"/>
      <point x="511" y="26" type="line"/>
      <point x="207" y="539" type="line"/>
      <point x="204" y="539" type="line"/>
      <point x="152" y="51" type="line"/>
      <point x="258" y="51" type="line"/>
    </contour>
  </outline>
</glyph>
<glyph name="eng" format="1">
  <advance width="506"/>
  <unicode hex="014B"/>
  <outline>
    <contour>
      <point x="399" y="-32" type="line"/>
      <point x="382" y="-164"/>
      <point x="331" y="-222"/>
      <point x="261" y="-223" type="curve" smooth="yes"/>
      <point x="237" y="-223"/>
      <point x="215" y="-217"/>
      <point x="194" y="-208" type="curve"/>
      <point x="197" y="-166" type="line"/>
      <point x="265" y="-195"/>
      <point x="327" y="-176"/>
      <point x="345" y="-32" type="curve" smooth="yes"/>
      <point x="382" y="267" type="line" smooth="yes"/>
      <point x="394" y="368"/>
      <point x="358" y="406"/>
      <point x="290" y="406" type="curve" smooth="yes"/>
      <point x="210" y="406"/>
      <point x="159" y="335"/>
      <point x="149" y="268" type="curve" smooth="yes"/>
      <point x="148" y="262" type="line"/>
      <point x="116" y="0" type="line"/>
      <point x="64" y="0" type="line"/>
      <point x="112" y="397" type="line"/>
      <point x="30" y="397" type="line"/>
      <point x="34" y="426" type="line"/>
      <point x="53" y="444" type="line"/>
      <point x="161" y="444" type="line"/>
      <point x="157" y="357" type="line"/>
      <point x="190" y="415"/>
      <point x="239" y="453"/>
      <point x="310" y="453" type="curve" smooth="yes"/>
      <point x="396" y="453"/>
      <point x="451" y="401"/>
      <point x="436" y="280" type="curve" smooth="yes"/>
    </contour>
  </outline>
</glyph>
<glyph name="Omacron" format="1">
  <advance width="716"/>
  <unicode hex="014C"/>
  <outline>
    <contour>
      <point x="283" y="782" type="line"/>
      <point x="548" y="782" type="line"/>
      <point x="543" y="736" type="line"/>
      <point x="278" y="736" type="line"/>
    </contour>
    <contour>
      <point x="396" y="660" type="curve" smooth="yes"/>
      <point x="198" y="660"/>
      <point x="46" y="494"/>
      <point x="46" y="291" type="curve" smooth="yes"/>
      <point x="46" y="125"/>
      <point x="154" y="-10"/>
      <point x="329" y="-10" type="curve" smooth="yes"/>
      <point x="532" y="-10"/>
      <point x="681" y="158"/>
      <point x="681" y="359" type="curve" smooth="yes"/>
      <point x="681" y="526"/>
      <point x="571" y="660"/>
    </contour>
    <contour>
      <point x="337" y="42" type="curve" smooth="yes"/>
      <point x="181" y="42"/>
      <point x="105" y="158"/>
      <point x="105" y="296" type="curve" smooth="yes"/>
      <point x="105" y="465"/>
      <point x="222" y="608"/>
      <point x="390" y="608" type="curve" smooth="yes"/>
      <point x="539" y="608"/>
      <point x="622" y="499"/>
      <point x="622" y="355" type="curve" smooth="yes"/>
      <point x="622" y="188"/>
      <point x="509" y="42"/>
    </contour>
  </outline>
</glyph>
<glyph name="OE" format="1">
  <advance width="980"/>
  <unicode hex="0152"/>
  <outline>
    <contour>
      <point x="882" y="0" type="line"/>
      <point x="919" y="183" type="line"/>
      <point x="871" y="188" type="line"/>
      <point x="837" y="51" type="line"/>
      <point x="561" y="51" type="line"/>
      <point x="588" y="305" type="line"/>
      <point x="898" y="305" type="line"/>
      <point x="903" y="356" type="line"/>
      <point x="593" y="356" type="line"/>
      <point x="620" y="599" type="line"/>
      <point x="891" y="599" type="line"/>
      <point x="896" y="462" type="line"/>
      <point x="946" y="468" type="line"/>
      <point x="946" y="650" type="line"/>
      <point x="569" y="650" type="line"/>
      <point x="564" y="608" type="line"/>
      <point x="519" y="640"/>
      <point x="466" y="660"/>
      <point x="399" y="660" type="curve" smooth="yes"/>
      <point x="193" y="660"/>
      <point x="46" y="499"/>
      <point x="46" y="298" type="curve" smooth="yes"/>
      <point x="46" y="129"/>
      <point x="156" y="-10"/>
      <point x="331" y="-10" type="curve" smooth="yes"/>
      <point x="397" y="-10"/>
      <point x="455" y="9"/>
      <point x="505" y="40" type="curve"/>
      <point x="501" y="0" type="line"/>
    </contour>
    <contour>
      <point x="339" y="42" type="curve" smooth="yes"/>
      <point x="187" y="42"/>
      <point x="105" y="160"/>
      <point x="105" y="301" type="curve" smooth="yes"/>
      <point x="105" y="468"/>
      <point x="217" y="608"/>
      <point x="395" y="608" type="curve" smooth="yes"/>
      <point x="462" y="608"/>
      <point x="517" y="587"/>
      <point x="558" y="547" type="curve"/>
      <point x="512" y="103" type="line"/>
      <point x="467" y="65"/>
      <point x="406" y="42"/>
    </contour>
  </outline>
</glyph>
<glyph name="Racute" format="1">
  <advance width="594"/>
  <unicode hex="0154"/>
  <outline>
    <contour>
      <point x="19" y="51" type="line"/>
      <point x="101" y="51" type="line"/>
      <point x="158" y="599" type="line"/>
      <point x="76" y="599" type="line"/>
      <point x="82" y="650" type="line"/>
      <point x="343" y="650" type="line" smooth="yes"/>
      <point x="486" y="650"/>
      <point x="547" y="578"/>
      <point x="547" y="489" type="curve" smooth="yes"/>
      <point x="547" y="389"/>
      <point x="495" y="314"/>
      <point x="385" y="290" type="curve"/>
      <point x="481" y="51" type="line"/>
      <point x="563" y="51" type="line"/>
      <point x="557" y="0" type="line"/>
      <point x="440" y="0" type="line"/>
      <point x="331" y="279" type="line"/>
      <point x="180" y="279" type="line"/>
      <point x="156" y="51" type="line"/>
      <point x="246" y="51" type="line"/>
      <point x="241" y="0" type="line"/>
      <point x="14" y="0" type="line"/>
    </contour>
    <contour>
      <point x="315" y="327" type="line" smooth="yes"/>
      <point x="438" y="327"/>
      <point x="489" y="396"/>
      <point x="489" y="484" type="curve" smooth="yes"/>
      <point x="489" y="561"/>
      <point x="436" y="599"/>
      <point x="332" y="599" type="curve" smooth="yes"/>
      <point x="213" y="599" type="line"/>
      <point x="185" y="327" type="line"/>
    </contour>
    <contour>
      <point x="485" y="753" type="line"/>
      <point x="471" y="808" type="line"/>
      <point x="280" y="739" type="line"/>
      <point x="288" y="707" type="line"/>
    </contour>
  </outline>
</glyph>
<glyph name="Rcaron" format="1">
  <advance width="594"/>
  <unicode hex="0158"/>
  <outline>
    <contour>
      <point x="19" y="51" type="line"/>
      <point x="101" y="51" type="line"/>
      <point x="158" y="599" type="line"/>
      <point x="76" y="599" type="line"/>
      <point x="82" y="650" type="line"/>
      <point x="343" y="650" type="line" smooth="yes"/>
      <point x="486" y="650"/>
      <point x="547" y="578"/>
      <point x="547" y="489" type="curve" smooth="yes"/>
      <point x="547" y="389"/>
      <point x="495" y="314"/>
      <point x="385" y="290" type="curve"/>
      <point x="481" y="51" type="line"/>
      <point x="563" y="51" type="line"/>
      <point x="557" y="0" type="line"/>
      <point x="440" y="0" type="line"/>
      <point x="331" y="279" type="line"/>
      <point x="180" y="279" type="line"/>
      <point x="156" y="51" type="line"/>
      <point x="246" y="51" type="line"/>
      <point x="241" y="0" type="line"/>
      <point x="14" y="0" type="line"/>
    </contour>
    <contour>
      <point x="315" y="327" type="line" smooth="yes"/>
      <point x="438" y="327"/>
      <point x="489" y="396"/>
      <point x="489" y="484" type="curve" smooth="yes"/>
      <point x="489" y="561"/>
      <point x="436" y="599"/>
      <point x="332" y="599" type="curve" smooth="yes"/>
      <point x="213" y="599" type="line"/>
      <point x="185" y="327" type="line"/>
    </contour>
    <contour>
      <point x="321" y="705" type="line"/>
      <point x="336" y="705" type="line"/>
      <point x="468" y="792" type="line"/>
      <point x="453" y="820" type="line"/>
      <point x="334" y="755" type="line"/>
      <point x="228" y="818" type="line"/>
      <point x="209" y="789" type="line"/>
    </contour>
  </outline>
</glyph>
<glyph name="rcaron" format="1">
  <advance width="339"/>
  <unicode hex="0159"/>
  <outline>
    <contour>
      <point x="132" y="46" type="line"/>
      <point x="226" y="46" type="line"/>
      <point x="222" y="16" type="line"/>
      <point x="203" y="0" type="line"/>
      <point x="1" y="0" type="line"/>
      <point x="5" y="29" type="line"/>
      <point x="23" y="46" type="line"/>
      <point x="78" y="46" type="line"/>
      <point x="121" y="397" type="line"/>
      <point x="41" y="397" type="line"/>
      <point x="45" y="426" type="line"/>
      <point x="63" y="444" type="line"/>
      <point x="169" y="444" type="line"/>
      <point x="166" y="350" type="line"/>
      <point x="191" y="407"/>
      <point x="230" y="454"/>
      <point x="285" y="454" type="curve" smooth="yes"/>
      <point x="304" y="454"/>
      <point x="322" y="449"/>
      <point x="341" y="437" type="curve"/>
      <point x="330" y="382" type="line"/>
      <point x="310" y="393"/>
      <point x="293" y="397"/>
      <point x="276" y="397" type="curve" smooth="yes"/>
      <point x="219" y="397"/>
      <point x="176" y="330"/>
      <point x="160" y="264" type="curve"/>
      <point x="160" y="263" type="line"/>
    </contour>
    <contour>
      <point x="224" y="522" type="line"/>
      <point x="239" y="522" type="line"/>
      <point x="367" y="639" type="line"/>
      <point x="346" y="666" type="line"/>
      <point x="238" y="577" type="line"/>
      <point x="149" y="663" type="line"/>
      <point x="122" y="637" type="line"/>
    </contour>
  </outline>
</glyph>
<glyph name="Scedilla" format="1">
  <advance width="519"/>
  <unicode hex="015E"/>
  <outline>
    <contour>
      <point x="460" y="191" type="curve" smooth="yes"/>
      <point x="460" y="71"/>
      <point x="384" y="-2"/>
      <point x="248" y="-9" type="curve"/>
      <point x="244" y="-48" type="line"/>
      <point x="252" y="-48" type="line" smooth="yes"/>
      <point x="306" y="-48"/>
      <point x="331" y="-76"/>
      <point x="331" y="-120" type="curve" smooth="yes"/>
      <point x="331" y="-180"/>
      <point x="280" y="-209"/>
      <point x="221" y="-209" type="curve" smooth="yes"/>
      <point x="188" y="-209"/>
      <point x="157" y="-200"/>
      <point x="136" y="-179" type="curve"/>
      <point x="155" y="-146" type="line"/>
      <point x="170" y="-159"/>
      <point x="196" y="-169"/>
      <point x="224" y="-169" type="curve" smooth="yes"/>
      <point x="257" y="-169"/>
      <point x="283" y="-155"/>
      <point x="283" y="-119" type="curve" smooth="yes"/>
      <point x="283" y="-84"/>
      <point x="258" y="-79"/>
      <point x="226" y="-79" type="curve" smooth="yes"/>
      <point x="199" y="-79" type="line"/>
      <point x="206" y="-9" type="line"/>
      <point x="132" y="-6"/>
      <point x="60" y="13"/>
      <point x="26" y="39" type="curve"/>
      <point x="49" y="158" type="line"/>
      <point x="94" y="153" type="line"/>
      <point x="83" y="71" type="line"/>
      <point x="120" y="50"/>
      <point x="179" y="41"/>
      <point x="225" y="41" type="curve" smooth="yes"/>
      <point x="327" y="41"/>
      <point x="400" y="84"/>
      <point x="400" y="183" type="curve" smooth="yes"/>
      <point x="400" y="285"/>
      <point x="323" y="296"/>
      <point x="247" y="315" type="curve" smooth="yes"/>
      <point x="167" y="335"/>
      <point x="79" y="365"/>
      <point x="79" y="478" type="curve" smooth="yes"/>
      <point x="79" y="604"/>
      <point x="187" y="660"/>
      <point x="292" y="660" type="curve" smooth="yes"/>
      <point x="357" y="660"/>
      <point x="436" y="639"/>
      <point x="471" y="611" type="curve"/>
      <point x="464" y="485" type="line"/>
      <point x="417" y="480" type="line"/>
      <point x="417" y="583" type="line"/>
      <point x="377" y="604"/>
      <point x="330" y="609"/>
      <point x="298" y="609" type="curve" smooth="yes"/>
      <point x="198" y="609"/>
      <point x="137" y="561"/>
      <point x="137" y="481" type="curve" smooth="yes"/>
      <point x="137" y="401"/>
      <point x="197" y="385"/>
      <point x="273" y="366" type="curve" smooth="yes"/>
      <point x="376" y="340"/>
      <point x="460" y="318"/>
    </contour>
  </outline>
</glyph>
<glyph name="scedilla" format="1">
  <advance width="412"/>
  <unicode hex="015F"/>
  <outline>
    <contour>
      <point x="177" y="36" type="curve" smooth="yes"/>
      <point x="257" y="36"/>
      <point x="294" y="68"/>
      <point x="294" y="122" type="curve" smooth="yes"/>
      <point x="294" y="181"/>
      <point x="250" y="193"/>
      <point x="176" y="212" type="curve" smooth="yes"/>
      <point x="118" y="227"/>
      <point x="59" y="247"/>
      <point x="59" y="323" type="curve" smooth="yes"/>
      <point x="59" y="405"/>
      <point x="127" y="453"/>
      <point x="209" y="453" type="curve" smooth="yes"/>
      <point x="271" y="453"/>
      <point x="326" y="432"/>
      <point x="357" y="412" type="curve"/>
      <point x="356" y="310" type="line"/>
      <point x="312" y="304" type="line"/>
      <point x="308" y="379" type="line"/>
      <point x="282" y="394"/>
      <point x="256" y="406"/>
      <point x="216" y="406" type="curve" smooth="yes"/>
      <point x="148" y="406"/>
      <point x="115" y="375"/>
      <point x="115" y="329" type="curve" smooth="yes"/>
      <point x="115" y="286"/>
      <point x="143" y="270"/>
      <point x="210" y="253" type="curve" smooth="yes"/>
      <point x="271" y="237"/>
      <point x="350" y="219"/>
      <point x="350" y="128" type="curve" smooth="yes"/>
      <point x="350" y="47"/>
      <point x="289" y="-7"/>
      <point x="195" y="-10" type="curve"/>
      <point x="191" y="-48" type="line"/>
      <point x="199" y="-48" type="line" smooth="yes"/>
      <point x="253" y="-48"/>
      <point x="278" y="-76"/>
      <point x="278" y="-120" type="curve" smooth="yes"/>
      <point x="278" y="-180"/>
      <point x="227" y="-209"/>
      <point x="168" y="-209" type="curve" smooth="yes"/>
      <point x="135" y="-209"/>
      <point x="104" y="-200"/>
      <point x="83" y="-179" type="curve"/>
      <point x="102" y="-146" type="line"/>
      <point x="117" y="-159"/>
      <point x="143" y="-169"/>
      <point x="171" y="-169" type="curve" smooth="yes"/>
      <point x="204" y="-169"/>
      <point x="230" y="-155"/>
      <point x="230" y="-119" type="curve" smooth="yes"/>
      <point x="230" y="-84"/>
      <point x="205" y="-79"/>
      <point x="173" y="-79" type="curve" smooth="yes"/>
      <point x="146" y="-79" type="line"/>
      <point x="153" y="-8" type="line"/>
      <point x="101" y="-2"/>
      <point x="49" y="15"/>
      <point x="25" y="34" type="curve"/>
      <point x="47" y="128" type="line"/>
      <point x="91" y="124" type="line"/>
      <point x="80" y="59" type="line"/>
      <point x="108" y="43"/>
      <point x="140" y="36"/>
    </contour>
  </outline>
</glyph>
<glyph name="Tcaron" format="1">
  <advance width="601"/>
  <unicode hex="0164"/>
  <outline>
    <contour>
      <point x="332" y="705" type="line"/>
      <point x="347" y="705" type="line"/>
      <point x="479" y="792" type="line"/>
      <point x="464" y="820" type="line"/>
      <point x="345" y="755" type="line"/>
      <point x="239" y="818" type="line"/>
      <point x="220" y="789" type="line"/>
    </contour>
    <contour>
      <point x="592" y="458" type="line"/>
      <point x="593" y="650" type="line"/>
      <point x="83" y="650" type="line"/>
      <point x="45" y="458" type="line"/>
      <point x="95" y="454" type="line"/>
      <point x="129" y="599" type="line"/>
      <point x="307" y="599" type="line"/>
      <point x="249" y="51" type="line"/>
      <point x="136" y="51" type="line"/>
      <point x="131" y="0" type="line"/>
      <point x="414" y="0" type="line"/>
      <point x="419" y="51" type="line"/>
      <point x="304" y="51" type="line"/>
      <point x="362" y="599" type="line"/>
      <point x="537" y="599" type="line"/>
      <point x="541" y="454" type="line"/>
    </contour>
  </outline>
</glyph>
<glyph name="tcaron" format="1">
  <advance width="337"/>
  <unicode hex="0165"/>
  <outline>
    <contour>
      <point x="29" y="426" type="line"/>
      <point x="49" y="444" type="line"/>
      <point x="110" y="444" type="line"/>
      <point x="126" y="569" type="line"/>
      <point x="145" y="588" type="line"/>
      <point x="181" y="588" type="line"/>
      <point x="163" y="444" type="line"/>
      <point x="319" y="444" type="line"/>
      <point x="315" y="415" type="line"/>
      <point x="295" y="397" type="line"/>
      <point x="158" y="397" type="line"/>
      <point x="126" y="134" type="line" smooth="yes"/>
      <point x="118" y="68"/>
      <point x="135" y="36"/>
      <point x="187" y="36" type="curve" smooth="yes"/>
      <point x="219" y="36"/>
      <point x="244" y="47"/>
      <point x="267" y="122" type="curve"/>
      <point x="307" y="108" type="line"/>
      <point x="284" y="27"/>
      <point x="249" y="-10"/>
      <point x="181" y="-10" type="curve" smooth="yes"/>
      <point x="101" y="-10"/>
      <point x="62" y="45"/>
      <point x="73" y="130" type="curve"/>
      <point x="105" y="397" type="line"/>
      <point x="25" y="397" type="line"/>
    </contour>
    <contour>
      <point x="362" y="761" type="line"/>
      <point x="311" y="761" type="line"/>
      <point x="275" y="537" type="line"/>
      <point x="320" y="537" type="line"/>
    </contour>
  </outline>
</glyph>
<glyph name="tbar" format="1">
  <advance width="340"/>
  <unicode hex="0167"/>
  <outline>
    <contour>
      <point x="31" y="426" type="line"/>
      <point x="51" y="444" type="line"/>
      <point x="112" y="444" type="line"/>
      <point x="128" y="569" type="line"/>
      <point x="147" y="588" type="line"/>
      <point x="183" y="588" type="line"/>
      <point x="165" y="444" type="line"/>
      <point x="321" y="444" type="line"/>
      <point x="317" y="415" type="line"/>
      <point x="297" y="397" type="line"/>
      <point x="160" y="397" type="line"/>
      <point x="145" y="275" type="line"/>
      <point x="300" y="275" type="line"/>
      <point x="296" y="253" type="line"/>
      <point x="277" y="237" type="line"/>
      <point x="140" y="237" type="line"/>
      <point x="128" y="134" type="line" smooth="yes"/>
      <point x="120" y="68"/>
      <point x="137" y="36"/>
      <point x="189" y="36" type="curve" smooth="yes"/>
      <point x="221" y="36"/>
      <point x="246" y="47"/>
      <point x="269" y="122" type="curve"/>
      <point x="309" y="108" type="line"/>
      <point x="286" y="27"/>
      <point x="251" y="-10"/>
      <point x="183" y="-10" type="curve" smooth="yes"/>
      <point x="103" y="-10"/>
      <point x="64" y="45"/>
      <point x="75" y="130" type="curve" smooth="yes"/>
      <point x="88" y="237" type="line"/>
      <point x="15" y="237" type="line"/>
      <point x="18" y="258" type="line"/>
      <point x="39" y="275" type="line"/>
      <point x="92" y="275" type="line"/>
      <point x="107" y="397" type="line"/>
      <point x="27" y="397" type="line"/>
    </contour>
  </outline>
</glyph>
<glyph name="utilde" format="1">
  <advance width="517"/>
  <unicode hex="0169"/>
  <outline>
    <contour>
      <point x="475" y="46" type="line"/>
      <point x="471" y="17" type="line"/>
      <point x="452" y="0" type="line"/>
      <point x="344" y="0" type="line"/>
      <point x="347" y="85" type="line"/>
      <point x="315" y="27"/>
      <point x="268" y="-9"/>
      <point x="198" y="-9" type="curve" smooth="yes"/>
      <point x="113" y="-9"/>
      <point x="58" y="42"/>
      <point x="72" y="163" type="curve" smooth="yes"/>
      <point x="100" y="397" type="line"/>
      <point x="21" y="397" type="line"/>
      <point x="25" y="428" type="line"/>
      <point x="44" y="444" type="line"/>
      <point x="159" y="444" type="line"/>
      <point x="127" y="176" type="line"/>
      <point x="114" y="76"/>
      <point x="146" y="37"/>
      <point x="219" y="37" type="curve" smooth="yes"/>
      <point x="293" y="37"/>
      <point x="339" y="98"/>
      <point x="354" y="160" type="curve"/>
      <point x="389" y="444" type="line"/>
      <point x="442" y="444" type="line"/>
      <point x="393" y="46" type="line"/>
    </contour>
    <contour>
      <point x="175" y="558" type="line"/>
      <point x="189" y="591"/>
      <point x="213" y="601"/>
      <point x="231" y="601" type="curve" smooth="yes"/>
      <point x="266" y="601"/>
      <point x="295" y="563"/>
      <point x="346" y="563" type="curve" smooth="yes"/>
      <point x="387" y="563"/>
      <point x="411" y="593"/>
      <point x="429" y="646" type="curve"/>
      <point x="398" y="654" type="line"/>
      <point x="385" y="616"/>
      <point x="367" y="611"/>
      <point x="349" y="611" type="curve" smooth="yes"/>
      <point x="298" y="611"/>
      <point x="278" y="648"/>
      <point x="235" y="648" type="curve" smooth="yes"/>
      <point x="190" y="648"/>
      <point x="157" y="603"/>
      <point x="147" y="569" type="curve"/>
    </contour>
  </outline>
</glyph>
<glyph name="Ubreve" format="1">
  <advance width="698"/>
  <unicode hex="016C"/>
  <outline>
    <contour>
      <point x="489" y="650" type="line"/>
      <point x="698" y="650" type="line"/>
      <point x="693" y="599" type="line"/>
      <point x="629" y="599" type="line"/>
      <point x="595" y="266" type="line"/>
      <point x="580" y="128"/>
      <point x="519" y="-10"/>
      <point x="325" y="-10" type="curve" smooth="yes"/>
      <point x="138" y="-10"/>
      <point x="87" y="115"/>
      <point x="102" y="255" type="curve" smooth="yes"/>
      <point x="138" y="599" type="line"/>
      <point x="70" y="599" type="line"/>
      <point x="75" y="650" type="line"/>
      <point x="291" y="650" type="line"/>
      <point x="285" y="599" type="line"/>
      <point x="194" y="599" type="line"/>
      <point x="158" y="257" type="line" smooth="yes"/>
      <point x="144" y="119"/>
      <point x="199" y="42"/>
      <point x="331" y="42" type="curve" smooth="yes"/>
      <point x="453" y="42"/>
      <point x="526" y="116"/>
      <point x="543" y="266" type="curve"/>
      <point x="577" y="599" type="line"/>
      <point x="484" y="599" type="line"/>
    </contour>
    <contour>
      <point x="473" y="812" type="curve"/>
      <point x="519" y="812" type="line"/>
      <point x="511" y="732"/>
      <point x="466" y="700"/>
      <point x="392" y="700" type="curve" smooth="yes"/>
      <point x="319" y="700"/>
      <point x="281" y="733"/>
      <point x="289" y="812" type="curve"/>
      <point x="335" y="812" type="line"/>
      <point x="329" y="755"/>
      <point x="352" y="740"/>
      <point x="396" y="740" type="curve" smooth="yes"/>
      <point x="444" y="740"/>
      <point x="467" y="758"/>
    </contour>
  </outline>
</glyph>
<glyph name="ubreve" format="1">
  <advance width="517"/>
  <unicode hex="016D"/>
  <outline>
    <contour>
      <point x="475" y="46" type="line"/>
      <point x="471" y="17" type="line"/>
      <point x="452" y="0" type="line"/>
      <point x="344" y="0" type="line"/>
      <point x="347" y="85" type="line"/>
      <point x="315" y="27"/>
      <point x="268" y="-9"/>
      <point x="198" y="-9" type="curve" smooth="yes"/>
      <point x="113" y="-9"/>
      <point x="58" y="42"/>
      <point x="72" y="163" type="curve" smooth="yes"/>
      <point x="100" y="397" type="line"/>
      <point x="21" y="397" type="line"/>
      <point x="25" y="428" type="line"/>
      <point x="44" y="444" type="line"/>
      <point x="159" y="444" type="line"/>
      <point x="127" y="176" type="line"/>
      <point x="114" y="76"/>
      <point x="146" y="37"/>
      <point x="219" y="37" type="curve" smooth="yes"/>
      <point x="293" y="37"/>
      <point x="339" y="98"/>
      <point x="354" y="160" type="curve"/>
      <point x="389" y="444" type="line"/>
      <point x="442" y="444" type="line"/>
      <point x="393" y="46" type="line"/>
    </contour>
    <contour>
      <point x="355" y="655" type="curve"/>
      <point x="402" y="655" type="line"/>
      <point x="393" y="576"/>
      <point x="350" y="537"/>
      <point x="274" y="537" type="curve" smooth="yes"/>
      <point x="200" y="537"/>
      <point x="163" y="577"/>
      <point x="171" y="655" type="curve"/>
      <point x="218" y="655" type="line"/>
      <point x="211" y="597"/>
      <point x="234" y="577"/>
      <point x="279" y="577" type="curve" smooth="yes"/>
      <point x="326" y="577"/>
      <point x="350" y="600"/>
    </contour>
  </outline>
</glyph>
<glyph name="Uring" format="1">
  <advance width="698"/>
  <unicode hex="016E"/>
  <outline>
    <contour>
      <point x="489" y="650" type="line"/>
      <point x="698" y="650" type="line"/>
      <point x="693" y="599" type="line"/>
      <point x="629" y="599" type="line"/>
      <point x="595" y="266" type="line"/>
      <point x="580" y="128"/>
      <point x="519" y="-10"/>
      <point x="325" y="-10" type="curve" smooth="yes"/>
      <point x="138" y="-10"/>
      <point x="87" y="115"/>
      <point x="102" y="255" type="curve" smooth="yes"/>
      <point x="138" y="599" type="line"/>
      <point x="70" y="599" type="line"/>
      <point x="75" y="650" type="line"/>
      <point x="291" y="650" type="line"/>
      <point x="285" y="599" type="line"/>
      <point x="194" y="599" type="line"/>
      <point x="158" y="257" type="line" smooth="yes"/>
      <point x="144" y="119"/>
      <point x="199" y="42"/>
      <point x="331" y="42" type="curve" smooth="yes"/>
      <point x="453" y="42"/>
      <point x="526" y="116"/>
      <point x="543" y="266" type="curve"/>
      <point x="577" y="599" type="line"/>
      <point x="484" y="599" type="line"/>
    </contour>
    <contour>
      <point x="393" y="690" type="curve" smooth="yes"/>
      <point x="461" y="690"/>
      <point x="500" y="736"/>
      <point x="500" y="793" type="curve" smooth="yes"/>
      <point x="500" y="842"/>
      <point x="472" y="874"/>
      <point x="414" y="874" type="curve" smooth="yes"/>
      <point x="349" y="874"/>
      <point x="307" y="832"/>
      <point x="307" y="772" type="curve" smooth="yes"/>
      <point x="307" y="720"/>
      <point x="336" y="690"/>
    </contour>
    <contour>
      <point x="397" y="725" type="curve" smooth="yes"/>
      <point x="363" y="725"/>
      <point x="347" y="745"/>
      <point x="347" y="774" type="curve" smooth="yes"/>
      <point x="347" y="812"/>
      <point x="370" y="840"/>
      <point x="410" y="840" type="curve" smooth="yes"/>
      <point x="445" y="840"/>
      <point x="459" y="818"/>
      <point x="459" y="790" type="curve" smooth="yes"/>
      <point x="459" y="754"/>
      <point x="438" y="725"/>
    </contour>
  </outline>
</glyph>
<glyph name="uogonek" format="1">
  <advance width="519"/>
  <unicode hex="0173"/>
  <outline>
    <contour>
      <point x="345" y="0" type="line"/>
      <point x="348" y="85" type="line"/>
      <point x="316" y="27"/>
      <point x="269" y="-9"/>
      <point x="199" y="-9" type="curve" smooth="yes"/>
      <point x="114" y="-9"/>
      <point x="59" y="42"/>
      <point x="73" y="163" type="curve" smooth="yes"/>
      <point x="101" y="397" type="line"/>
      <point x="22" y="397" type="line"/>
      <point x="26" y="428" type="line"/>
      <point x="45" y="444" type="line"/>
      <point x="160" y="444" type="line"/>
      <point x="128" y="176" type="line"/>
      <point x="115" y="76"/>
      <point x="147" y="37"/>
      <point x="220" y="37" type="curve" smooth="yes"/>
      <point x="294" y="37"/>
      <point x="340" y="98"/>
      <point x="355" y="160" type="curve"/>
      <point x="390" y="444" type="line"/>
      <point x="443" y="444" type="line"/>
      <point x="394" y="46" type="line"/>
      <point x="476" y="46" type="line"/>
      <point x="472" y="17" type="line"/>
      <point x="453" y="0" type="line"/>
      <point x="422" y="0" type="line"/>
      <point x="361" y="-34"/>
      <point x="341" y="-77"/>
      <point x="341" y="-113" type="curve" smooth="yes"/>
      <point x="341" y="-152"/>
      <point x="362" y="-165"/>
      <point x="397" y="-165" type="curve" smooth="yes"/>
      <point x="415" y="-165"/>
      <point x="432" y="-161"/>
      <point x="454" y="-149" type="curve"/>
      <point x="458" y="-189" type="line"/>
      <point x="435" y="-201"/>
      <point x="409" y="-209"/>
      <point x="381" y="-209" type="curve" smooth="yes"/>
      <point x="324" y="-209"/>
      <point x="291" y="-178"/>
      <point x="291" y="-126" type="curve" smooth="yes"/>
      <point x="291" y="-73"/>
      <point x="328" y="-27"/>
      <point x="375" y="0" type="curve"/>
    </contour>
  </outline>
</glyph>
<glyph name="Wcircumflex" format="1">
  <advance width="898"/>
  <unicode hex="0174"/>
  <outline>
    <contour>
      <point x="928" y="599" type="line"/>
      <point x="872" y="599" type="line"/>
      <point x="642" y="0" type="line"/>
      <point x="593" y="0" type="line"/>
      <point x="482" y="547" type="line"/>
      <point x="478" y="547" type="line"/>
      <point x="253" y="0" type="line"/>
      <point x="203" y="0" type="line"/>
      <point x="88" y="599" type="line"/>
      <point x="34" y="599" type="line"/>
      <point x="39" y="650" type="line"/>
      <point x="249" y="650" type="line"/>
      <point x="243" y="599" type="line"/>
      <point x="146" y="599" type="line"/>
      <point x="236" y="93" type="line"/>
      <point x="241" y="93" type="line"/>
      <point x="449" y="599" type="line"/>
      <point x="381" y="599" type="line"/>
      <point x="387" y="650" type="line"/>
      <point x="597" y="650" type="line"/>
      <point x="591" y="599" type="line"/>
      <point x="523" y="599" type="line"/>
      <point x="625" y="91" type="line"/>
      <point x="630" y="91" type="line"/>
      <point x="816" y="599" type="line"/>
      <point x="719" y="599" type="line"/>
      <point x="724" y="650" type="line"/>
      <point x="933" y="650" type="line"/>
    </contour>
    <contour>
      <point x="519" y="820" type="line"/>
      <point x="504" y="820" type="line"/>
      <point x="371" y="732" type="line"/>
      <point x="387" y="705" type="line"/>
      <point x="505" y="769" type="line"/>
      <point x="612" y="706" type="line"/>
      <point x="630" y="736" type="line"/>
    </contour>
  </outline>
</glyph>
<glyph name="wcircumflex" format="1">
  <advance width="708"/>
  <unicode hex="0175"/>
  <outline>
    <contour>
      <point x="482" y="65" type="line"/>
      <point x="486" y="65" type="line"/>
      <point x="571" y="165"/>
      <point x="609" y="251"/>
      <point x="609" y="354" type="curve" smooth="yes"/>
      <point x="609" y="387"/>
      <point x="605" y="415"/>
      <point x="594" y="444" type="curve"/>
      <point x="656" y="444" type="line"/>
      <point x="676" y="349"/>
      <point x="661" y="258"/>
      <point x="610" y="168" type="curve" smooth="yes"/>
      <point x="580" y="113"/>
      <point x="528" y="47"/>
      <point x="478" y="0" type="curve"/>
      <point x="447" y="0" type="line"/>
      <point x="369" y="355" type="line"/>
      <point x="365" y="355" type="line"/>
      <point x="205" y="0" type="line"/>
      <point x="171" y="0" type="line"/>
      <point x="68" y="397" type="line"/>
      <point x="16" y="397" type="line"/>
      <point x="20" y="426" type="line"/>
      <point x="39" y="444" type="line"/>
      <point x="225" y="444" type="line"/>
      <point x="221" y="413" type="line"/>
      <point x="202" y="397" type="line"/>
      <point x="125" y="397" type="line"/>
      <point x="198" y="90" type="line"/>
      <point x="202" y="90" type="line"/>
      <point x="360" y="444" type="line"/>
      <point x="399" y="444" type="line"/>
    </contour>
    <contour>
      <point x="409" y="667" type="line"/>
      <point x="393" y="667" type="line"/>
      <point x="266" y="549" type="line"/>
      <point x="287" y="522" type="line"/>
      <point x="394" y="612" type="line"/>
      <point x="485" y="522" type="line"/>
      <point x="511" y="549" type="line"/>
    </contour>
  </outline>
</glyph>
<glyph name="ycircumflex" format="1">
  <advance width="465"/>
  <unicode hex="0177"/>
  <outline>
    <contour>
      <point x="225" y="64" type="line"/>
      <point x="231" y="64" type="line"/>
      <point x="322" y="162"/>
      <point x="369" y="256"/>
      <point x="369" y="351" type="curve" smooth="yes"/>
      <point x="369" y="381"/>
      <point x="365" y="412"/>
      <point x="352" y="444" type="curve"/>
      <point x="416" y="444" type="line"/>
      <point x="438" y="357"/>
      <point x="425" y="271"/>
      <point x="374" y="184" type="curve" smooth="yes"/>
      <point x="344" y="132"/>
      <point x="293" y="68"/>
      <point x="237" y="13" type="curve"/>
      <point x="214" y="-167" type="line"/>
      <point x="295" y="-167" type="line"/>
      <point x="292" y="-197" type="line"/>
      <point x="273" y="-213" type="line"/>
      <point x="79" y="-213" type="line"/>
      <point x="83" y="-184" type="line"/>
      <point x="101" y="-167" type="line"/>
      <point x="161" y="-167" type="line"/>
      <point x="186" y="14" type="line"/>
      <point x="74" y="397" type="line"/>
      <point x="15" y="397" type="line"/>
      <point x="18" y="426" type="line"/>
      <point x="37" y="444" type="line"/>
      <point x="224" y="444" type="line"/>
      <point x="220" y="413" type="line"/>
      <point x="201" y="397" type="line"/>
      <point x="130" y="397" type="line"/>
    </contour>
    <contour>
      <point x="285" y="667" type="line"/>
      <point x="269" y="667" type="line"/>
      <point x="142" y="549" type="line"/>
      <point x="163" y="522" type="line"/>
      <point x="270" y="612" type="line"/>
      <point x="361" y="522" type="line"/>
      <point x="387" y="549" type="line"/>
    </contour>
  </outline>
</glyph>
<glyph name="Zacute" format="1">
  <advance width="562"/>
  <unicode hex="0179"/>
  <outline>
    <contour>
      <point x="473" y="0" type="line"/>
      <point x="519" y="185" type="line"/>
      <point x="471" y="194" type="line"/>
      <point x="427" y="51" type="line"/>
      <point x="87" y="51" type="line"/>
      <point x="88" y="54" type="line"/>
      <point x="538" y="615" type="line"/>
      <point x="533" y="650" type="line"/>
      <point x="107" y="650" type="line"/>
      <point x="61" y="466" type="line"/>
      <point x="107" y="458" type="line"/>
      <point x="151" y="599" type="line"/>
      <point x="457" y="599" type="line"/>
      <point x="457" y="596" type="line"/>
      <point x="8" y="37" type="line"/>
      <point x="6" y="0" type="line"/>
    </contour>
    <contour>
      <point x="472" y="753" type="line"/>
      <point x="458" y="808" type="line"/>
      <point x="267" y="739" type="line"/>
      <point x="275" y="707" type="line"/>
    </contour>
  </outline>
</glyph>
<glyph name="zdotaccent" format="1">
  <advance width="448"/>
  <unicode hex="017C"/>
  <outline>
    <contour>
      <point x="368" y="0" type="line"/>
      <point x="404" y="133" type="line"/>
      <point x="361" y="141" type="line"/>
      <point x="327" y="46" type="line"/>
      <point x="84" y="46" type="line"/>
      <point x="409" y="408" type="line"/>
      <point x="396" y="444" type="line"/>
      <point x="77" y="444" type="line"/>
      <point x="51" y="309" type="line"/>
      <point x="97" y="303" type="line"/>
      <point x="118" y="397" type="line"/>
      <point x="339" y="397" type="line"/>
      <point x="10" y="36" type="line"/>
      <point x="18" y="0" type="line"/>
    </contour>
    <contour>
      <point x="227" y="559" type="line"/>
      <point x="287" y="559" type="line"/>
      <point x="295" y="638" type="line"/>
      <point x="235" y="638" type="line"/>
    </contour>
  </outline>
</glyph>
<glyph name="Zcaron" format="1">
  <advance width="562"/>
  <unicode hex="017D"/>
  <outline>
    <contour>
      <point x="311" y="705" type="line"/>
      <point x="326" y="705" type="line"/>
      <point x="458" y="792" type="line"/>
      <point x="443" y="820" type="line"/>
      <point x="324" y="755" type="line"/>
      <point x="218" y="818" type="line"/>
      <point x="199" y="789" type="line"/>
    </contour>
    <contour>
      <point x="473" y="0" type="line"/>
      <point x="519" y="185" type="line"/>
      <point x="471" y="194" type="line"/>
      <point x="427" y="51" type="line"/>
      <point x="87" y="51" type="line"/>
      <point x="88" y="54" type="line"/>
      <point x="538" y="615" type="line"/>
      <point x="533" y="650" type="line"/>
      <point x="107" y="650" type="line"/>
      <point x="61" y="466" type="line"/>
      <point x="107" y="458" type="line"/>
      <point x="151" y="599" type="line"/>
      <point x="457" y="599" type="line"/>
      <point x="457" y="596" type="line"/>
      <point x="8" y="37" type="line"/>
      <point x="6" y="0" type="line"/>
    </contour>
  </outline>
</glyph>
<glyph name="zcaron" format="1">
  <advance width="448"/>
  <unicode hex="017E"/>
  <outline>
    <contour>
      <point x="245" y="522" type="line"/>
      <point x="260" y="522" type="line"/>
      <point x="388" y="639" type="line"/>
      <point x="367" y="666" type="line"/>
      <point x="259" y="577" type="line"/>
      <point x="170" y="663" type="line"/>
      <point x="143" y="637" type="line"/>
    </contour>
    <contour>
      <point x="368" y="0" type="line"/>
      <point x="404" y="133" type="line"/>
      <point x="361" y="141" type="line"/>
      <point x="327" y="46" type="line"/>
      <point x="84" y="46" type="line"/>
      <point x="409" y="408" type="line"/>
      <point x="396" y="444" type="line"/>
      <point x="77" y="444" type="line"/>
      <point x="51" y="309" type="line"/>
      <point x="97" y="303" type="line"/>
      <point x="118" y="397" type="line"/>
      <point x="339" y="397" type="line"/>
      <point x="10" y="36" type="line"/>
      <point x="18" y="0" type="line"/>
    </contour>
  </outline>
</glyph>
<glyph name="uni018F" format="1">
  <advance width="671"/>
  <unicode hex="018F"/>
  <outline>
    <contour>
      <point x="128" y="435" type="line"/>
      <point x="152" y="548" type="line"/>
      <point x="209" y="586"/>
      <point x="284" y="608"/>
      <point x="354" y="608" type="curve" smooth="yes"/>
      <point x="514" y="608"/>
      <point x="583" y="494"/>
      <point x="574" y="340" type="curve"/>
      <point x="52" y="340" type="line"/>
      <point x="46" y="285" type="line" smooth="yes"/>
      <point x="26" y="100"/>
      <point x="131" y="-10"/>
      <point x="302" y="-10" type="curve" smooth="yes"/>
      <point x="519" y="-10"/>
      <point x="633" y="169"/>
      <point x="633" y="361" type="curve" smooth="yes"/>
      <point x="633" y="534"/>
      <point x="541" y="660"/>
      <point x="363" y="660" type="curve" smooth="yes"/>
      <point x="265" y="660"/>
      <point x="163" y="621"/>
      <point x="102" y="566" type="curve"/>
      <point x="82" y="440" type="line"/>
    </contour>
    <contour>
      <point x="569" y="292" type="line"/>
      <point x="547" y="155"/>
      <point x="469" y="42"/>
      <point x="309" y="42" type="curve" smooth="yes"/>
      <point x="152" y="42"/>
      <point x="87" y="152"/>
      <point x="106" y="285" type="curve" smooth="yes"/>
      <point x="107" y="292" type="line"/>
    </contour>
  </outline>
</glyph>
<glyph name="uni01C4" format="1">
  <advance width="1251"/>
  <unicode hex="01C4"/>
  <outline>
    <contour>
      <point x="13" y="0" type="line"/>
      <point x="19" y="50" type="line"/>
      <point x="101" y="50" type="line"/>
      <point x="158" y="600" type="line"/>
      <point x="76" y="600" type="line"/>
      <point x="81" y="650" type="line"/>
      <point x="362" y="650" type="line" smooth="yes"/>
      <point x="551" y="650"/>
      <point x="653" y="529"/>
      <point x="653" y="360" type="curve" smooth="yes"/>
      <point x="653" y="156"/>
      <point x="513" y="0"/>
      <point x="296" y="0" type="curve" smooth="yes"/>
    </contour>
    <contour>
      <point x="299" y="50" type="line" smooth="yes"/>
      <point x="481" y="50"/>
      <point x="595" y="180"/>
      <point x="595" y="356" type="curve" smooth="yes"/>
      <point x="595" y="500"/>
      <point x="512" y="600"/>
      <point x="356" y="600" type="curve" smooth="yes"/>
      <point x="212" y="600" type="line"/>
      <point x="155" y="50" type="line"/>
    </contour>
    <contour>
      <point x="1162" y="0" type="line"/>
      <point x="1208" y="185" type="line"/>
      <point x="1160" y="194" type="line"/>
      <point x="1116" y="51" type="line"/>
      <point x="776" y="51" type="line"/>
      <point x="777" y="54" type="line"/>
      <point x="1227" y="615" type="line"/>
      <point x="1222" y="650" type="line"/>
      <point x="796" y="650" type="line"/>
      <point x="750" y="466" type="line"/>
      <point x="796" y="458" type="line"/>
      <point x="840" y="599" type="line"/>
      <point x="1146" y="599" type="line"/>
      <point x="1146" y="596" type="line"/>
      <point x="697" y="37" type="line"/>
      <point x="695" y="0" type="line"/>
    </contour>
    <contour>
      <point x="1000" y="705" type="line"/>
      <point x="1015" y="705" type="line"/>
      <point x="1147" y="792" type="line"/>
      <point x="1132" y="820" type="line"/>
      <point x="1013" y="755" type="line"/>
      <point x="907" y="818" type="line"/>
      <point x="888" y="789" type="line"/>
    </contour>
  </outline>
</glyph>
<glyph name="uni01CB" format="1">
  <advance width="953"/>
  <unicode hex="01CB"/>
  <outline>
    <contour>
      <point x="25" y="51" type="line"/>
      <point x="101" y="51" type="line"/>
      <point x="158" y="599" type="line"/>
      <point x="74" y="599" type="line"/>
      <point x="79" y="650" type="line"/>
      <point x="204" y="650" type="line"/>
      <point x="521" y="117" type="line"/>
      <point x="524" y="117" type="line"/>
      <point x="574" y="599" type="line"/>
      <point x="479" y="599" type="line"/>
      <point x="484" y="650" type="line"/>
      <point x="716" y="650" type="line"/>
      <point x="711" y="599" type="line"/>
      <point x="628" y="599" type="line"/>
      <point x="566" y="0" type="line"/>
      <point x="528" y="0" type="line"/>
      <point x="208" y="539" type="line"/>
      <point x="205" y="539" type="line"/>
      <point x="153" y="51" type="line"/>
      <point x="259" y="51" type="line"/>
      <point x="254" y="0" type="line"/>
      <point x="20" y="0" type="line"/>
    </contour>
    <contour>
      <point x="734" y="426" type="line"/>
      <point x="753" y="444" type="line"/>
      <point x="895" y="444" type="line"/>
      <point x="837" y="-27" type="line" smooth="yes"/>
      <point x="821" y="-155"/>
      <point x="773" y="-218"/>
      <point x="706" y="-223" type="curve"/>
      <point x="680" y="-224"/>
      <point x="655" y="-218"/>
      <point x="632" y="-208" type="curve"/>
      <point x="635" y="-166" type="line"/>
      <point x="704" y="-195"/>
      <point x="766" y="-171"/>
      <point x="784" y="-27" type="curve" smooth="yes"/>
      <point x="836" y="397" type="line"/>
      <point x="730" y="397" type="line"/>
    </contour>
    <contour>
      <point x="844" y="568" type="line"/>
      <point x="905" y="568" type="line"/>
      <point x="913" y="647" type="line"/>
      <point x="852" y="647" type="line"/>
    </contour>
  </outline>
</glyph>
<glyph name="uni01CC" format="1">
  <advance width="760"/>
  <unicode hex="01CC"/>
  <outline>
    <contour>
      <point x="53" y="444" type="line"/>
      <point x="161" y="444" type="line"/>
      <point x="157" y="357" type="line"/>
      <point x="190" y="415"/>
      <point x="239" y="453"/>
      <point x="310" y="453" type="curve" smooth="yes"/>
      <point x="396" y="453"/>
      <point x="451" y="401"/>
      <point x="436" y="280" type="curve" smooth="yes"/>
      <point x="407" y="46" type="line"/>
      <point x="487" y="46" type="line"/>
      <point x="483" y="15" type="line"/>
      <point x="464" y="0" type="line"/>
      <point x="350" y="0" type="line"/>
      <point x="382" y="267" type="line" smooth="yes"/>
      <point x="394" y="368"/>
      <point x="358" y="406"/>
      <point x="290" y="406" type="curve" smooth="yes"/>
      <point x="211" y="406"/>
      <point x="160" y="337"/>
      <point x="149" y="270" type="curve" smooth="yes"/>
      <point x="148" y="262" type="line"/>
      <point x="116" y="0" type="line"/>
      <point x="64" y="0" type="line"/>
      <point x="112" y="397" type="line"/>
      <point x="30" y="397" type="line"/>
      <point x="34" y="426" type="line"/>
    </contour>
    <contour>
      <point x="541" y="426" type="line"/>
      <point x="560" y="444" type="line"/>
      <point x="702" y="444" type="line"/>
      <point x="644" y="-27" type="line" smooth="yes"/>
      <point x="628" y="-155"/>
      <point x="580" y="-218"/>
      <point x="513" y="-223" type="curve"/>
      <point x="487" y="-224"/>
      <point x="462" y="-218"/>
      <point x="439" y="-208" type="curve"/>
      <point x="442" y="-166" type="line"/>
      <point x="511" y="-195"/>
      <point x="573" y="-171"/>
      <point x="591" y="-27" type="curve" smooth="yes"/>
      <point x="643" y="397" type="line"/>
      <point x="537" y="397" type="line"/>
    </contour>
    <contour>
      <point x="651" y="568" type="line"/>
      <point x="712" y="568" type="line"/>
      <point x="720" y="647" type="line"/>
      <point x="659" y="647" type="line"/>
    </contour>
  </outline>
</glyph>
<glyph name="uni01D3" format="1">
  <advance width="698"/>
  <unicode hex="01D3"/>
  <outline>
    <contour>
      <point x="489" y="650" type="line"/>
      <point x="698" y="650" type="line"/>
      <point x="693" y="599" type="line"/>
      <point x="629" y="599" type="line"/>
      <point x="595" y="266" type="line"/>
      <point x="580" y="128"/>
      <point x="519" y="-10"/>
      <point x="325" y="-10" type="curve" smooth="yes"/>
      <point x="138" y="-10"/>
      <point x="87" y="115"/>
      <point x="102" y="255" type="curve" smooth="yes"/>
      <point x="138" y="599" type="line"/>
      <point x="70" y="599" type="line"/>
      <point x="75" y="650" type="line"/>
      <point x="291" y="650" type="line"/>
      <point x="285" y="599" type="line"/>
      <point x="194" y="599" type="line"/>
      <point x="158" y="257" type="line" smooth="yes"/>
      <point x="144" y="119"/>
      <point x="199" y="42"/>
      <point x="331" y="42" type="curve" smooth="yes"/>
      <point x="453" y="42"/>
      <point x="526" y="116"/>
      <point x="543" y="266" type="curve"/>
      <point x="577" y="599" type="line"/>
      <point x="484" y="599" type="line"/>
    </contour>
    <contour>
      <point x="386" y="705" type="line"/>
      <point x="401" y="705" type="line"/>
      <point x="533" y="792" type="line"/>
      <point x="518" y="820" type="line"/>
      <point x="399" y="755" type="line"/>
      <point x="293" y="818" type="line"/>
      <point x="274" y="789" type="line"/>
    </contour>
  </outline>
</glyph>
<glyph name="aemacron" format="1">
  <advance width="703"/>
  <unicode hex="01E3"/>
  <outline>
    <contour>
      <point x="226" y="407" type="curve" smooth="yes"/>
      <point x="301" y="407"/>
      <point x="321" y="364"/>
      <point x="314" y="294" type="curve" smooth="yes"/>
      <point x="309" y="244" type="line"/>
      <point x="286" y="245"/>
      <point x="258" y="247"/>
      <point x="235" y="247" type="curve" smooth="yes"/>
      <point x="135" y="247"/>
      <point x="26" y="219"/>
      <point x="26" y="106" type="curve" smooth="yes"/>
      <point x="26" y="18"/>
      <point x="93" y="-10"/>
      <point x="152" y="-10" type="curve" smooth="yes"/>
      <point x="230" y="-10"/>
      <point x="287" y="40"/>
      <point x="317" y="91" type="curve"/>
      <point x="339" y="26"/>
      <point x="390" y="-10"/>
      <point x="468" y="-10" type="curve" smooth="yes"/>
      <point x="567" y="-10"/>
      <point x="630" y="47"/>
      <point x="650" y="119" type="curve"/>
      <point x="607" y="130" type="line"/>
      <point x="583" y="67"/>
      <point x="538" y="36"/>
      <point x="476" y="36" type="curve" smooth="yes"/>
      <point x="392" y="36"/>
      <point x="360" y="93"/>
      <point x="360" y="185" type="curve"/>
      <point x="410" y="192"/>
      <point x="460" y="200"/>
      <point x="504" y="209" type="curve" smooth="yes"/>
      <point x="617" y="233"/>
      <point x="661" y="281"/>
      <point x="661" y="342" type="curve" smooth="yes"/>
      <point x="661" y="414"/>
      <point x="598" y="453"/>
      <point x="523" y="453" type="curve" smooth="yes"/>
      <point x="458" y="453"/>
      <point x="403" y="424"/>
      <point x="365" y="375" type="curve"/>
      <point x="349" y="426"/>
      <point x="304" y="453"/>
      <point x="243" y="453" type="curve" smooth="yes"/>
      <point x="190" y="453"/>
      <point x="134" y="440"/>
      <point x="94" y="409" type="curve"/>
      <point x="69" y="310" type="line"/>
      <point x="113" y="304" type="line"/>
      <point x="138" y="384" type="line"/>
      <point x="168" y="398"/>
      <point x="195" y="407"/>
    </contour>
    <contour>
      <point x="163" y="35" type="curve" smooth="yes"/>
      <point x="123" y="35"/>
      <point x="84" y="52"/>
      <point x="84" y="113" type="curve" smooth="yes"/>
      <point x="84" y="193"/>
      <point x="151" y="213"/>
      <point x="228" y="213" type="curve" smooth="yes"/>
      <point x="249" y="213"/>
      <point x="280" y="212"/>
      <point x="305" y="209" type="curve"/>
      <point x="304" y="200"/>
      <point x="304" y="190"/>
      <point x="304" y="181" type="curve" smooth="yes"/>
      <point x="304" y="171"/>
      <point x="304" y="161"/>
      <point x="305" y="151" type="curve"/>
      <point x="288" y="91"/>
      <point x="235" y="35"/>
    </contour>
    <contour>
      <point x="521" y="406" type="curve" smooth="yes"/>
      <point x="568" y="406"/>
      <point x="605" y="388"/>
      <point x="605" y="339" type="curve" smooth="yes"/>
      <point x="605" y="310"/>
      <point x="592" y="268"/>
      <point x="483" y="245" type="curve" smooth="yes"/>
      <point x="465" y="241"/>
      <point x="418" y="232"/>
      <point x="362" y="225" type="curve"/>
      <point x="371" y="315"/>
      <point x="415" y="406"/>
    </contour>
    <contour>
      <point x="281" y="618" type="line"/>
      <point x="514" y="618" type="line"/>
      <point x="510" y="572" type="line"/>
      <point x="276" y="572" type="line"/>
    </contour>
  </outline>
</glyph>
<glyph name="uni01F3" format="1">
  <advance width="954"/>
  <unicode hex="01F3"/>
  <outline>
    <contour>
      <point x="307" y="672" type="line"/>
      <point x="326" y="688" type="line"/>
      <point x="472" y="688" type="line"/>
      <point x="392" y="46" type="line"/>
      <point x="473" y="46" type="line"/>
      <point x="470" y="15" type="line"/>
      <point x="451" y="0" type="line"/>
      <point x="342" y="0" type="line"/>
      <point x="346" y="90" type="line"/>
      <point x="314" y="36"/>
      <point x="265" y="-10"/>
      <point x="186" y="-10" type="curve" smooth="yes"/>
      <point x="89" y="-10"/>
      <point x="35" y="61"/>
      <point x="35" y="175" type="curve" smooth="yes"/>
      <point x="35" y="290"/>
      <point x="91" y="453"/>
      <point x="247" y="453" type="curve" smooth="yes"/>
      <point x="309" y="453"/>
      <point x="358" y="426"/>
      <point x="379" y="376" type="curve"/>
      <point x="412" y="642" type="line"/>
      <point x="304" y="642" type="line"/>
    </contour>
    <contour>
      <point x="251" y="406" type="curve" smooth="yes"/>
      <point x="129" y="406"/>
      <point x="92" y="276"/>
      <point x="92" y="183" type="curve" smooth="yes"/>
      <point x="92" y="88"/>
      <point x="129" y="36"/>
      <point x="200" y="36" type="curve" smooth="yes"/>
      <point x="281" y="36"/>
      <point x="341" y="118"/>
      <point x="355" y="181" type="curve"/>
      <point x="369" y="290" type="line"/>
      <point x="366" y="356"/>
      <point x="318" y="406"/>
    </contour>
    <contour>
      <point x="875" y="0" type="line"/>
      <point x="911" y="133" type="line"/>
      <point x="868" y="141" type="line"/>
      <point x="834" y="46" type="line"/>
      <point x="591" y="46" type="line"/>
      <point x="916" y="408" type="line"/>
      <point x="903" y="444" type="line"/>
      <point x="584" y="444" type="line"/>
      <point x="558" y="309" type="line"/>
      <point x="604" y="303" type="line"/>
      <point x="625" y="397" type="line"/>
      <point x="846" y="397" type="line"/>
      <point x="517" y="36" type="line"/>
      <point x="525" y="0" type="line"/>
    </contour>
  </outline>
</glyph>
<glyph name="Oslashacute" format="1">
  <advance width="713"/>
  <unicode hex="01FE"/>
  <outline>
    <contour>
      <point x="395" y="660" type="curve" smooth="yes"/>
      <point x="197" y="660"/>
      <point x="45" y="494"/>
      <point x="45" y="291" type="curve" smooth="yes"/>
      <point x="45" y="210"/>
      <point x="70" y="136"/>
      <point x="117" y="82" type="curve"/>
      <point x="45" y="0" type="line"/>
      <point x="99" y="0" type="line"/>
      <point x="146" y="53" type="line"/>
      <point x="193" y="13"/>
      <point x="254" y="-10"/>
      <point x="328" y="-10" type="curve" smooth="yes"/>
      <point x="531" y="-10"/>
      <point x="680" y="158"/>
      <point x="680" y="359" type="curve" smooth="yes"/>
      <point x="680" y="440"/>
      <point x="654" y="514"/>
      <point x="607" y="568" type="curve"/>
      <point x="680" y="650" type="line"/>
      <point x="621" y="650" type="line"/>
      <point x="575" y="598" type="line"/>
      <point x="528" y="637"/>
      <point x="467" y="660"/>
    </contour>
    <contour>
      <point x="336" y="42" type="curve" smooth="yes"/>
      <point x="271" y="42"/>
      <point x="221" y="61"/>
      <point x="183" y="94" type="curve"/>
      <point x="569" y="525" type="line"/>
      <point x="603" y="481"/>
      <point x="621" y="422"/>
      <point x="621" y="355" type="curve" smooth="yes"/>
      <point x="621" y="188"/>
      <point x="508" y="42"/>
    </contour>
    <contour>
      <point x="104" y="296" type="curve" smooth="yes"/>
      <point x="104" y="465"/>
      <point x="221" y="608"/>
      <point x="389" y="608" type="curve" smooth="yes"/>
      <point x="450" y="608"/>
      <point x="501" y="589"/>
      <point x="539" y="557" type="curve"/>
      <point x="155" y="125" type="line"/>
      <point x="121" y="170"/>
      <point x="104" y="230"/>
    </contour>
    <contour>
      <point x="552" y="753" type="line"/>
      <point x="538" y="808" type="line"/>
      <point x="347" y="739" type="line"/>
      <point x="355" y="707" type="line"/>
    </contour>
  </outline>
</glyph>
<glyph name="dotlessj" format="1">
  <advance width="243"/>
  <unicode hex="0237"/>
  <outline>
    <contour>
      <point x="25" y="426" type="line"/>
      <point x="43" y="444" type="line"/>
      <point x="185" y="444" type="line"/>
      <point x="128" y="-27" type="line" smooth="yes"/>
      <point x="112" y="-157"/>
      <point x="62" y="-220"/>
      <point x="-7" y="-223" type="curve" smooth="yes"/>
      <point x="-31" y="-224"/>
      <point x="-55" y="-218"/>
      <point x="-77" y="-208" type="curve"/>
      <point x="-74" y="-166" type="line"/>
      <point x="-6" y="-195"/>
      <point x="57" y="-171"/>
      <point x="75" y="-27" type="curve" smooth="yes"/>
      <point x="127" y="397" type="line"/>
      <point x="21" y="397" type="line"/>
    </contour>
  </outline>
</glyph>
<glyph name="schwa" format="1">
  <advance width="435"/>
  <unicode hex="0259"/>
  <outline>
    <contour>
      <point x="214" y="406" type="curve" smooth="yes"/>
      <point x="154" y="406"/>
      <point x="108" y="375"/>
      <point x="84" y="312" type="curve"/>
      <point x="41" y="323" type="line"/>
      <point x="61" y="395"/>
      <point x="124" y="452"/>
      <point x="223" y="452" type="curve" smooth="yes"/>
      <point x="331" y="452"/>
      <point x="388" y="382"/>
      <point x="388" y="261" type="curve" smooth="yes"/>
      <point x="388" y="107"/>
      <point x="299" y="-11"/>
      <point x="168" y="-11" type="curve" smooth="yes"/>
      <point x="93" y="-11"/>
      <point x="30" y="30"/>
      <point x="30" y="97" type="curve" smooth="yes"/>
      <point x="30" y="163"/>
      <point x="76" y="209"/>
      <point x="188" y="233" type="curve" smooth="yes"/>
      <point x="232" y="242"/>
      <point x="281" y="251"/>
      <point x="331" y="259" type="curve"/>
      <point x="330" y="350"/>
      <point x="298" y="406"/>
    </contour>
    <contour>
      <point x="208" y="197" type="curve"/>
      <point x="101" y="172"/>
      <point x="88" y="136"/>
      <point x="88" y="102" type="curve" smooth="yes"/>
      <point x="88" y="55"/>
      <point x="121" y="36"/>
      <point x="172" y="36" type="curve" smooth="yes"/>
      <point x="275" y="36"/>
      <point x="319" y="126"/>
      <point x="328" y="216" type="curve"/>
      <point x="275" y="210"/>
      <point x="236" y="202"/>
    </contour>
  </outline>
</glyph>
<glyph name="circumflex" format="1">
  <advance width="331"/>
  <unicode hex="02C6"/>
  <outline>
    <contour>
      <point x="260" y="667" type="line"/>
      <point x="244" y="667" type="line"/>
      <point x="117" y="549" type="line"/>
      <point x="138" y="522" type="line"/>
      <point x="245" y="612" type="line"/>
      <point x="336" y="522" type="line"/>
      <point x="362" y="549" type="line"/>
    </contour>
  </outline>
</glyph>
<glyph name="caron" format="1">
  <advance width="331"/>
  <unicode hex="02C7"/>
  <outline>
    <contour>
      <point x="229" y="522" type="line"/>
      <point x="244" y="522" type="line"/>
      <point x="372" y="639" type="line"/>
      <point x="351" y="666" type="line"/>
      <point x="243" y="577" type="line"/>
      <point x="154" y="663" type="line"/>
      <point x="127" y="637" type="line"/>
    </contour>
  </outline>
</glyph>
<glyph name="breve" format="1">
  <advance width="391"/>
  <unicode hex="02D8"/>
  <outline>
    <contour>
      <point x="331" y="655" type="curve"/>
      <point x="378" y="655" type="line"/>
      <point x="369" y="576"/>
      <point x="326" y="537"/>
      <point x="250" y="537" type="curve" smooth="yes"/>
      <point x="176" y="537"/>
      <point x="139" y="577"/>
      <point x="147" y="655" type="curve"/>
      <point x="194" y="655" type="line"/>
      <point x="187" y="597"/>
      <point x="210" y="577"/>
      <point x="255" y="577" type="curve" smooth="yes"/>
      <point x="302" y="577"/>
      <point x="326" y="600"/>
    </contour>
  </outline>
</glyph>
<glyph name="dotaccent" format="1">
  <advance width="199"/>
  <unicode hex="02D9"/>
  <outline>
    <contour>
      <point x="129" y="559" type="line"/>
      <point x="189" y="559" type="line"/>
      <point x="197" y="638" type="line"/>
      <point x="137" y="638" type="line"/>
    </contour>
  </outline>
</glyph>
<glyph name="tilde" format="1">
  <advance width="367"/>
  <unicode hex="02DC"/>
  <outline>
    <contour>
      <point x="121" y="558" type="line"/>
      <point x="135" y="591"/>
      <point x="159" y="601"/>
      <point x="177" y="601" type="curve" smooth="yes"/>
      <point x="212" y="601"/>
      <point x="241" y="563"/>
      <point x="292" y="563" type="curve" smooth="yes"/>
      <point x="333" y="563"/>
      <point x="357" y="593"/>
      <point x="375" y="646" type="curve"/>
      <point x="344" y="654" type="line"/>
      <point x="331" y="616"/>
      <point x="313" y="611"/>
      <point x="295" y="611" type="curve" smooth="yes"/>
      <point x="244" y="611"/>
      <point x="224" y="648"/>
      <point x="181" y="648" type="curve" smooth="yes"/>
      <point x="136" y="648"/>
      <point x="103" y="603"/>
      <point x="93" y="569" type="curve"/>
    </contour>
  </outline>
</glyph>
<glyph name="hungarumlaut" format="1">
  <advance width="421"/>
  <unicode hex="02DD"/>
  <outline>
    <contour>
      <point x="435" y="631" type="line"/>
      <point x="408" y="678" type="line"/>
      <point x="245" y="550" type="line"/>
      <point x="260" y="523" type="line"/>
    </contour>
    <contour>
      <point x="290" y="682" type="line"/>
      <point x="247" y="714" type="line"/>
      <point x="132" y="541" type="line"/>
      <point x="156" y="522" type="line"/>
    </contour>
  </outline>
</glyph>
<glyph name="dotbelowcmb" format="1">
  <advance width="816"/>
  <unicode hex="0323"/>
  <outline>
    <contour>
      <point x="83" y="-168" type="line"/>
      <point x="144" y="-168" type="line"/>
      <point x="152" y="-89" type="line"/>
      <point x="91" y="-89" type="line"/>
    </contour>
  </outline>
</glyph>
<glyph name="Sigma" format="1">
  <advance width="528"/>
  <unicode hex="03A3"/>
  <outline>
    <contour>
      <point x="4" y="0" type="line"/>
      <point x="466" y="0" type="line"/>
      <point x="471" y="49" type="line"/>
      <point x="69" y="49" type="line"/>
      <point x="298" y="319" type="line"/>
      <point x="300" y="336" type="line"/>
      <point x="127" y="600" type="line"/>
      <point x="529" y="600" type="line"/>
      <point x="534" y="650" type="line"/>
      <point x="72" y="650" type="line"/>
      <point x="66" y="600" type="line"/>
      <point x="244" y="326" type="line"/>
      <point x="9" y="49" type="line"/>
    </contour>
  </outline>
</glyph>
<glyph name="pi" format="1">
  <advance width="568"/>
  <unicode hex="03C0"/>
  <outline>
    <contour>
      <point x="6" y="46" type="line"/>
      <point x="87" y="46" type="line"/>
      <point x="123" y="397" type="line"/>
      <point x="42" y="397" type="line"/>
      <point x="47" y="444" type="line"/>
      <point x="557" y="444" type="line"/>
      <point x="552" y="397" type="line"/>
      <point x="469" y="397" type="line"/>
      <point x="433" y="46" type="line"/>
      <point x="513" y="46" type="line"/>
      <point x="508" y="0" type="line"/>
      <point x="293" y="0" type="line"/>
      <point x="298" y="46" type="line"/>
      <point x="379" y="46" type="line"/>
      <point x="415" y="397" type="line"/>
      <point x="178" y="397" type="line"/>
      <point x="142" y="46" type="line"/>
      <point x="222" y="46" type="line"/>
      <point x="217" y="0" type="line"/>
      <point x="2" y="0" type="line"/>
    </contour>
  </outline>
</glyph>
<glyph name="uni1E46" format="1">
  <advance width="710"/>
  <unicode hex="1E46"/>
  <outline>
    <contour>
      <point x="25" y="51" type="line"/>
      <point x="101" y="51" type="line"/>
      <point x="158" y="599" type="line"/>
      <point x="74" y="599" type="line"/>
      <point x="79" y="650" type="line"/>
      <point x="204" y="650" type="line"/>
      <point x="521" y="117" type="line"/>
      <point x="524" y="117" type="line"/>
      <point x="574" y="599" type="line"/>
      <point x="479" y="599" type="line"/>
      <point x="484" y="650" type="line"/>
      <point x="716" y="650" type="line"/>
      <point x="711" y="599" type="line"/>
      <point x="628" y="599" type="line"/>
      <point x="566" y="0" type="line"/>
      <point x="528" y="0" type="line"/>
      <point x="208" y="539" type="line"/>
      <point x="205" y="539" type="line"/>
      <point x="153" y="51" type="line"/>
      <point x="259" y="51" type="line"/>
      <point x="254" y="0" type="line"/>
      <point x="20" y="0" type="line"/>
    </contour>
    <contour>
      <point x="291" y="-168" type="line"/>
      <point x="352" y="-168" type="line"/>
      <point x="360" y="-89" type="line"/>
      <point x="299" y="-89" type="line"/>
    </contour>
  </outline>
</glyph>
